<svg viewBox="0 0 231.71 127.49" xmlns="http://www.w3.org/2000/svg"><g fill="#fff"><path d="m128.66 4.92a16.81 16.81 0 1 1 -23.78 0 16.81 16.81 0 0 1 23.78 0z"/><path d="m98.74 112.48-14.43 14.43a2 2 0 0 1 -2.81 0l-31.84-31.84-31.84 31.84a2 2 0 0 1 -2.81 0l-14.43-14.43a2 2 0 0 1 0-2.81l47.68-47.67a2 2 0 0 1 2.81 0l47.67 47.64a2 2 0 0 1 0 2.84z"/><path d="m231.13 112.48-14.43 14.43a2 2 0 0 1 -2.81 0l-31.84-31.84-31.84 31.84a2 2 0 0 1 -2.81 0l-14.4-14.43a2 2 0 0 1 0-2.81l47.65-47.67a2 2 0 0 1 2.81 0l47.67 47.64a2 2 0 0 1 0 2.84z"/><path d="m165.83 44.79-47.64 47.68a2 2 0 0 1 -2.8 0l-47.68-47.68a2 2 0 0 1 0-2.81l14.39-14.42a2 2 0 0 1 2.81 0l31.88 31.88 31.84-31.88a2 2 0 0 1 2.81 0l14.39 14.44a2 2 0 0 1 0 2.79z"/></g></svg>