<svg xmlns="http://www.w3.org/2000/svg" viewBox="0 0 461.08 367.95"><defs><style>.cls-1{fill:#fff;}.cls-2{fill:#fd6651;}</style></defs><g id="Layer_2" data-name="Layer 2"><g id="Layer_1-2" data-name="Layer 1"><path class="cls-1" d="M0,302.6H38.2v13.48H15.26v13.49h19v13.48h-19v23.82H0Z"/><path class="cls-1" d="M46.14,320.58H61.23v46.29H46.14Zm.18-18H61.06v12.13H46.32Z"/><path class="cls-1" d="M74.67,333.52H68.91V321.39H75.1v-13.3H89.76v13.3h9.42v12.13H89.76v14.21c0,5.21,5.14,5.93,8,5.93a19.64,19.64,0,0,0,2-.09v13.48a28.21,28.21,0,0,1-4.1.27c-7.15,0-21-2-21-17.53Z"/><path class="cls-1" d="M113.74,346.82s7.07,6.66,14.92,6.66c3.14,0,6.54-1.26,6.54-5.12,0-7.65-28.09-7.37-28.09-27.15,0-11.87,9.69-19.69,22.07-19.69,13.44,0,20.06,7.28,20.06,7.28l-6.45,12.86S136.51,316,129,316c-3.14,0-6.63,1.43-6.63,5,0,8.09,28.09,6.65,28.09,27,0,10.69-7.94,19.95-22,19.95a31.77,31.77,0,0,1-22.76-9.17Z"/><path class="cls-1" d="M161.46,333.52H155.7V321.39h6.19v-13.3h14.66v13.3H186v12.13h-9.42v14.21c0,5.21,5.14,5.93,8,5.93a19.64,19.64,0,0,0,2-.09v13.48a28.21,28.21,0,0,1-4.1.27c-7.15,0-21-2-21-17.53Z"/><path class="cls-1" d="M218.07,338h.61v-.8c0-3.87-2.88-5.13-6.63-5.13-5.67,0-12.12,4.41-12.12,4.41l-5.24-11a33.38,33.38,0,0,1,18.84-6c12.65,0,20.24,7.1,20.24,18.88v28.49H220v-2.79a25.88,25.88,0,0,1,.17-2.87H220S216.67,368,207.25,368C198.88,368,192,362.2,192,353,192,339.55,211.09,338,218.07,338Zm-6.63,18.07c3.93,0,7.41-4.4,7.41-8.18v-1h-1.39c-4.8,0-10.3,1.44-10.3,5.3C207.16,354.38,208.47,356.08,211.44,356.08Z"/><path class="cls-1" d="M266,319.5c12.21,0,17.88,7,17.88,7l-6.37,10.43s-4.36-4.49-10.56-4.49c-7.15,0-10.72,5.56-10.72,11.05s3.66,11.5,11.25,11.5c6.28,0,12.3-5.56,12.3-5.56l5.49,10.87S278.52,368,266,368c-16.06,0-25-11.51-25-24.27C240.92,331.28,249.82,319.5,266,319.5Z"/><path class="cls-1" d="M292.3,302.6h15.09v33.26h4.27l8.9-15.28H337l-13.17,21v.19l15,25.07H321.61l-9.51-18h-4.71v18H292.3Z"/><path class="cls-1" d="M344,352.13h14.3v14.74H344Z"/><path class="cls-1" d="M370.2,302.6h15.26v64.27H370.2Z"/><path class="cls-1" d="M428.46,301.52c18.84,0,32.62,14.38,32.62,32.81,0,18.88-13.78,33.62-32.62,33.62s-32.62-14.74-32.62-33.62C395.84,315.9,409.62,301.52,428.46,301.52Zm0,52.05c9.33,0,16.84-8.27,16.84-19.24,0-10.52-7.51-18.43-16.84-18.43s-16.83,7.91-16.83,18.43C411.63,345.3,419.13,353.57,428.46,353.57Z"/><ellipse class="cls-2" cx="232.25" cy="32.46" rx="31.5" ry="32.46"/><path class="cls-2" d="M198.48,217.14l-27,27.86a3.64,3.64,0,0,1-5.26,0l-59.66-61.47L46.88,245a3.64,3.64,0,0,1-5.26,0l-27-27.86a3.92,3.92,0,0,1,0-5.42l89.32-92a3.64,3.64,0,0,1,5.25,0l89.32,92A3.92,3.92,0,0,1,198.48,217.14Z"/><path class="cls-2" d="M446.5,217.14l-27,27.86a3.64,3.64,0,0,1-5.26,0l-59.65-61.47L294.9,245a3.64,3.64,0,0,1-5.26,0l-27-27.86a3.91,3.91,0,0,1,0-5.42l89.31-92a3.65,3.65,0,0,1,5.26,0l89.31,92A3.91,3.91,0,0,1,446.5,217.14Z"/><path class="cls-2" d="M324.17,86.47l-89.25,92a3.64,3.64,0,0,1-5.26,0l-89.32-92a3.92,3.92,0,0,1,0-5.42l27-27.85a3.65,3.65,0,0,1,5.27,0l59.72,61.54L291.94,53.2a3.65,3.65,0,0,1,5.27,0l27,27.85A3.92,3.92,0,0,1,324.17,86.47Z"/></g></g></svg>