<svg id="Component_7_1" data-name="Component 7 – 1" xmlns="http://www.w3.org/2000/svg" width="37" height="37" viewBox="0 0 37 37">
  <circle id="Ellipse_3" data-name="Ellipse 3" cx="18.5" cy="18.5" r="18.5" fill="#fe4e4e"/>
  <path id="Icon_awesome-google" data-name="Icon awesome-google" d="M15.739,8.748A7.428,7.428,0,0,1,8,16.559a8,8,0,0,1,0-16,7.692,7.692,0,0,1,5.363,2.093L11.185,4.749C8.337,2,3.041,4.065,3.041,8.561A5.01,5.01,0,0,0,8,13.612a4.325,4.325,0,0,0,4.541-3.448H8V7.413h7.615A7.012,7.012,0,0,1,15.739,8.748Z" transform="translate(10.396 9.939)" fill="#fff"/>
</svg>
