<svg xmlns="http://www.w3.org/2000/svg" viewBox="0 0 1000 1000"><defs><style>.cls-1{isolation:isolate;}.cls-2{fill:#fc4a5d;}.cls-3{fill:#4a285e;}.cls-4,.cls-6{fill:#facc83;}.cls-5,.cls-8{fill:#93d4c3;}.cls-6,.cls-8{mix-blend-mode:multiply;}.cls-7{fill:#b1b1ae;}.cls-8{opacity:0.7;}</style></defs><g class="cls-1"><g id="Layer_1" data-name="Layer 1"><path class="cls-2" d="M628.183,678.39079l-1.33259,9.60708L600.29129,879.2734h-32.3544c-24.14177-59.96751-21.97238-103.72651-18.99719-182.81472l-3.96692-8.46081-50.14309-107.042-50.1431,107.042-3.96691,8.46081c2.97518,79.08821,5.14457,122.84721-18.99738,182.81472H389.36789L362.80875,687.99787l-1.33258-9.60708,11.43561-166.38944,1.45667-21.229.55781-7.99549,1.14664-.031L494.82969,478.314l119.90342,4.46287.031.40289v.031l.55782,8.05754,1.45647,21.22862Z"/><polygon class="cls-3" points="628.177 904.515 567.931 904.515 567.931 879.288 600.286 879.288 628.177 904.515"/><polygon class="cls-3" points="361.471 904.515 421.717 904.515 421.717 879.288 389.362 879.288 361.471 904.515"/><path class="cls-4" d="M773.74692,226.73085c-11.43562,26.49729-31.98253,50.57721-65.45256,59.50219-6.818,1.82873-19.92707.65069-31.57964.18613-5.11356-.21715-12.70634-.31021-19.52417.062-7.56176.40252-14.16282,1.36342-15.24761,3.28483-4.6176,8.18162-1.11562,38.11884-8.9562,61.08313-12.58226,36.87876-22.28239,49.36814-20.392,88.85039.83681,17.50988,2.51025,33.687,2.10735,48.03575a87.82755,87.82755,0,0,1-2.91314,21.41475,280.63078,280.63078,0,0,1-232.74086,0,87.81784,87.81784,0,0,1-2.91314-21.41475c-.4029-14.34876,1.27054-30.52587,2.10735-48.03575,1.89039-39.48225-7.80974-51.97163-20.392-88.85039-7.84058-22.96429-4.33879-52.90151-8.95639-61.08313-1.0846-1.92141-7.68566-2.88231-15.24742-3.28483-6.818-.37225-14.4108-.27919-19.52417-.062-11.65257.46456-24.76162,1.6426-31.57964-.18613-33.47-8.925-54.017-33.0049-65.45256-59.50219C213.74306,161.464,282.91456,98.98685,345.39193,75h47.9739v37.93271h-20.64s-6.818-17.29311-15.61929-17.29311c-26.28014,0-69.26437,70.50408-57.67384,89.81129,1.82835,3.037,17.23088-2.10716,33.81088-4.46249.1239-.031.279-.031.4029-.062a100.65943,100.65943,0,0,1,14.34875-1.0846c33.2841,0,46.76521,10.38185,56.77518,8.3057.09287,0,.18594-.031.248-.031a301.00753,301.00753,0,0,1,46.39314-7.097c.77477-.062,1.54954-.12409,2.29329-.18613,21.38373-1.54954,38.39765-1.0846,41.71369-.99154,3.316-.09306,20.33-.558,41.7135.99154.74394.062,1.51871.12409,2.29348.18613a301.01121,301.01121,0,0,1,46.39314,7.097c.062,0,.15492.031.248.031,10.01,2.07615,23.49108-8.3057,56.77517-8.3057a100.65946,100.65946,0,0,1,14.34876,1.0846c.1239.031.27881.031.4029.062,16.58,2.35533,31.98234,7.49953,33.81088,4.46249,11.59053-19.30721-31.3937-89.81129-57.67384-89.81129-8.80147,0-15.61949,17.29311-15.61949,17.29311H597.47121V75h47.97371C707.92248,98.98685,777.094,161.464,773.74692,226.73085Z"/><path class="cls-5" d="M657.18994,286.48c-7.55994.4-14.15991,1.36-15.25,3.29-4.60986,8.17993-1.10986,38.11-8.94995,61.08-12.59,36.88-22.29,49.37-20.3999,88.85.83984,17.51,2.50989,33.69006,2.10986,48.04A87.46038,87.46038,0,0,1,611.79,509.1499a280.60557,280.60557,0,0,1-232.74,0A87.93647,87.93647,0,0,1,376.13,487.74c-.4-14.35,1.28-30.53,2.11-48.04,1.89-39.48-7.81-51.97-20.39-88.85-7.84-22.97-4.34-52.9-8.96-61.08-1.08-1.93-7.68-2.89-15.24-3.29-8.49-35.74-11.11-71.1,0-105.55A100.72444,100.72444,0,0,1,348,179.84c33.28,0,46.76,10.38,56.77,8.30993.09,0,.19-.0299.25-.0299a269.64943,269.64943,0,0,1,29.51-5.35c5.79-.74,11.46-1.31006,16.87994-1.75.78-.06006,1.55-.12012,2.29-.19006,21.39-1.54993,38.4-1.08,41.72-.99,3.31-.09,20.33-.55994,41.71.99.75.06994,1.52.13,2.29993.19006,6.61011.54,13.61011,1.27,20.72009,2.27a259.43951,259.43951,0,0,1,25.67,4.83c.05993,0,.1499.0299.25.0299,10.01,2.07007,23.49-8.30993,56.77-8.30993a100.72258,100.72258,0,0,1,14.34985,1.09C672.07007,218.36,672.31006,253.59,657.18994,286.48Z"/><path class="cls-4" d="M495.41852,554.27248h-1.17767s.217-.12409.58884-.34086C495.20156,554.14839,495.41852,554.27248,495.41852,554.27248Z"/><path class="cls-3" d="M616.77842,512.49693a312.01494,312.01494,0,0,1-243.86664-.49558l1.45667-21.229q.976.41878,1.95243.83681a292.84659,292.84659,0,0,0,238.19527,0c.248-.09306.5268-.21715.8058-.34085Z"/><path class="cls-4" d="M440.71968,696.45868c2.97518,79.08821,5.14457,122.84721-18.99738,182.81472H389.36789L362.80875,687.99787h81.87784Z"/><path class="cls-4" d="M626.85043,687.99787,600.29129,879.2734h-32.3544c-24.14177-59.96751-21.97238-103.72651-18.99719-182.81472l-3.96692-8.46081Z"/><path class="cls-6" d="M539.656,180.88753a55.69473,55.69473,0,0,1-80.82388-.217c22.03442-1.42546,38.52155-.74375,38.52155-.74375A410.75881,410.75881,0,0,1,539.656,180.88753Z"/><path class="cls-4" d="M542.7965,148.93919c0,8.35656-6.25069,15.17564-14.0054,15.27581-4.98068,15.2089-17.18113,25.93879-31.42074,25.93879s-26.47352-10.72989-31.4542-25.93879c-7.75471-.13363-14.0054-6.91925-14.0054-15.27581a15.57173,15.57173,0,0,1,6.71851-13.00265,13.44717,13.44717,0,0,1,7.28689-2.30642,42.64685,42.64685,0,0,1,7.32035-13.53779c.83566.96949,16.312,18.05025,36.33451,18.41789a101.96967,101.96967,0,0,0,26.273-2.741A15.56668,15.56668,0,0,1,542.7965,148.93919Z"/><path class="cls-3" d="M453.26439,133.62692a47.37945,47.37945,0,0,0,6.97293,2.13837l5.64035,28.35647s1.33258,11.43561,21.41475,11.99362c20.082.55781,39.69922-2.0455,42.86015-11.90056,3.16112-9.85505,7.283-28.26359,7.283-28.26359,1.02256-19.67909-8.49145-47.88083-44.78175-47.88083S453.26439,133.62692,453.26439,133.62692Z"/><rect class="cls-7" x="313.79968" y="904.51496" width="365.93941" height="20.48504"/><path class="cls-8" d="M505.4073,518.39825H492.06615c.44085-102.446,6.6938-306.359,6.6938-306.359S504.95491,415.95226,505.4073,518.39825Z"/><path class="cls-4" d="M560.15,183.29c-1.44006,20.76-29,37.30994-62.8,37.30994-34.07,0-61.81-16.83-62.81995-37.83,5.79-.74,11.46-1.31006,16.87994-1.75.78-.06006,1.55-.12012,2.29-.19006,21.39-1.54993,38.4-1.08,41.72-.99,3.31-.09,20.33-.55994,41.71.99.75.06994,1.52.13,2.29993.19006C546.04,181.56006,553.04,182.29,560.15,183.29Z"/></g></g></svg>