<svg xmlns="http://www.w3.org/2000/svg" viewBox="0 0 1000 1000"><defs><style>.cls-1{isolation:isolate;}.cls-2,.cls-8{fill:#facc83;}.cls-3{fill:#4a285e;}.cls-4,.cls-5{fill:#93d4c3;}.cls-5{opacity:0.7;}.cls-5,.cls-8{mix-blend-mode:multiply;}.cls-6{fill:#b1b1ae;}.cls-7{fill:#fc4a5d;}.cls-9{fill:#bc1931;mix-blend-mode:overlay;}</style></defs><g class="cls-1"><g id="Layer_1" data-name="Layer 1"><polygon class="cls-2" points="642.765 729.066 591.72 879.488 561.453 879.488 537.995 723.201 526.614 697.253 516.619 674.521 452.522 528.48 622.019 528.48 639.486 697.253 642.765 729.066"/><polygon class="cls-3" points="561.448 879.487 591.716 879.487 627.851 904.144 562.205 904.144 561.448 879.487"/><polygon class="cls-2" points="526.361 729.066 475.317 879.488 445.049 879.488 421.592 723.201 410.179 697.253 378.776 625.841 378.776 528.48 490.577 528.48 516.619 674.521 516.651 674.553 520.686 697.253 526.361 729.066"/><polygon class="cls-3" points="445.052 879.487 475.319 879.487 511.454 904.144 445.809 904.144 445.052 879.487"/><path class="cls-2" d="M231.30819,340.90587c-3.44232-10.81955,21.561-59.98863,63.41868-90.156,1.90792-1.3429,11.83021-5.83754,25.32887-11.47092,24.09674-10.06183,59.722-23.8377,82.06436-30.33567,31.18235-9.069,59.9877,3.04237,59.9877,3.04237,39.7223,14.64953,52.63741,66.056,31.28357,105.75813,0,0-11.75278,18.52232-54.95408,31.08682-21.31295,6.19858-49.42152,9.5796-73.13454,11.02569-23.00312,1.40357-41.91739,1.06-46.59648-.23876,1.63572,1.56,64.89835,56.05454,82.00875,91.62927l16.59019-4.825L411.51,435.3015l20.43148-9.45538,8.292,34.49482-52.9798,15.40844S250.69078,401.79231,231.30819,340.90587Z"/><path class="cls-4" d="M493.38263,317.75922s-2.61693,4.13023-9.96314,9.80553l-.126.126a.03091.03091,0,0,0-.03156.03156c-8.19735,6.33727-22.196,14.53462-44.83352,21.09262-21.31334,6.211-49.4054,9.58461-73.11475,11.035L320.07,239.28477c24.08787-10.05762,59.71511-23.83558,82.03738-30.33065a87.3314,87.3314,0,0,1,9.71085-2.20685c27.20917-4.47719,50.2879,5.23366,50.2879,5.23366a59.75274,59.75274,0,0,1,28.47039,22.07C506.53,256.68841,508.29558,290.04568,493.38263,317.75922Z"/><path class="cls-5" d="M490.57654,234.05092c-1.95476,40.35652-4.7924,90.04557-7.15705,93.51383l-.126.126a.03091.03091,0,0,0-.03156.03156c-8.19735,6.33727-22.196,14.53462-44.83352,21.09262-21.31334,6.211-49.4054,9.58461-73.11475,11.035-21.944-115.09486,30.24014-148.907,30.24014-148.907,27.20916-4.47719,66.55239,1.038,66.55239,1.038A59.75274,59.75274,0,0,1,490.57654,234.05092Z"/><path class="cls-4" d="M626.4332,509.15384a175.09189,175.09189,0,0,1-4.41408,19.32664c-9.77378,33.86164-238.892,59.43164-239.83779,0q-.14174-9.69526-.34677-19.32664c-2.52225-124.91653-8.9542-235.80224,10.81427-286.37418,20.74585-53.15711,73.46151-64.57043,73.46151-64.57043,3.49963-.91445,6.96789-1.67111,10.34146-2.23841,25.79035-4.50875,48.11243.31483,66.90352,10.751a212.10317,212.10317,0,0,1,25.25441,16.61561A173.44622,173.44622,0,0,1,595.409,208.37089c11.12948,13.05326,19.29546,27.68217,20.99794,42.8476.28384,2.554.53612,5.076.75684,7.50381,3.2789,34.49206,1.04031,55.93164-2.30171,68.95295-2.207,8.6388-4.85533,13.589-6.7156,16.2369h-.03156a11.33261,11.33261,0,0,1-2.17529,2.58556,4.82073,4.82073,0,0,0,.4097.34677c.28384.28365.946,3.40494,1.86027,8.44982,2.58536,14.66047,7.28309,45.36926,11.25572,67.62861C626.71685,463.40586,631.32009,479.70588,626.4332,509.15384Z"/><rect class="cls-6" x="368.55506" y="904.1595" width="372.28926" height="20.8405"/><polygon class="cls-7" points="639.486 697.253 410.179 697.253 378.776 625.841 378.776 528.48 622.019 528.48 639.486 697.253"/><path class="cls-2" d="M546.50731,169.16509c0,14.06181-16.17417,25.47513-36.13161,25.47513-19.95764,0-36.1318-11.41332-36.1318-25.47513a18.02833,18.02833,0,0,1,1.10342-6.211,21.57754,21.57754,0,0,1,4.09887-6.96788c24.84433-4.35095,46.44151-.03156,64.79115,9.61618.7251.37851,1.41883.75684,2.11236,1.13517A20.89909,20.89909,0,0,1,546.50731,169.16509Z"/><path class="cls-8" d="M544.23734,165.60235c-5.13917,9.67929-18.34964,16.55249-33.86164,16.55249-16.89946,0-31.05575-8.16579-35.02838-19.20079a21.57754,21.57754,0,0,1,4.09887-6.96788C504.29052,151.63522,525.8877,155.95461,544.23734,165.60235Z"/><path class="cls-2" d="M547.43785,102.06455s21.423,27.4278,5.76772,52.234-57.67717,23.57028-59.73707,3.38327S491.4086,100.00465,547.43785,102.06455Z"/><path class="cls-3" d="M484.81692,95.88485s2.88386-8.23959,15.24325-11.53543,16.4792-5.35574,35.01829-8.65158,34.6063,5.35574,20.599,20.187-40.374,22.24692-40.374,22.24692.412,35.43026-13.59534,39.13808-30.07452,0-30.07452-11.53544S463.806,96.29683,484.81692,95.88485Z"/><path class="cls-5" d="M609.69135,344.3064a13.67127,13.67127,0,0,1-4.3194,2.6483s-143.2658,31.93844-137.496-86.70355c5.58061-78.1908,73.65067-76.11,128.19524-26.57855C611.29933,271.097,619.46532,315.64686,609.69135,344.3064Z"/><path class="cls-2" d="M769.00526,257.47662c.28385,11.3504-37.45594,51.58068-86.07293,68.85847-2.207.75665-12.98975,2.30152-27.52457,3.94107-25.94794,2.93213-64.00294,6.211-87.271,6.211-32.47438,0-56.75141-19.67379-56.75141-19.67379-34.05081-25.15973-32.096-78.12768-.50437-110.28685,0,0,16.45782-14.50325,61.44914-14.50325,22.196,0,50.13049,4.60323,73.3039,9.83689,22.47988,5.07625,40.54569,10.68823,44.67592,13.242-1.135-1.95476-46.66223-71.94821-53.15711-110.8859H619.8752l2.45913,12.29621-22.25916,3.37339,1.67111-35.43807h55.175S767.39728,193.59972,769.00526,257.47662Z"/><path class="cls-4" d="M655.40776,330.27616c-25.94794,2.93213-64.00294,6.211-87.271,6.211-32.47438,0-56.75141-19.67379-56.75141-19.67379-34.05081-25.15973-32.096-78.12768-.50437-110.28685,0,0,16.45782-14.50325,61.44914-14.50325,22.196,0,50.13049,4.60323,73.3039,9.83689Z"/><polygon class="cls-9" points="490.577 697.253 452.522 528.48 526.614 697.253 490.577 697.253"/></g></g></svg>