<svg xmlns="http://www.w3.org/2000/svg" viewBox="0 0 1000 1000"><defs><style>.cls-1{isolation:isolate;}.cls-2{fill:#fc4a5d;}.cls-3{fill:#4a285e;}.cls-4,.cls-6{fill:#facc83;}.cls-5{fill:#93d4c3;}.cls-6{mix-blend-mode:multiply;}.cls-7{fill:#b1b1ae;}</style></defs><g class="cls-1"><g id="Layer_1" data-name="Layer 1"><path class="cls-2" d="M633.84131,677.48837l-1.33746,9.64223L605.84752,879.10607h-32.4728c-22.76811-56.57876-37.60488-118.78717-36.79614-191.97547.03113-4.66563.12435-9.3624.311-14.121L500,584.05121l-36.88955,88.95834c.18662,4.75865.27984,9.45542.311,14.121.80874,73.1883-14.028,135.39671-36.79633,191.97547h-32.4728L367.496,687.1306l-1.33746-9.64223,18.56931-165.38083L500,552.91586l115.27219-40.80832Z"/><polygon class="cls-3" points="633.842 904.44 573.375 904.44 573.375 879.121 605.848 879.121 633.842 904.44"/><polygon class="cls-3" points="366.159 904.44 426.626 904.44 426.626 879.121 394.153 879.121 366.159 904.44"/><path class="cls-4" d="M779.93788,227.28608c-11.47746,26.59426-32.09957,50.76229-65.69207,59.71993-6.843,1.83543-20,.65307-31.6952.18681-2.2396-.0934-4.41675-.15567-6.46973-.15567-7.9938-.09341-14.37013.5908-15.98761,3.51479-4.6345,8.21156,6.74975,38.25833-1.1197,61.30665-12.62831,37.01371-36.54745,47.24711-28.33589,86.06511,7.496,35.45887,54.89881,103.88813-91.81969,113.77943-11.50859.77761-24.199,1.21273-38.227,1.21273h-1.182c-14.028,0-26.7186-.43512-38.227-1.21273-146.71869-9.8913-99.31591-78.32056-91.81969-113.77943,8.21156-38.818-15.70758-49.0514-28.33589-86.06511-7.86945-23.04832,3.5148-53.09509-1.11989-61.30665-1.64843-2.924-8.02475-3.6082-15.98742-3.54593-12.90832.09341-30.04677,2.17715-38.16493,0-33.5925-8.95764-54.21461-33.12567-65.69207-59.71993C216.70281,161.78044,286.12743,99.07463,348.83343,75h48.14945v38.07152H376.26737s-6.84278-17.35639-15.67646-17.35639c-26.37631,0-69.51783,70.76207-57.88488,90.13994,1.36859,2.30168,9.73563-.03114,21.21309-2.364a139.44653,139.44653,0,0,1,27.52715-3.26572c33.40589,0,89.17571,2.36395,103.79473,1.182.7776-.06227,1.55521-.12454,2.30168-.18681,21.462-1.55521,38.53816-1.08857,41.86633-.99517.37324.03114.591.03114.591.03114s.21775,0,.591-.03114c3.32817-.0934,20.40435-.56,41.86614.99517.74666.06227,1.52427.12454,2.30187.18681,14.61883,1.182,70.38884-1.182,103.79473-1.182a101.73748,101.73748,0,0,1,14.80564,1.15084c4.41674.62193,8.74027,1.43067,12.72151,2.27055,11.13536,2.23941,19.87564,4.44769,21.21309,2.20828,11.633-19.37787-31.50857-90.13994-57.88488-90.13994-8.83368,0-15.67665,17.35639-15.67665,17.35639H603.01712V75h48.14926C713.87257,99.07463,783.29719,161.78044,779.93788,227.28608Z"/><path class="cls-5" d="M676.08,287.04c-7.99-.1001-14.37.59-15.99,3.51-4.63,8.21,6.75,38.26-1.12006,61.30994-12.62,37.01-36.54,47.25-28.33,86.05993,7.49,35.46008,54.9,103.89014-91.82,113.78H461.18c-146.72-9.88989-99.31-78.31995-91.82-113.78C377.57,399.11,353.65,388.87,341.03,351.86c-7.87-23.04993,3.51-53.1-1.12-61.30994-1.65-2.92005-8.03-3.61011-15.99-3.54,8-33.93994,7.42-68.49,0-103.52a139.367,139.367,0,0,1,27.53-3.26c24.91,0,62.26,1.31006,85.7,1.49,7.99.06006,14.37-.01,18.09-.31006.78-.05993,1.56-.12988,2.3-.18994,21.46-1.55,38.54-1.09,41.87-.99.37.03.59.03.59.03s.22,0,.59-.03c3.33-.1,20.41-.56006,41.87.99.74.06006,1.52.13,2.3.18994,3.72.3,10.1.37012,18.09.31006,23.44-.17993,60.79-1.49,85.7-1.49a100.972,100.972,0,0,1,14.81,1.15c4.42.62,8.74,1.43006,12.72,2.2699C667.25,217.62,667.49,252.1,676.08,287.04Z"/><path class="cls-4" d="M562.72,184.48c-2.39,20.2-29.54,36.12-62.68,36.12-33.15,0-60.31006-15.93006-62.68994-36.13C440.95,184,444.51,183.59,448,183.25c4.65-.46,9.17-.81006,13.48-1.08008,22.03-1.42993,38.52-.75,38.52-.75a412.44768,412.44768,0,0,1,42.3.96008c.75.05994,1.52.13,2.30005.19007C550.41,183.04,556.5,183.65991,562.72,184.48Z"/><path class="cls-5" d="M492.44238,164.59533c-1.36859,0-2.86172-.03113-4.51015-.03113C489.58066,164.53307,491.10492,164.5642,492.44238,164.59533Z"/><path class="cls-4" d="M463.42142,687.1306c.80874,73.1883-14.028,135.39671-36.79633,191.97547h-32.4728L367.496,687.1306Z"/><path class="cls-4" d="M632.50385,687.1306,605.84752,879.10607h-32.4728c-22.76811-56.57876-37.60488-118.78717-36.79614-191.97547Z"/><path class="cls-6" d="M542.45714,181.73379a55.89853,55.89853,0,0,1-81.11964-.21775c22.115-1.43067,38.66251-.74647,38.66251-.74647A412.26111,412.26111,0,0,1,542.45714,181.73379Z"/><path class="cls-4" d="M545.60916,149.66854c0,8.38714-6.27357,15.23118-14.05665,15.33172-4.99891,15.26455-17.244,26.03371-31.53572,26.03371s-26.57039-10.76916-31.5693-26.03371c-7.78308-.13412-14.05665-6.94458-14.05665-15.33172a15.62875,15.62875,0,0,1,6.74309-13.05023,13.49647,13.49647,0,0,1,7.31356-2.31486,42.80283,42.80283,0,0,1,7.34714-13.58732c.83871.973,16.37171,18.1163,36.46746,18.48528a102.34263,102.34263,0,0,0,26.36912-2.751A15.62363,15.62363,0,0,1,545.60916,149.66854Z"/><path class="cls-3" d="M455.74942,134.30024a47.554,47.554,0,0,0,6.99845,2.1462l5.661,28.46023s1.33746,11.47746,21.49312,12.03751c20.15546.55985,39.84448-2.053,43.017-11.9441,3.17269-9.89112,7.3096-28.367,7.3096-28.367,1.0263-19.75109-8.52252-48.056-44.94562-48.056S455.74942,134.30024,455.74942,134.30024Z"/><rect class="cls-7" x="316.36075" y="904.44" width="367.2785" height="20.56"/><path class="cls-4" d="M562.85,181.72c-.12,21.49-28.22,38.88-62.85,38.88s-62.73-17.39-62.85-38.88c7.99.06006,14.37-.01,18.09-.31006.78-.05993,1.56-.12988,2.3-.18994,21.46-1.55,38.54-1.09,41.87-.99.37.03.59.03.59.03s.22,0,.59-.03c3.33-.1,20.41-.56006,41.87.99.74.06006,1.52.13,2.3.18994C548.48,181.71,554.86,181.78,562.85,181.72Z"/></g></g></svg>