<svg xmlns="http://www.w3.org/2000/svg" viewBox="0 0 1000 1000"><defs><style>.cls-1{isolation:isolate;}.cls-2{fill:#fc4a5d;}.cls-3{fill:#4a285e;}.cls-4{fill:#facc83;}.cls-5,.cls-7{fill:#93d4c3;}.cls-6{fill:#b1b1ae;}.cls-7{opacity:0.8;mix-blend-mode:multiply;}</style></defs><g class="cls-1"><g id="Layer_1" data-name="Layer 1"><path class="cls-2" d="M623.70442,680.49476l-.65221,7.01827-18.2288,191.66682H572.40282c-20.30938-72.60511-16.42761-126.23578-16.55176-191.66682v-.21721c-23.04235-24.44-40.06-52.32663-55.83558-90.67811-15.7754,38.35148-32.79323,66.23809-55.83539,90.67811v.21721c-.12415,65.431,3.75762,119.06171-16.55194,191.66682h-32.4206L376.97875,687.513l-.652-7.01827,28.94235-163.06527.9007-5.12439,2.391-15.43385.06217-.46551.06217-.373.03108-.21721,68.69188,14.93687,22.60736,4.90681,21.21007-4.627,70.08936-15.21664v.06217l.15523.99357.09326.52806,2.298,14.90579,1.08682,6.05579Z"/><polygon class="cls-3" points="632.766 904.473 572.396 904.473 572.396 879.195 604.817 879.195 632.766 904.473"/><path class="cls-4" d="M763.41724,251.63631c-50.8668,27.94878-33.91114,41.92317-82.72844,41.92317-7.85661,0-14.347-.31046-19.75043-.80744q-1.07127-.09326-2.04949-.1865c-18.57054-1.83172-23.60131-5.2169-29.06688-1.42838-6.11758,118.50294-31.61315,50.12153-40.24612,148.3149.24849,24.22243,2.32907,43.04146,1.70794,57.51244-.27957,6.95611-1.21116,12.91866-3.26065,17.94942a220.59851,220.59851,0,0,1-88.00769,18.2288h-.03108a220.59761,220.59761,0,0,1-88.0075-18.2288c-2.04969-5.03076-2.98128-10.99331-3.26066-17.94942-.62112-14.471,1.45946-33.29,1.70795-57.51244-8.63316-98.19337-34.12854-29.812-40.24632-148.3149-5.46557-3.78852-10.49633-.40334-29.06668,1.42838q-2.09622.23313-4.37856.373c-4.90662.37226-10.65176.62093-17.42155.62093-48.81712,0-31.86164-13.97439-82.72825-41.92317C179.16345,220.08552,313.16241,99.03592,375.76759,75h48.072v42.48231h-20.6822c-16.86241-58.00941-118.22337,62.66717-105.491,79.747,1.98751,3.323,18.53927-8.38448,39.06624-11.86254,1.42837-.24829,2.888-.46589,4.37856-.62131a56.07179,56.07179,0,0,1,6.49041-.37226,130.759,130.759,0,0,1,54.93489,11.86254,43.96871,43.96871,0,0,0,35.21536.58985,160.85028,160.85028,0,0,1,62.23255-12.79431h.03108a160.8512,160.8512,0,0,1,62.23274,12.79431,43.96874,43.96874,0,0,0,35.21536-.58985,130.759,130.759,0,0,1,54.93489-11.86254,56.07192,56.07192,0,0,1,6.49041.37226c.6831.06217,1.36639.15542,2.04949.24868,21.58271,2.91891,39.31473,15.68252,41.39531,12.23517,12.73214-17.07981-88.62862-137.75639-105.49122-79.747h-20.682V75h48.07185C686.83766,99.03592,820.83643,220.08552,763.41724,251.63631Z"/><path class="cls-5" d="M660.93994,184.99V292.75c-.72-.06-1.3999-.12-2.0498-.18-18.57007-1.84-23.6001-5.22-29.07007-1.43-1.61011,31.39-4.59009,49.68-8.26,61.42a69.9634,69.9634,0,0,1-2.89014,7.67c-10,22.39-23.31982,13.54-29.08984,79.22.24,24.22,2.31982,43.04,1.7,57.51-.28,6.96-1.21,12.92-3.26,17.95a220.47728,220.47728,0,0,1-88,18.23h-.04a220.47728,220.47728,0,0,1-88-18.23c-2.05-5.03-2.98-10.99-3.26-17.95-.62-14.47,1.46-33.29,1.7-57.51-5.7699-65.68-19.08984-56.83-29.08984-79.22a69.93887,69.93887,0,0,1-2.89014-7.67c-3.66992-11.74-6.6499-30.03-8.26-61.42-5.47-3.79-10.5-.41-29.06994,1.43-1.4.15-2.86.28-4.38.37V185.37c1.42993-.25,2.89-.47,4.38-.62a55.71334,55.71334,0,0,1,6.49-.38A130.67391,130.67391,0,0,1,402.54,196.24a43.85221,43.85221,0,0,0,29.95,2.39,45.315,45.315,0,0,0,5.26-1.8,160.85734,160.85734,0,0,1,62.23-12.8h.04a160.85734,160.85734,0,0,1,62.23,12.8c1.12012.46,2.26.88,3.3999,1.25A43.95442,43.95442,0,0,0,597.46,196.24a130.67326,130.67326,0,0,1,54.93994-11.87,55.71621,55.71621,0,0,1,6.49024.38C659.57007,184.81,660.26,184.9,660.93994,184.99Z"/><path class="cls-4" d="M500.32664,184.57454c-.34155,0-.74527.03108-1.17988.03108v-.03108Z"/><path class="cls-4" d="M500.82361,184.57454v.03108a2.50994,2.50994,0,0,1-.497-.03108Z"/><path class="cls-5" d="M490.60684,184.45039c-1.3664,0-2.85713-.03108-4.5029-.03108C487.74971,184.38822,489.27153,184.41931,490.60684,184.45039Z"/><path class="cls-5" d="M499.98508,184.66779s-3.41589-.15542-9.37824-.2174c4.78227.03109,7.54614.12415,7.54614.12415s5.55864-.24849,14.56443-.15523C504.67429,184.45039,499.98508,184.66779,499.98508,184.66779Z"/><path class="cls-4" d="M546.63305,152.51433c0,8.57827-6.41654,15.57828-14.377,15.68111-5.11283,15.61241-17.637,26.627-32.2544,26.627s-27.17591-11.01458-32.28874-26.627c-7.96045-.13718-14.377-7.10284-14.377-15.68111a15.98489,15.98489,0,0,1,6.89675-13.34764,13.804,13.804,0,0,1,7.48023-2.36761,43.77824,43.77824,0,0,1,7.51458-13.897c.85783.99521,16.74481,18.52915,37.29853,18.90655a104.67505,104.67505,0,0,0,26.97-2.8137A15.9797,15.9797,0,0,1,546.63305,152.51433Z"/><path class="cls-3" d="M546.63305,136.79908a51.27381,51.27381,0,0,1-7.137,2.19588,104.67505,104.67505,0,0,1-26.97,2.8137c-20.55372-.3774-36.4407-17.91134-37.29853-18.90655a43.77824,43.77824,0,0,0-7.51458,13.897,13.804,13.804,0,0,0-7.48023,2.36761c-1.02935-20.17612,8.71566-49.13638,45.97964-49.13638S546.63305,136.79908,546.63305,136.79908Z"/><rect class="cls-6" x="307.12668" y="904.47306" width="366.68801" height="20.52694"/><polygon class="cls-3" points="365.527 904.473 425.896 904.473 425.896 879.195 393.475 879.195 365.527 904.473"/><path class="cls-3" d="M594.9482,518.36089A309.41741,309.41741,0,0,1,522.623,531.99373a.39383.39383,0,0,1-.18632.03109c-.15523,0-.34155.03108-.497.03108a307.69476,307.69476,0,0,1-51.30141-.83852.52845.52845,0,0,0-.2174-.03109,308.63245,308.63245,0,0,1-65.15185-13.7568l.9007-5.12439,2.391-15.43385.06217-.46551c.03108.03108.03108.03108.06217.03108a288.705,288.705,0,0,0,68.723,14.31556,282.69065,282.69065,0,0,0,43.81743.27977,287.16039,287.16039,0,0,0,70.02719-13.54c.12434-.03071.2174-.06179.31066-.09287l2.298,14.90579Z"/><path class="cls-7" d="M524.4464,418.46318v3.54932A12.09533,12.09533,0,0,1,512.356,434.10325H511.0249a12.09533,12.09533,0,0,1-12.09036-12.09075v-3.54932H495.1354v3.54932A12.09534,12.09534,0,0,1,483.045,434.10325H481.7139a12.09534,12.09534,0,0,1-12.09037-12.09075v-3.54932h-3.77127v8.7628a12.0345,12.0345,0,0,0,5.54593,10.1491,11.88341,11.88341,0,0,0,6.54443,1.94127h8.87369a11.88387,11.88387,0,0,0,6.54443-1.94127,12.05951,12.05951,0,0,0,3.67423-3.73279,12.05733,12.05733,0,0,0,3.67423,3.73279,11.88338,11.88338,0,0,0,6.54443,1.94127h8.87368a11.88385,11.88385,0,0,0,6.54443-1.94127,12.03465,12.03465,0,0,0,5.54613-10.1491v-8.7628Z"/><path class="cls-7" d="M524.4464,447.66292A12.09509,12.09509,0,0,1,512.356,459.75367H511.0249a12.09509,12.09509,0,0,1-12.09036-12.09075V444.114H495.1354v3.54894A12.0951,12.0951,0,0,1,483.045,459.75367H481.7139a12.0951,12.0951,0,0,1-12.09037-12.09075V444.114h-3.77127v8.76281a12.03449,12.03449,0,0,0,5.54593,10.14909,11.88651,11.88651,0,0,0,6.54443,1.94127h8.87369a11.887,11.887,0,0,0,6.54443-1.94127,12.05951,12.05951,0,0,0,3.67423-3.73279,12.05733,12.05733,0,0,0,3.67423,3.73279,11.88648,11.88648,0,0,0,6.54443,1.94127h8.87368a11.887,11.887,0,0,0,6.54443-1.94127,12.03465,12.03465,0,0,0,5.54613-10.14909V444.114H524.4464Z"/><path class="cls-7" d="M524.4464,473.31373A12.09476,12.09476,0,0,1,512.356,485.40409H511.0249a12.09476,12.09476,0,0,1-12.09036-12.09036V469.7644H495.1354v3.54933A12.09477,12.09477,0,0,1,483.045,485.40409H481.7139a12.09477,12.09477,0,0,1-12.09037-12.09036V469.7644h-3.77127v8.76281a12.03354,12.03354,0,0,0,5.54593,10.1491,11.88348,11.88348,0,0,0,6.54443,1.94126h8.87369a11.884,11.884,0,0,0,6.54443-1.94126,12.05148,12.05148,0,0,0,3.67423-3.7328,12.0493,12.0493,0,0,0,3.67423,3.7328,11.88346,11.88346,0,0,0,6.54443,1.94126h8.87368a11.88392,11.88392,0,0,0,6.54443-1.94126,12.03369,12.03369,0,0,0,5.54613-10.1491V469.7644H524.4464Z"/><path class="cls-7" d="M596.84253,352.56247c-.73171,2.91891-67.2714,7.67029-67.2714,7.67029-12.82988,0-23.22047-13.22912-23.22047-29.56366V304.07142l4.70751,23.33722c0,13.88114,8.85408,25.15383,19.75694,25.15383Z"/><path class="cls-7" d="M403.1608,352.56247c.73171,2.91891,67.2714,7.67029,67.2714,7.67029,12.82988,0,23.22047-13.22912,23.22047-29.56366V304.07142l-4.70751,23.33722c0,13.88114-8.85408,25.15383-19.75694,25.15383Z"/><path class="cls-4" d="M444.18009,687.513c-.12415,65.431,3.75762,119.06171-16.55194,191.66682h-32.4206L376.97875,687.513Z"/><path class="cls-4" d="M623.05221,687.513l-18.2288,191.66682H572.40282c-20.30938-72.60511-16.42761-126.23578-16.55176-191.66682Z"/><path class="cls-4" d="M565.6499,198.08c-11.81982,14.3-37.29,24.2-66.80981,24.2C469.7,222.28,444.5,212.64,432.49,198.63a45.315,45.315,0,0,0,5.26-1.8,160.85734,160.85734,0,0,1,62.23-12.8h.04a160.85734,160.85734,0,0,1,62.23,12.8C563.37012,197.29,564.51,197.71,565.6499,198.08Z"/></g></g></svg>