<svg xmlns="http://www.w3.org/2000/svg" viewBox="0 0 1000 1000"><defs><style>.cls-1{isolation:isolate;}.cls-2{fill:#fc4a5d;}.cls-3{fill:#4a285e;}.cls-4,.cls-6{fill:#facc83;}.cls-5{fill:#93d4c3;}.cls-6{mix-blend-mode:multiply;}.cls-7{fill:#b1b1ae;}</style></defs><g class="cls-1"><g id="Layer_1" data-name="Layer 1"><path class="cls-2" d="M645.25388,526.96977,638.374,686.44833l-1.85956,43.01525-29.906,148.26028H574.254c-16.30119-31.82762-24.45179-109.21157-25.38147-162.547l-13.20211-28.72853-34.52381-75.24539-34.5238,75.24539-13.20211,28.72853c-.92968,53.33543-9.08028,130.71938-25.38147,162.547H395.685l-29.9062-148.26028-1.85938-43.01525-6.88005-159.47856,144.10723,25.75316Z"/><polygon class="cls-3" points="633.354 902.965 573.108 902.965 573.108 877.739 605.462 877.739 633.354 902.965"/><polygon class="cls-3" points="429.186 877.724 429.186 902.95 368.94 902.95 396.832 877.724 429.186 877.724"/><path class="cls-4" d="M778.91723,228.28039c-11.03272,25.5364-39.23427,52.25045-63.77912,72.0226-.92969.77477-1.85938,1.51852-2.75823,2.23125-10.62982,8.42941-20.42283,15.4954-27.5817,20.45423a76.8396,76.8396,0,0,1-6.35308,26.7447c-15.83644,35.6084,4.52454,51.22789,12.70615,89.90435C699.20879,477.78738,697.16348,597.75266,500,583.12509,302.83652,597.75266,300.791,477.78738,308.84875,439.63752c8.18161-38.67646,28.54241-54.29595,12.70615-89.90435a76.8396,76.8396,0,0,1-6.35308-26.7447c-7.15887-4.95883-16.95188-12.02482-27.58189-20.45423-.89866-.71273-1.82835-1.45648-2.758-2.23125-24.54485-19.77215-52.7464-46.4862-63.77912-72.0226-3.34706-65.26681,65.82443-127.744,128.302-151.73085h47.9737v37.93271h-20.64s-6.81782-17.29311-15.61929-17.29311c-26.28015,0-59.96713,70.50408-48.3766,89.81129,2.32431,3.90487,7.035,6.50837,13.23313,8.151q.18585.04653.37187.09268c26.31117,6.8182,72.45652-3.47095,82.43547-5.5471.09306,0,.18593-.031.248-.031a281.48986,281.48986,0,0,1,38.98629-6.4153c4.64862-.46456,9.17335-.8058,13.48111-1.08461C483.51287,180.74023,500,181.42231,500,181.42231a410.79088,410.79088,0,0,1,42.30252.96052c.74375.062,1.51852.12409,2.29329.18613a301.00753,301.00753,0,0,1,46.39314,7.097c.062,0,.15492.031.248.031,9.97895,2.07615,56.1243,12.3653,82.43547,5.5471q.18612-.04653.37187-.09268c6.19816-1.64261,10.90882-4.24611,13.23313-8.151,11.59053-19.30721-22.09645-89.81129-48.3766-89.81129-8.80147,0-15.61948,17.29311-15.61948,17.29311H602.64153V76.54954h47.9737C713.0928,100.53639,782.26429,163.01358,778.91723,228.28039Z"/><path class="cls-5" d="M715.14,300.30005c-.93.77991-1.86,1.52-2.76,2.23-10.63,8.42993-20.42,15.5-27.58,20.46a77.00887,77.00887,0,0,1-6.35,26.74c-15.84,35.61,4.52,51.23,12.7,89.91,8.06,38.15,6.01,158.11-191.15,143.49C302.84009,597.75,300.79,477.79,308.8501,439.64c8.17993-38.68,28.53991-54.3,12.7-89.91A77.01169,77.01169,0,0,1,315.2,322.99C308.04,318.03,298.25,310.96,287.62,302.53c-.9-.71-1.83-1.45007-2.76-2.23,2.78-42.02,18.9-75.58008,41.47009-105.06006,26.30993,6.82007,72.45-3.47,82.42993-5.54.1,0,.18994-.03.25-.03a259.15685,259.15685,0,0,1,28.34009-5.2C440.95,184,444.51,183.59,448,183.25c4.65-.46,9.17-.81006,13.48-1.08008,22.03-1.42993,38.52-.75,38.52-.75a412.44768,412.44768,0,0,1,42.3.96008c.75.05994,1.52.13,2.30005.19007,5.81.47,11.9,1.08984,18.12,1.90991a267.71341,267.71341,0,0,1,28.27,5.18994c.06,0,.15.03.25.03,9.98,2.07007,56.12,12.36011,82.43,5.54C697.96,230.99,716.5,266.33,715.14,300.30005Z"/><path class="cls-4" d="M562.72,184.48c-2.39,20.2-29.54,36.12-62.68,36.12-33.15,0-60.31006-15.93006-62.68994-36.13C440.95,184,444.51,183.59,448,183.25c4.65-.46,9.17-.81006,13.48-1.08008,22.03-1.42993,38.52-.75,38.52-.75a412.44768,412.44768,0,0,1,42.3.96008c.75.05994,1.52.13,2.30005.19007C550.41,183.04,556.5,183.65991,562.72,184.48Z"/><path class="cls-5" d="M501.829,181.5814s-3.40891-.15511-9.35909-.217c4.77252.031,7.53074.12389,7.53074.12389s5.54729-.248,14.5347-.15491C506.50869,181.36444,501.829,181.5814,501.829,181.5814Z"/><path class="cls-4" d="M466.62284,686.44833l-13.20211,28.72853c-.92968,53.33543-9.08028,130.71938-25.38147,162.547H395.685l-29.9062-148.26028-1.85938-43.01525Z"/><path class="cls-4" d="M638.374,686.44833l-1.85956,43.01525-29.906,148.26028H574.254c-16.30119-31.82762-24.45179-109.21157-25.38147-162.547l-13.20211-28.72853Z"/><path class="cls-6" d="M542.33756,182.44879a55.69473,55.69473,0,0,1-80.82388-.217c22.03441-1.42545,38.52154-.74375,38.52154-.74375A410.759,410.759,0,0,1,542.33756,182.44879Z"/><path class="cls-4" d="M545.47808,150.50045c0,8.35656-6.25068,15.17564-14.00539,15.27582-4.98068,15.20889-17.18113,25.93879-31.42074,25.93879s-26.47352-10.7299-31.4542-25.93879c-7.75471-.13363-14.0054-6.91926-14.0054-15.27582a15.57176,15.57176,0,0,1,6.7185-13.00265,13.44723,13.44723,0,0,1,7.2869-2.30642,42.64649,42.64649,0,0,1,7.32035-13.53778c.83566.96949,16.312,18.05024,36.3345,18.41788a101.9693,101.9693,0,0,0,26.273-2.741A15.5667,15.5667,0,0,1,545.47808,150.50045Z"/><path class="cls-3" d="M455.946,135.18818a47.37892,47.37892,0,0,0,6.97293,2.13837l5.64035,28.35647s1.33258,11.43562,21.41475,11.99362c20.082.55781,39.69921-2.0455,42.86014-11.90055,3.16113-9.85506,7.283-28.2636,7.283-28.2636,1.02256-19.67908-8.49145-47.88083-44.78175-47.88083S455.946,135.18818,455.946,135.18818Z"/><rect class="cls-7" x="307.76323" y="902.96542" width="365.93941" height="20.48504"/></g></g></svg>