<svg xmlns="http://www.w3.org/2000/svg" viewBox="0 0 1000 1000"><defs><style>.cls-1{isolation:isolate;}.cls-2,.cls-8{fill:#facc83;}.cls-3,.cls-4{fill:#93d4c3;}.cls-4{opacity:0.7;}.cls-4,.cls-8{mix-blend-mode:multiply;}.cls-5{fill:#fc4a5d;}.cls-6{fill:#4a285e;}.cls-7{fill:#b1b1ae;}.cls-9{fill:#bc1931;mix-blend-mode:overlay;}</style></defs><g class="cls-1"><g id="Layer_1" data-name="Layer 1"><path class="cls-2" d="M468.04029,278.61662s-2.42757,13.305-29.19548,32.09625c-4.85533,3.4365-1.07186,7.03081-7.693,10.7829-21.37626,12.07531-39.88351,12.643-51.99056,10.84565a52.47426,52.47426,0,0,1-15.00763-4.28784A46.68161,46.68161,0,0,1,351.7945,347.5384a29.44037,29.44037,0,0,1-2.99525,2.522c-7.15686,5.64335-17.37208,9.96314-31.71773,9.39545,1.95475,1.135,76.01551,39.66279,100.82847,70.37158l15.039-8.51255-8.19735-9.49013,17.719-13.90382,15.985,31.686L410.43774,456.753s-149.88691-40.67154-182.70806-95.46858c-5.8329-9.74222,18.41257-65.45333,47.22973-91.33815a58.44509,58.44509,0,0,1,13.93557-8.85933,113.59733,113.59733,0,0,1,11.41332-4.60343,163.4602,163.4602,0,0,1,27.83978-6.6521s10.15229-27.33578,41.77534-45.21223c28.88027-16.33158,47.38752-14.37721,55.04894-12.26466a19.53353,19.53353,0,0,1,4.03556,1.48214C482.32282,199.70054,482.19658,231.35534,468.04029,278.61662Z"/><path class="cls-3" d="M468.04029,278.61662s-2.42757,13.305-29.19548,32.09625c-4.85533,3.4365-1.07186,7.03081-7.693,10.7829-21.37626,12.07531-39.88351,12.643-51.99056,10.84565a52.47426,52.47426,0,0,1-15.00763-4.28784A46.68161,46.68161,0,0,1,351.7945,347.5384a29.44037,29.44037,0,0,1-2.99525,2.522L288.895,261.08694a113.59733,113.59733,0,0,1,11.41332-4.60343,163.4602,163.4602,0,0,1,27.83978-6.6521s10.15229-27.33578,41.77534-45.21223c28.88027-16.33158,47.38752-14.37721,55.04894-12.26466a19.53353,19.53353,0,0,1,4.03556,1.48214C482.32282,199.70054,482.19658,231.35534,468.04029,278.61662Z"/><path class="cls-4" d="M438.84481,310.71287c-4.85533,3.4365-1.07186,7.03081-7.693,10.7829-21.37626,12.07531-39.88351,12.643-51.99056,10.84565v-2.17529s0-16.17455,6.99944-70.08793c6.99925-53.91415,38.81165-67.72368,38.81165-67.72368S430.11153,267.07745,438.84481,310.71287Z"/><polygon class="cls-2" points="556.352 662.761 551.717 678.399 551.686 678.494 492.128 879.457 461.861 879.457 467.315 678.494 466.275 677.106 398.488 579.052 398.362 528.48 398.299 509.154 501.461 509.154 508.365 528.48 556.352 662.761"/><polygon class="cls-2" points="640.817 662.761 638.168 678.494 604.244 879.457 573.976 879.457 551.78 678.494 551.717 678.399 550.74 677.106 446.349 528.48 432.76 509.154 556.352 509.154 566.977 528.48 640.817 662.761"/><polygon class="cls-5" points="640.817 662.761 638.168 678.494 467.315 678.494 466.275 677.106 398.488 579.052 398.362 528.48 566.977 528.48 640.817 662.761"/><polygon class="cls-6" points="573.981 879.487 604.249 879.487 640.384 904.144 574.738 904.144 573.981 879.487"/><polygon class="cls-6" points="461.941 879.487 492.208 879.487 528.343 904.144 462.698 904.144 461.941 879.487"/><path class="cls-3" d="M600.52337,307.21324c0,.40951-.03156.78822-.06312,1.19772a44.61281,44.61281,0,0,1-16.83614,32.85328c-.09468.0943-.22073.15742-.3154.25171l-6.99925,5.45476,4.09867,21.37608a76.55162,76.55162,0,0,1,1.1981,19.16961l-.78821,12.73766-.50457,7.819v.03156L579.14691,426.864l-.44125,7.09393-1.1981,19.39014-.40989,6.4-.72529,11.63424c-1.00874,15.95325-6.93613,21.72322-17.0253,34.11373l-2.99526,3.65781H398.29913c-.78822-106.37772-7.157-241.03609,10.56218-286.37418,20.74566-53.15711,46.15767-66.80884,74.34421-66.80884,6.17967,0,12.13861,0,17.87683.15742l1.98613,2.52205s58.28349,11.645,71.0655,25.53844C616.00386,229.69931,600.52337,307.21324,600.52337,307.21324Z"/><path class="cls-4" d="M600.46025,308.411a44.61281,44.61281,0,0,1-16.83614,32.85328c-42.15368,1.60761-104.51726-5.86465-104.51726-63.97157,0-43.1628,22.7006-56.53088,22.7006-56.53088s45.02269,36.73085,54.54437,37.1723C561.964,258.18618,583.65567,285.83679,600.46025,308.411Z"/><rect class="cls-7" x="371.69264" y="904.1595" width="372.28926" height="20.8405"/><path class="cls-2" d="M550.26422,169.16509c0,14.06181-16.17417,25.47513-36.13161,25.47513-19.95763,0-36.1318-11.41332-36.1318-25.47513a18.02856,18.02856,0,0,1,1.10342-6.211,21.57772,21.57772,0,0,1,4.09887-6.96788c24.84433-4.35095,46.44151-.03156,64.79116,9.61618.72509.37851,1.41882.75684,2.11236,1.13517A20.89908,20.89908,0,0,1,550.26422,169.16509Z"/><path class="cls-8" d="M547.99426,165.60235c-5.13917,9.67929-18.34965,16.55249-33.86165,16.55249-16.89945,0-31.05575-8.16579-35.02838-19.20079a21.57772,21.57772,0,0,1,4.09887-6.96788C508.04743,151.63522,529.64461,155.95461,547.99426,165.60235Z"/><path class="cls-2" d="M551.19477,102.06455s21.423,27.4278,5.76772,52.234-57.67718,23.57028-59.73708,3.38327S495.16551,100.00465,551.19477,102.06455Z"/><path class="cls-6" d="M488.57384,95.88485s2.88385-8.23959,15.24325-11.53543,16.47919-5.35574,35.01828-8.65158,34.60631,5.35574,20.599,20.187-40.374,22.24692-40.374,22.24692.412,35.43026-13.59533,39.13808-30.07453,0-30.07453-11.53544S467.56286,96.29683,488.57384,95.88485Z"/><polygon class="cls-6" points="566.977 528.48 398.299 528.48 398.299 509.154 556.352 509.154 566.977 528.48"/><polygon class="cls-9" points="446.336 528.48 551.78 678.494 513.284 678.494 446.336 528.48"/><path class="cls-4" d="M504.2036,354.04876s25.94132,7.37768,25.94132,62.42655-3.37859,66.96667-3.37859,66.96667a250.47169,250.47169,0,0,0,10.022-68.2275C536.7883,387.27526,531.8372,355.7513,504.2036,354.04876Z"/><path class="cls-2" d="M773.14225,257.46108c.28365,11.35021-48.23866,47.92326-86.07294,56.24685a57.85606,57.85606,0,0,1-16.48957.88289,119.40122,119.40122,0,0,1-12.20154-1.63955,163.09351,163.09351,0,0,1-27.49281-7.88214s-22.29072,18.79129-58.61168,18.79129c-44.802,0-56.75141-19.6738-56.75141-19.6738-43.54094-31.33959-36.06869-63.499-.50438-97.6758,0,0,12.0755-14.50307,61.44914-14.50307,43.7301,0,61.54382,27.24073,61.54382,27.24073a46.87789,46.87789,0,0,1,20.36732-10.87759,29.75347,29.75347,0,0,1,3.84659-.72509c8.98556-1.38707,20.02056-.12624,32.2221,7.44108-1.135-1.95514-46.66224-71.9484-53.15711-110.88609H624.01219l2.45913,12.29621-22.25916,3.37339,1.6711-35.43807h55.175S771.53426,193.58418,773.14225,257.46108Z"/><path class="cls-3" d="M670.57974,314.59082a119.40122,119.40122,0,0,1-12.20154-1.63955,163.09351,163.09351,0,0,1-27.49281-7.88214s-22.29072,18.79129-58.61168,18.79129c-44.802,0-56.75141-19.6738-56.75141-19.6738-43.54094-31.33959-36.06869-63.499-.50438-97.6758,0,0,12.0755-14.50307,61.44914-14.50307,43.7301,0,61.54382,27.24073,61.54382,27.24073a46.87789,46.87789,0,0,1,20.36732-10.87759,29.75347,29.75347,0,0,1,3.84659-.72509Z"/><path class="cls-4" d="M580.31355,408.10458v-.03153c-18.94867-2.67993-20.33593-13.242-20.33593-13.242,8.41813,8.41812,16.7732,6.93628,20.84038,5.42291Z"/><path class="cls-4" d="M579.14691,426.864l-.44125,7.09393c-17.40383-3.05818-18.728-13.02131-18.728-13.02131C567.38682,428.34573,574.733,428.09364,579.14691,426.864Z"/><path class="cls-4" d="M577.50756,453.34805l-.40989,6.4c-15.89052-3.37339-17.12-12.70572-17.12-12.70572C566.53549,453.60014,573.03036,454.16783,577.50756,453.34805Z"/></g></g></svg>