<svg xmlns="http://www.w3.org/2000/svg" viewBox="0 0 1000 1000"><defs><style>.cls-1{isolation:isolate;}.cls-2,.cls-8{fill:#facc83;}.cls-3,.cls-4,.cls-5{fill:#93d4c3;}.cls-4{opacity:0.7;}.cls-4,.cls-5,.cls-8{mix-blend-mode:multiply;}.cls-6{fill:#b1b1ae;}.cls-7{fill:#4a285e;}.cls-9{fill:#fc4a5d;}.cls-10{fill:#bc1931;mix-blend-mode:overlay;}</style></defs><g class="cls-1"><g id="Layer_1" data-name="Layer 1"><path class="cls-2" d="M231.24375,341.03973c-4.28385-10.51457,23.68173-73.69268,56.11832-94.87243,5.46488-3.55242,12.269-6.06082,19.27509-7.76909.80019-.20169,5.85413-3.059,13.4573-7.286,17.20667-9.58194,47.47315-26.16439,71.03269-35.08344,30.37086-11.49764,60.04092-1.69356,60.04092-1.69356,40.75319,11.4746,55.44588,55.80621,37.28664,97.06759,0,0-10.25692,19.39057-52.33395,35.31987-37.56553,14.22136-70.94553,13.407-81.87418,15.08341a18.50045,18.50045,0,0,0-2.39341.53489c-11.03662,3.70657-24.56724,6.43548-34.24137,4.56859,1.75369,1.42666,69.11323,50.76708,88.97341,84.88308l16.15862-6.11725-6.65353-10.629,19.623-11.03579,10.98427,33.73418-51.601,19.53485S255.36337,400.20972,231.24375,341.03973Z"/><path class="cls-3" d="M488.45987,291.4174s-4.82377,9.11142-21.40783,19.989a158.89177,158.89177,0,0,1-30.92951,15.32284c-26.57856,10.05743-51.07631,12.57986-66.96664,13.80952-6.58955.50457-11.69716.78822-14.91314,1.26122L320.09746,231.10325c17.21447-9.58481,47.482-26.16886,71.03375-35.05975a88.26612,88.26612,0,0,1,26.92551-5.48594A105.49635,105.49635,0,0,1,446.43243,193.08c3.02662.69354,4.72929,1.26084,4.72929,1.26084C491.92812,205.81728,506.62035,250.14624,488.45987,291.4174Z"/><path class="cls-4" d="M467.052,311.4064a158.89177,158.89177,0,0,1-30.92951,15.32284c-26.57856,10.05743-51.07631,12.57986-66.96664,13.80952-.12623-18.53881.31521-41.08142,2.11236-65.80009,2.83765-38.9377,27.24073-67.37652,46.78847-84.18111A105.49635,105.49635,0,0,1,446.43243,193.08Z"/><path class="cls-3" d="M624.285,327.67525a69.58942,69.58942,0,0,1-6.74716,16.2369,11.32944,11.32944,0,0,1-2.17548,2.58556,4.85138,4.85138,0,0,0,.40988.34677c.03156.03156-.126,1.135-.44144,3.09012-2.42757,15.44869-14.03006,75.03775-13.65173,95.08987,1.0403,51.54912,12.769,38.27572,9.23785,64.12937a136.18741,136.18741,0,0,1-4.22492,19.32664c-9.77377,33.86164-214.14194,59.43164-215.08775,0q-.142-9.69526-.34677-19.32664c-2.52244-124.91653-8.9542-235.80224,10.81427-286.37418,20.74566-53.15711,73.46151-64.57043,73.46151-64.57043,3.49963-.91445,6.96769-1.67111,10.34127-2.23841,25.79034-4.50875,48.11262.31483,66.90371,10.751a212.11849,212.11849,0,0,1,25.25441,16.61561,173.44622,173.44622,0,0,1,26.79928,25.03349,110.1139,110.1139,0,0,1,6.77852,8.73348h.03156c7.56693,10.71978,12.86371,22.25935,14.18785,34.11412.28385,2.554.53594,5.076.75666,7.50381C629.86558,293.21436,627.627,314.65394,624.285,327.67525Z"/><path class="cls-4" d="M624.285,327.67525a69.58942,69.58942,0,0,1-6.74716,16.2369,11.32944,11.32944,0,0,1-2.17548,2.58556,4.85138,4.85138,0,0,0,.40988.34677c.03156.03156-.126,1.135-.44144,3.09012H569.3307s-79.64117-12.8639-91.81115-68.102S511.066,206.51082,511.066,206.51082l100.54444,10.59355h.03156c7.56693,10.71978,12.86371,22.25935,14.18785,34.11412.28385,2.554.53594,5.076.75666,7.50381C629.86558,293.21436,627.627,314.65394,624.285,327.67525Z"/><path class="cls-5" d="M601.679,208.38663l-3.97263,8.73347-60.724-22.47988,37.89739-11.28728A173.42812,173.42812,0,0,1,601.679,208.38663Z"/><rect class="cls-6" x="371.22529" y="904.1595" width="372.28926" height="20.8405"/><polygon class="cls-2" points="659.755 697.253 608.741 879.488 578.474 879.488 557.823 725.156 554.985 703.969 552.148 697.253 481.177 528.48 606.692 528.48 659.755 697.253"/><polygon class="cls-7" points="578.46 879.487 608.727 879.487 644.862 904.144 579.217 904.144 578.46 879.487"/><polygon class="cls-2" points="570.466 697.253 557.823 725.156 487.892 879.488 457.625 879.488 465.696 703.969 462.859 697.253 391.888 528.48 517.403 528.48 570.466 697.253"/><polygon class="cls-7" points="457.636 879.487 487.903 879.487 524.038 904.144 458.393 904.144 457.636 879.487"/><path class="cls-2" d="M549.78122,169.16509c0,14.06181-16.17417,25.47513-36.13161,25.47513-19.95764,0-36.13181-11.41332-36.13181-25.47513a18.02834,18.02834,0,0,1,1.10343-6.211,21.57751,21.57751,0,0,1,4.09886-6.96788c24.84433-4.35095,46.44151-.03156,64.79116,9.61618.7251.37851,1.41882.75684,2.11236,1.13517A20.89909,20.89909,0,0,1,549.78122,169.16509Z"/><path class="cls-8" d="M547.51125,165.60235c-5.13917,9.67929-18.34965,16.55249-33.86164,16.55249-16.89946,0-31.05575-8.16579-35.02838-19.20079a21.57751,21.57751,0,0,1,4.09886-6.96788C507.56442,151.63522,529.1616,155.95461,547.51125,165.60235Z"/><path class="cls-2" d="M550.71176,102.06455s21.423,27.4278,5.76772,52.234-57.67718,23.57028-59.73707,3.38327S494.68251,100.00465,550.71176,102.06455Z"/><path class="cls-7" d="M488.09083,95.88485s2.88386-8.23959,15.24325-11.53543,16.4792-5.35574,35.01829-8.65158,34.6063,5.35574,20.599,20.187-40.374,22.24692-40.374,22.24692.412,35.43026-13.59534,39.13808-30.07453,0-30.07453-11.53544S467.07986,96.29683,488.09083,95.88485Z"/><path class="cls-7" d="M610.91689,509.15384a136.18741,136.18741,0,0,1-4.22492,19.32664H391.60422q-.142-9.69526-.34677-19.32664Z"/><polygon class="cls-9" points="552.148 697.253 462.859 697.253 391.888 580.913 391.888 528.48 481.177 528.48 552.148 697.253"/><polygon class="cls-9" points="659.755 697.253 552.148 697.253 471.974 528.48 606.692 528.48 659.755 697.253"/><polygon class="cls-10" points="552.148 697.253 471.974 528.48 524.038 697.253 552.148 697.253"/><path class="cls-2" d="M769.19031,251.15537c.28365,11.3502-48.23886,60.53468-86.07313,68.85827-6.36864,1.38746-13.62017,1.32434-20.77722.44145-.81977-.09468-6.558.78821-15.16523,2.04943-19.48463,2.86921-53.66167,7.66161-78.853,7.66161-32.47438,0-56.75141-19.67379-56.75141-19.67379-34.05081-25.16012-32.09606-71.82216-.50438-103.98152,0,0,16.45782-14.50307,61.44914-14.50307,40.16736,0,71.09687,12.57987,81.91114,14.88139a18.50188,18.50188,0,0,0,2.42776.34716c11.63405.44106,25.25441,2.67946,33.64093,7.85058-1.135-1.95514-46.66224-71.9484-53.15711-110.88609H620.06005l2.45932,12.29621-22.25915,3.37339,1.67091-35.43807h55.175S767.58232,187.27847,769.19031,251.15537Z"/><path class="cls-3" d="M654.42626,206.88914l-7.25153,115.61538c-19.48463,2.86921-53.66167,7.66161-78.853,7.66161-32.47438,0-56.75141-19.67379-56.75141-19.67379-34.05081-25.16012-32.09606-71.82216-.50438-103.98152,0,0,16.45782-14.50307,61.44914-14.50307C612.68248,192.00775,643.612,204.58762,654.42626,206.88914Z"/></g></g></svg>