<svg xmlns="http://www.w3.org/2000/svg" viewBox="0 0 1000 1000"><defs><style>.cls-1{isolation:isolate;}.cls-2{fill:#fc4a5d;}.cls-3{fill:#4a285e;}.cls-4,.cls-6{fill:#facc83;}.cls-5,.cls-7{fill:#93d4c3;}.cls-6,.cls-7{mix-blend-mode:multiply;}.cls-7{opacity:0.7;}.cls-8{fill:#b1b1ae;}</style></defs><g class="cls-1"><g id="Layer_1" data-name="Layer 1"><path class="cls-2" d="M623.70442,680.49476l-.65221,7.01827-18.2288,191.66682H572.40282c-20.30938-72.60511-16.42761-126.23578-16.55176-191.66682v-.21721c-23.04235-24.44-40.06-52.32663-55.83558-90.67811-15.7754,38.35148-32.79323,66.23809-55.83539,90.67811v.21721c-.12415,65.431,3.75762,119.06171-16.55194,191.66682h-32.4206L376.97875,687.513l-.652-7.01827,28.94235-163.06527.9007-5.12439,2.391-15.43385.06217-.46551.06217-.373.03108-.21721,68.69188,14.93687,22.60736,4.90681,21.21007-4.627,70.08936-15.21664v.06217l.15523.99357.09326.52806,2.298,14.90579,1.08682,6.05579Z"/><polygon class="cls-3" points="632.766 904.473 572.396 904.473 572.396 879.195 604.817 879.195 632.766 904.473"/><path class="cls-4" d="M763.41724,251.63631c-50.8668,27.94878-33.91114,41.92317-82.72844,41.92317-7.85661,0-14.347-.31046-19.75043-.80744q-1.07127-.09326-2.04949-.1865c-18.57054-1.83172-23.60131-5.2169-29.06688-1.42838-6.11758,118.50294-31.61315,50.12153-40.24612,148.3149.24849,24.22243,2.32907,43.04146,1.70794,57.51244-.27957,6.95611-1.21116,12.91866-3.26065,17.94942a220.59851,220.59851,0,0,1-88.00769,18.2288h-.03108a220.59761,220.59761,0,0,1-88.0075-18.2288c-2.04969-5.03076-2.98128-10.99331-3.26066-17.94942-.62112-14.471,1.45946-33.29,1.70795-57.51244-8.63316-98.19337-34.12854-29.812-40.24632-148.3149-5.46557-3.78852-10.49633-.40334-29.06668,1.42838q-2.09622.23313-4.37856.373c-4.90662.37226-10.65176.62093-17.42155.62093-48.81712,0-31.86164-13.97439-82.72825-41.92317C179.16345,220.08552,313.16241,99.03592,375.76759,75h48.072v42.48231h-20.6822c-16.86241-58.00941-118.22337,62.66717-105.491,79.747,1.98751,3.323,18.53927-8.38448,39.06624-11.86254,1.42837-.24829,2.888-.46589,4.37856-.62131a56.07179,56.07179,0,0,1,6.49041-.37226,130.759,130.759,0,0,1,54.93489,11.86254,43.96871,43.96871,0,0,0,35.21536.58985,160.85028,160.85028,0,0,1,62.23255-12.79431h.03108a160.8512,160.8512,0,0,1,62.23274,12.79431,43.96874,43.96874,0,0,0,35.21536-.58985,130.759,130.759,0,0,1,54.93489-11.86254,56.07192,56.07192,0,0,1,6.49041.37226c.6831.06217,1.36639.15542,2.04949.24868,21.58271,2.91891,39.31473,15.68252,41.39531,12.23517,12.73214-17.07981-88.62862-137.75639-105.49122-79.747h-20.682V75h48.07185C686.83766,99.03592,820.83643,220.08552,763.41724,251.63631Z"/><path class="cls-5" d="M660.93587,185.0095V292.73672q-1.07127-.09324-2.04968-.1865c-18.57035-1.80139-23.60112-5.2169-29.06669-1.42837-1.61469,31.42683-4.596,49.68672-8.26033,61.4253a72.07255,72.07255,0,0,1-2.888,7.67029c-9.99955,22.39-23.32174,13.57105-29.09777,79.2193.2483,24.25276,2.32906,43.07178,1.70794,57.51244-.27957,6.95611-1.21116,12.94936-3.26065,17.97975A221.1205,221.1205,0,0,1,500.013,533.15811h-.03109a221.1196,221.1196,0,0,1-88.0075-18.22918c-2.04968-5.03039-2.98127-11.02364-3.26084-17.97975-.62093-14.44066,1.45965-33.25968,1.70813-57.51244-5.77622-65.64825-19.09841-56.82934-29.09777-79.2193a72.11185,72.11185,0,0,1-2.8882-7.67029c-3.66438-11.73858-6.64546-29.99847-8.26034-61.4253-5.46557-3.78853-10.49633-.373-29.06669,1.42837-1.39747.15542-2.85712.31046-4.37874.40372V185.38214c1.42856-.2483,2.888-.4966,4.37874-.652a56.01026,56.01026,0,0,1,6.49023-.34193,130.75673,130.75673,0,0,1,54.93489,11.86292,43.968,43.968,0,0,0,35.21554.55876,167.365,167.365,0,0,1,25.02968-8.26014,162.48531,162.48531,0,0,1,17.85617-3.323,155.57834,155.57834,0,0,1,19.3467-1.21078h.03109a152.39039,152.39039,0,0,1,19.533,1.24186h.03109a154.26346,154.26346,0,0,1,18.94317,3.63348,164.87484,164.87484,0,0,1,23.72527,7.91859,43.96806,43.96806,0,0,0,35.21555-.55876A130.75665,130.75665,0,0,1,652.396,184.38819a56.00574,56.00574,0,0,1,6.49022.34193Q659.91113,184.82338,660.93587,185.0095Z"/><path class="cls-4" d="M500.32664,184.57454c-.34155,0-.74527.03108-1.17988.03108v-.03108Z"/><path class="cls-4" d="M500.82361,184.57454v.03108a2.50994,2.50994,0,0,1-.497-.03108Z"/><path class="cls-5" d="M490.60684,184.45039c-1.3664,0-2.85713-.03108-4.5029-.03108C487.74971,184.38822,489.27153,184.41931,490.60684,184.45039Z"/><path class="cls-5" d="M499.98508,184.66779s-3.41589-.15542-9.37824-.2174c4.78227.03109,7.54614.12415,7.54614.12415s5.55864-.24849,14.56443-.15523C504.67429,184.45039,499.98508,184.66779,499.98508,184.66779Z"/><polygon class="cls-3" points="365.527 904.473 425.896 904.473 425.896 879.195 393.475 879.195 365.527 904.473"/><path class="cls-3" d="M594.9482,518.36089A309.41741,309.41741,0,0,1,522.623,531.99373a.39383.39383,0,0,1-.18632.03109c-.15523,0-.34155.03108-.497.03108a307.69476,307.69476,0,0,1-51.30141-.83852.52845.52845,0,0,0-.2174-.03109,308.63245,308.63245,0,0,1-65.15185-13.7568l.9007-5.12439,2.391-15.43385.06217-.46551c.03108.03108.03108.03108.06217.03108a288.705,288.705,0,0,0,68.723,14.31556,282.69065,282.69065,0,0,0,43.81743.27977,287.16039,287.16039,0,0,0,70.02719-13.54c.12434-.03071.2174-.06179.31066-.09287l2.298,14.90579Z"/><path class="cls-4" d="M444.18009,687.513c-.12415,65.431,3.75762,119.06171-16.55194,191.66682h-32.4206L376.97875,687.513Z"/><path class="cls-4" d="M623.05221,687.513l-18.2288,191.66682H572.40282c-20.30938-72.60511-16.42761-126.23578-16.55176-191.66682Z"/><path class="cls-6" d="M538.52026,188.89128a55.69044,55.69044,0,0,1-75.74124-.34155,162.48531,162.48531,0,0,1,17.85617-3.323c11.11745-.18613,18.19771.09325,18.19771.09325s8.16727-.34155,20.7131-.06217h.03109A154.26346,154.26346,0,0,1,538.52026,188.89128Z"/><path class="cls-4" d="M544.37133,154.26893c0,8.37366-6.26348,15.20669-14.034,15.30706-4.99087,15.24-17.21628,25.99186-31.485,25.99186S472.32459,184.816,467.33372,169.576c-7.77057-.1339-14.03405-6.9334-14.03405-15.30706a15.6036,15.6036,0,0,1,6.73225-13.02925,13.47464,13.47464,0,0,1,7.3018-2.31113,42.734,42.734,0,0,1,7.33533-13.56549c.83736.97148,16.34539,18.08718,36.40883,18.45557a102.17785,102.17785,0,0,0,26.32672-2.74658A15.59852,15.59852,0,0,1,544.37133,154.26893Z"/><path class="cls-3" d="M454.65607,138.92533a47.47548,47.47548,0,0,0,6.9872,2.14275l5.65188,28.41448s1.33531,11.459,21.45856,12.01815c20.12306.559,39.78043-2.04968,42.94783-11.92489,3.16758-9.87522,7.29785-28.32142,7.29785-28.32142,1.02465-19.71934-8.50882-47.97878-44.87336-47.97878S454.65607,138.92533,454.65607,138.92533Z"/><path class="cls-7" d="M383.85021,297.18123s54.61639,51.24766,54.61639,81.5826V427.024h4.71085s5.2997-51.93709,0-68.48342S383.85021,297.18123,383.85021,297.18123Z"/><path class="cls-7" d="M613.8156,297.18123s-54.61639,51.24766-54.61639,81.5826V427.024h-4.71085s-5.2997-51.93709,0-68.48342S613.8156,297.18123,613.8156,297.18123Z"/><path class="cls-7" d="M502.063,489.88405h-9.47087c.313-72.72637,4.75192-217.48415,4.75192-217.48415S501.74189,417.15768,502.063,489.88405Z"/><rect class="cls-8" x="316.76464" y="904.47306" width="366.68801" height="20.52694"/><path class="cls-7" d="M393.62483,203.57985s6.98366,6.6612,27.10678,6.6612,24.80126-2.46881,24.80126-2.46881-11.66533,9.13-23.9628,9.13S393.62483,203.57985,393.62483,203.57985Z"/><path class="cls-7" d="M604.0797,203.57985s-6.98366,6.6612-27.10678,6.6612-24.80126-2.46881-24.80126-2.46881,11.66533,9.13,23.9628,9.13S604.0797,203.57985,604.0797,203.57985Z"/><ellipse class="cls-4" cx="502.06304" cy="181.5814" rx="62.85212" ry="39.0186"/></g></g></svg>