<svg xmlns="http://www.w3.org/2000/svg" viewBox="0 0 1000 1000"><defs><style>.cls-1{isolation:isolate;}.cls-2{fill:#fc4a5d;}.cls-3{fill:#4a285e;}.cls-4,.cls-6{fill:#facc83;}.cls-5{fill:#93d4c3;}.cls-6,.cls-8{mix-blend-mode:multiply;}.cls-7{fill:#b1b1ae;}.cls-8{opacity:0.8;}</style></defs><g class="cls-1"><g id="Layer_1" data-name="Layer 1"><path class="cls-2" d="M627.4599,678.39079l-1.27933,9.60708-25.498,191.27553H569.6209c-23.17718-59.96751-21.09447-103.72651-18.23816-182.81472l-3.80841-8.46081-48.13964-107.042-48.13963,107.042-3.80842,8.46081c2.85632,79.08821,4.939,122.84721-18.23834,182.81472H398.18661l-25.498-191.27553-1.27934-9.60708L382.388,512.00135l1.39846-21.229.53553-7.99549,1.10083-.031L499.43469,478.314l115.1127,4.46287.02978.40289v.031l.53553,8.05754,1.39828,21.22862Z"/><polygon class="cls-3" points="627.455 904.515 569.616 904.515 569.616 879.288 600.677 879.288 627.455 904.515"/><polygon class="cls-3" points="371.404 904.515 429.243 904.515 429.243 879.288 398.181 879.288 371.404 904.515"/><path class="cls-4" d="M767.20782,226.73085c-10.97871,26.49729-30.70468,50.57721-62.83742,59.50219-6.5456,1.82873-19.13088.65069-30.31787.18613-4.90925-.21715-12.19866-.31021-18.74408.062-7.25964.40252-13.59695,1.36342-14.6384,3.28483-4.4331,8.18162-1.071,38.11884-8.59835,61.08313-12.07954,36.87876-21.39211,49.36814-19.57724,88.85039.80337,17.50988,2.40995,33.687,2.02315,48.03575a91.25753,91.25753,0,0,1-2.79675,21.41475,259.64293,259.64293,0,0,1-223.44172,0,91.24806,91.24806,0,0,1-2.79675-21.41475c-.3868-14.34876,1.21978-30.52587,2.02315-48.03575,1.81487-39.48225-7.4977-51.97163-19.57724-88.85039-7.5273-22.96429-4.16543-52.90151-8.59853-61.08313-1.04127-1.92141-7.37858-2.88231-14.63822-3.28483-6.5456-.37225-13.835-.27919-18.74408-.062-11.187.46456-23.77227,1.6426-30.31787-.18613-32.13274-8.925-51.85871-33.0049-62.83742-59.50219C229.57886,161.464,295.98661,98.98685,355.96771,75h46.0571v37.93271H382.2095S375.6639,95.6396,367.21427,95.6396c-25.23012,0-66.49692,70.50408-55.36949,89.81129,1.7553,3.037,16.54242-2.10716,32.46-4.46249.11894-.031.26785-.031.38679-.062a92.85477,92.85477,0,0,1,13.77546-1.0846c31.95423,0,44.8967,10.38185,54.50673,8.3057.08916,0,.1785-.031.23807-.031a278.27218,278.27218,0,0,1,44.53951-7.097c.74381-.062,1.48762-.12409,2.20166-.18613A394.64808,394.64808,0,0,1,500,179.84175a394.64426,394.64426,0,0,1,40.04684.99154c.71422.062,1.458.12409,2.20184.18613a278.27536,278.27536,0,0,1,44.53951,7.097c.05957,0,.14873.031.23807.031,9.61,2.07615,22.5525-8.3057,54.50673-8.3057a92.85477,92.85477,0,0,1,13.77546,1.0846c.11894.031.26767.031.38679.062,15.91756,2.35533,30.7045,7.49953,32.46,4.46249,11.12743-19.30721-30.13937-89.81129-55.36949-89.81129-8.44981,0-14.99541,17.29311-14.99541,17.29311H597.97519V75h46.05692C704.01339,98.98685,770.42114,161.464,767.20782,226.73085Z"/><path class="cls-5" d="M655.31006,286.48c-7.26.4-13.6001,1.36005-14.64014,3.29-4.42993,8.18-1.06994,38.11-8.59985,61.08C619.99,387.73,610.67993,400.22,612.49,439.7c.81006,17.51,2.41,33.69,2.03,48.04A91.08033,91.08033,0,0,1,611.72,509.15a259.618,259.618,0,0,1-223.43994,0,91.08347,91.08347,0,0,1-2.8-21.41c-.38-14.35,1.22-30.53,2.03-48.04,1.81-39.48-7.5-51.97-19.58-88.85-7.53-22.97-4.17-52.9-8.6-61.08-1.04-1.93-7.38-2.89-14.64-3.29-8.15-35.74-10.66-71.1,0-105.55a93.06255,93.06255,0,0,1,13.78-1.09c31.95,0,44.89,10.37994,54.5,8.31.09,0,.18-.03.24-.03q4.61994-1.17,9.33-2.15a300.29069,300.29069,0,0,1,35.21-4.95c.75-.06,1.49-.12,2.2-.19a395.3348,395.3348,0,0,1,40.05-.99,395.33607,395.33607,0,0,1,40.05005.99c.71.07,1.44995.13,2.19995.19,8.51.72,17.66992,1.79,26.88,3.38,5.92005,1.00995,11.86,2.24,17.66,3.72.05994,0,.1499.03.24.03,9.61,2.06995,22.55-8.31,54.5-8.31a93.06338,93.06338,0,0,1,13.78,1.09C669.59009,218.36,669.83008,253.59,655.31006,286.48Z"/><path class="cls-6" d="M540.04154,180.46563a52.01327,52.01327,0,0,1-77.59457-.217c21.154-1.42545,36.98242-.74375,36.98242-.74375A378.62509,378.62509,0,0,1,540.04154,180.46563Z"/><path class="cls-5" d="M492.19954,167.36775c-1.30912,0-2.73737-.031-4.31416-.031C489.46217,167.30571,490.9202,167.33673,492.19954,167.36775Z"/><path class="cls-5" d="M501.18469,167.58471s-3.27271-.1551-8.98515-.217c4.58183.031,7.22985.1239,7.22985.1239s5.32565-.248,13.954-.15492C505.67736,167.36775,501.18469,167.58471,501.18469,167.58471Z"/><path class="cls-4" d="M539.29285,148.51729c0,8.35656-6.00094,15.17564-13.44581,15.27582-4.78168,15.20889-16.49466,25.93879-30.16533,25.93879s-25.41577-10.7299-30.19745-25.93879c-7.44487-.13364-13.44581-6.91926-13.44581-15.27582a15.76865,15.76865,0,0,1,6.45006-13.00265,12.55681,12.55681,0,0,1,6.99575-2.30642,43.22554,43.22554,0,0,1,7.02787-13.53779c.80227.9695,15.66027,18.05025,34.88276,18.41789a94.16328,94.16328,0,0,0,25.22324-2.741A15.749,15.749,0,0,1,539.29285,148.51729Z"/><path class="cls-3" d="M539.29285,133.20822a46.58886,46.58886,0,0,1-6.67472,2.13913,94.16328,94.16328,0,0,1-25.22324,2.741c-19.22249-.36764-34.08049-17.44839-34.88276-18.41789a43.22554,43.22554,0,0,0-7.02787,13.53779,12.55681,12.55681,0,0,0-6.99575,2.30642c-.96268-19.65464,8.15116-47.86639,43.00161-47.86639S539.29285,133.20822,539.29285,133.20822Z"/><rect class="cls-7" x="318.14721" y="904.51496" width="351.31833" height="20.48504"/><path class="cls-4" d="M500,554.27248h-1.13061s.20829-.12409.5653-.34086C499.79171,554.14839,500,554.27248,500,554.27248Z"/><path class="cls-3" d="M616.511,512.49693a288.55167,288.55167,0,0,1-234.123-.49558l1.39846-21.229q.937.41878,1.87443.83681a270.9039,270.9039,0,0,0,228.6782,0c.23807-.09306.50574-.21715.7736-.34085Z"/><g class="cls-8"><path class="cls-5" d="M599.73775,353.43868c-.10841,4.77875-72.24241,11.56177-72.452,9.76255-14.14028-.7812-24.02487-15.30889-22.14155-31.47919q1.39847-13.19058,2.79639-26.383,1.02147,11.83321,2.29972,23.66718c-1.42861,13.7639,6.96908,26.00814,18.77114,26.624A423.93618,423.93618,0,0,0,599.73775,353.43868Z"/></g><g class="cls-8"><path class="cls-5" d="M403.97787,353.43868c.10968,4.77875,72.2415,11.56177,72.452,9.76255,14.13937-.7812,24.02433-15.30889,22.14155-31.47919q-1.3982-13.19058-2.79639-26.383-1.02147,11.83321-2.29972,23.66718c1.42625,13.7639-6.96926,26.00814-18.77114,26.624A423.9338,423.9338,0,0,1,403.97787,353.43868Z"/></g><path class="cls-4" d="M447.48664,696.45868c2.85632,79.08821,4.939,122.84721-18.23834,182.81472H398.18661l-25.498-191.27553h78.60642Z"/><path class="cls-4" d="M626.18057,687.99787l-25.498,191.27553H569.6209c-23.17718-59.96751-21.09447-103.72651-18.23816-182.81472l-3.80841-8.46081Z"/><path class="cls-4" d="M569.13,184.4c-3.78,21.28-35.23,37.88-73.46,37.88-37.29,0-68.13-15.79-73.13-36.31006a300.29069,300.29069,0,0,1,35.21-4.95c.75-.06,1.49-.12,2.2-.19a395.3348,395.3348,0,0,1,40.05-.99,395.33607,395.33607,0,0,1,40.05005.99c.71.07,1.44995.13,2.19995.19C550.76,181.74,559.91992,182.81,569.13,184.4Z"/></g></g></svg>