<svg xmlns="http://www.w3.org/2000/svg" viewBox="0 0 1000 1000"><defs><style>.cls-1{isolation:isolate;}.cls-2,.cls-9{fill:#facc83;}.cls-3,.cls-4{fill:#93d4c3;}.cls-4{opacity:0.7;}.cls-4,.cls-9{mix-blend-mode:multiply;}.cls-5{fill:#4a285e;}.cls-6{fill:#b1b1ae;}.cls-7{fill:#fc4a5d;}.cls-8{fill:#bc1931;mix-blend-mode:overlay;}</style></defs><g class="cls-1"><g id="Layer_1" data-name="Layer 1"><path class="cls-2" d="M496.57505,319.68261s-10.78271,19.1063-53.31471,33.83008c-1.0405.34677-2.17548.7251-3.4367,1.16654-11.50781,3.75191-32.31678,9.71085-51.67517,14.88139q-3.78336,1.0406-7.47225,1.98632c-18.91714,4.95-34.9337,8.70191-37.04606,8.2291,1.70247,1.48175,48.23866,43.25709,67.12424,77.93851l16.33177-5.64354-6.33727-10.81428L440.675,430.75767,450.701,464.80848l-52.14817,18.0658S256.92661,416.44377,235.9916,356.0665c-16.7101-48.23866,26.26335-83.17237,72.64174-106.21974,39.34778-19.61086,81.18605-30.70879,91.30678-34.20841a82.20334,82.20334,0,0,1,17.30915-3.97263.04371.04371,0,0,1,.06312,0,101.48936,101.48936,0,0,1,42.68961,4.004C500.42164,228.28114,515.90208,278.97912,496.57505,319.68261Z"/><path class="cls-3" d="M496.57505,319.68261s-10.78271,19.1063-53.31471,33.83008c-1.0405.34677-2.17548.7251-3.4367,1.16654-11.50781,3.75191-32.31678,9.71085-51.67517,14.88139l-8.70191-13.1158L308.63334,249.84676c39.34778-19.61086,81.18605-30.70879,91.30678-34.20841a82.20334,82.20334,0,0,1,17.30915-3.97263.04371.04371,0,0,1,.06312,0,101.48936,101.48936,0,0,1,42.68961,4.004C500.42164,228.28114,515.90208,278.97912,496.57505,319.68261Z"/><path class="cls-4" d="M450.66947,280.6816c-.25209,3.815-6.36864,44.54987-10.84583,73.99763-11.50781,3.75191-32.31678,9.71085-51.67517,14.88139q-3.78336,1.0406-7.47225,1.98632c-.473-3.72035-.946-8.7964-1.22966-15.10212a297.96082,297.96082,0,0,1,2.36464-51.54912c5.83271-45.46432,34.55537-91.77979,35.43807-93.23l.03156-.03156.03156.03156C418.32133,213.58892,451.048,274.72284,450.66947,280.6816Z"/><path class="cls-2" d="M689.05708,710.952a197.51637,197.51637,0,0,1-18.16049,58.73773L617.0142,879.47219H586.74685l-6.71559-156.28711-128.542-173.281,212.59707-21.40783,23.14205,115.6783A197.311,197.311,0,0,1,689.05708,710.952Z"/><polygon class="cls-2" points="401.697 528.481 475.522 723.186 498.986 879.487 529.253 879.487 580.287 729.055 563.416 538.625 401.697 528.481"/><polygon class="cls-5" points="586.754 879.487 617.022 879.487 653.157 904.144 587.511 904.144 586.754 879.487"/><polygon class="cls-5" points="498.986 879.487 529.253 879.487 565.388 904.144 499.743 904.144 498.986 879.487"/><rect class="cls-6" x="391.37637" y="904.1595" width="372.28926" height="20.8405"/><path class="cls-7" d="M689.05708,710.952l-109.02582,12.2331H475.514L401.70572,528.49621h262.3806l23.14205,115.6783A197.311,197.311,0,0,1,689.05708,710.952Z"/><polygon class="cls-8" points="580.035 723.186 490.992 566.663 542.846 723.186 580.035 723.186"/><path class="cls-3" d="M663.26674,561.72725c-39.47382,47.13523-220.29024,34.77609-253.39523-14.59774-33.13636-49.40521-18.4757-271.14564,2.30171-324.33431,20.74585-53.15711,73.46151-64.57043,73.46151-64.57043,3.49963-.91426,6.96788-1.67111,10.34146-2.2386,25.79034-4.50856,48.11243.3154,66.90352,10.75135,17.08843,9.49013,31.30784,23.61486,42.59512,39.66279a189.0318,189.0318,0,0,1,20.02056,36.73085,184.46188,184.46188,0,0,1,10.27834,33.4202c.53593,2.52244.97738,5.01313,1.35571,7.44089,6.24278,40.82933-8.67036,59.27366-11.28728,62.11111-.25209.28385-.37833.40989-.37833.40989a4.86842,4.86842,0,0,0,.40989.347c1.13517,1.0403,4.60324,4.22472,9.39564,9.26941,11.82321,12.45362,31.65461,36.22628,43.793,66.02081C697.85348,468.27654,702.74037,514.56064,663.26674,561.72725Z"/><path class="cls-2" d="M563.03731,169.16509c0,14.06181-16.17416,25.47513-36.1316,25.47513-19.95764,0-36.13181-11.41332-36.13181-25.47513a18.02834,18.02834,0,0,1,1.10343-6.211,21.57751,21.57751,0,0,1,4.09886-6.96788c24.84433-4.35095,46.44151-.03156,64.79116,9.61618.7251.37851,1.41882.75684,2.11236,1.13517A20.89908,20.89908,0,0,1,563.03731,169.16509Z"/><path class="cls-9" d="M560.76735,165.60235c-5.13917,9.67929-18.34965,16.55249-33.86164,16.55249-16.89946,0-31.05575-8.16579-35.02838-19.20079a21.57751,21.57751,0,0,1,4.09886-6.96788C520.82052,151.63522,542.4177,155.95461,560.76735,165.60235Z"/><path class="cls-2" d="M563.96786,102.06455s21.423,27.4278,5.76772,52.234-57.67718,23.57028-59.73708,3.38327S507.93861,100.00465,563.96786,102.06455Z"/><path class="cls-5" d="M501.34693,95.88485s2.88386-8.23959,15.24325-11.53543,16.47919-5.35574,35.01829-8.65158,34.6063,5.35574,20.599,20.187-40.374,22.24692-40.374,22.24692.412,35.43026-13.59534,39.13808-30.07453,0-30.07453-11.53544S480.336,96.29683,501.34693,95.88485Z"/><path class="cls-4" d="M625.84216,346.10336c-10.15211.347-18.88558.63061-19.516.85134,0,0-143.26579,31.93844-137.4962-86.70355,4.22491-59.14761,77.56037-72.35809,136.64487-53.85084a189.0318,189.0318,0,0,1,20.02056,36.73085,184.46188,184.46188,0,0,1,10.27834,33.4202c.53593,2.52244.97738,5.01313,1.35571,7.44089C643.37222,324.82158,628.45908,343.26591,625.84216,346.10336Z"/><path class="cls-2" d="M767.68932,257.47662c0,51.04475-52.02213,69.99345-103.41384,76.583-43.60386,5.64355-86.76647,2.42757-97.4547,2.42757-32.47438,0-56.75141-19.67379-56.75141-19.67379-34.05081-25.15973-32.096-78.12768-.50437-110.28685,0,0,16.45781-14.50325,61.44913-14.50325,10.97188,0,35.15423,1.29277,57.31891,2.90076,22.732,1.63936,43.35177,3.62567,45.43257,4.91845-1.135-1.95476-31.43388-56.68849-37.92876-95.62618H618.55907l2.45932,12.29621-22.25916,3.37339,1.67091-35.43807h55.175S767.68932,193.56836,767.68932,257.47662Z"/><path class="cls-3" d="M664.27548,334.05962c-43.60386,5.64355-86.76647,2.42757-97.4547,2.42757-32.47438,0-56.75141-19.67379-56.75141-19.67379-34.05081-25.15973-32.096-78.12768-.50437-110.28685,0,0,16.45781-14.50325,61.44913-14.50325,10.97188,0,35.15423,1.29277,57.31891,2.90076Z"/></g></g></svg>