<svg xmlns="http://www.w3.org/2000/svg" viewBox="0 0 1000 1000"><defs><style>.cls-1{isolation:isolate;}.cls-2{fill:#fc4a5d;}.cls-3{fill:#4a285e;}.cls-4,.cls-6{fill:#facc83;}.cls-5{fill:#93d4c3;}.cls-6{mix-blend-mode:multiply;}.cls-7{fill:#b1b1ae;}</style></defs><g class="cls-1"><g id="Layer_1" data-name="Layer 1"><path class="cls-2" d="M645.78541,527.06846l-6.905,160.06214L637.014,730.30326,606.99855,879.10607h-32.4728c-16.36084-31.94409-24.54126-109.6112-25.47435-163.14181L535.801,687.1306l-34.65013-75.52073L466.50071,687.1306l-13.25043,28.83366c-.93309,53.53061-9.11351,131.19772-25.47435,163.14181H395.30332L365.28768,730.30326,363.4215,687.1306l-6.90523-160.06214,144.63457,25.8474Z"/><polygon class="cls-3" points="633.842 904.44 573.375 904.44 573.375 879.121 605.848 879.121 633.842 904.44"/><polygon class="cls-3" points="428.927 879.106 428.927 904.425 368.46 904.425 396.454 879.106 428.927 879.106"/><path class="cls-4" d="M779.93788,227.28608c-11.07309,25.62984-39.37785,52.44166-64.01252,72.28616-.93308.7776-1.86617,1.52407-2.76832,2.23941-10.66872,8.46025-20.49756,15.5521-27.68263,20.52908a77.12081,77.12081,0,0,1-6.37632,26.84257c-15.8944,35.7387,4.54109,51.41535,12.75265,90.23334C699.93776,477.7061,697.885,598.11037,500,583.42928,302.115,598.11037,300.06205,477.7061,308.14926,439.41664c8.21156-38.818,28.64686-54.49464,12.75265-90.23334a77.12081,77.12081,0,0,1-6.37632-26.84257c-7.18507-4.977-17.01391-12.06883-27.68282-20.52908-.902-.71534-1.835-1.46181-2.76813-2.23941-24.63467-19.8445-52.93943-46.65632-64.01252-72.28616C216.70281,161.78044,286.12743,99.07463,348.83362,75h48.14926v38.07152H376.26737s-6.84278-17.35639-15.67646-17.35639c-26.37631,0-60.18656,70.76207-48.55362,90.13994,2.33281,3.91916,7.06071,6.53218,13.28156,8.1808q.18652.0467.37323.093c26.40744,6.84316,72.72166-3.48365,82.73712-5.56739.09341,0,.18662-.03114.24889-.03114a282.52019,282.52019,0,0,1,39.129-6.43878c4.66563-.46626,9.20691-.80874,13.53044-1.08857,22.115-1.431,38.66251-.74647,38.66251-.74647a412.29317,412.29317,0,0,1,42.45732.964c.74647.06227,1.52408.12454,2.30168.18681a302.10843,302.10843,0,0,1,46.56291,7.123c.06227,0,.15548.03114.24889.03114,10.01546,2.08374,56.32968,12.41055,82.73712,5.56739q.18681-.0467.37323-.093c6.22085-1.64862,10.94875-4.26164,13.28156-8.1808,11.63294-19.37787-22.17731-90.13994-48.55362-90.13994-8.83368,0-15.67665,17.35639-15.67665,17.35639H603.01712V75h48.14926C713.87257,99.07463,783.29719,161.78044,779.93788,227.28608Z"/><path class="cls-5" d="M715.93,299.57c-.94.78-1.87,1.53-2.77,2.24-10.67,8.46-20.5,15.55-27.69,20.53a77.13173,77.13173,0,0,1-6.37,26.84c-15.9,35.74,4.54,51.42,12.75,90.24,8.09,38.29,6.03,158.69-191.85,144.01C302.12,598.11,300.06006,477.71,308.15,439.42c8.21-38.82,28.65-54.5,12.75-90.24a77.12906,77.12906,0,0,1-6.37-26.84c-7.18994-4.98-17.02-12.07-27.68994-20.53-.90015-.71-1.83008-1.46-2.77-2.24,2.79993-42.17,18.97-75.86,41.61987-105.44,26.41016,6.84,72.72009-3.48,82.74-5.57.09009,0,.19007-.03.25-.03,5.91016-1.45,11.95007-2.66,17.9801-3.66,7.16-1.2,14.28992-2.1,21.15-2.78,4.65991-.46,9.2-.81,13.53-1.09C483.45,179.57,500,180.26,500,180.26a412.11983,412.11983,0,0,1,42.46.96c.74.06006,1.52.13,2.3.19,9.06.73,18.83,1.84,28.64,3.47,6.01,1.01,12.04,2.21,17.92,3.65.06,0,.16.03.25.03,10.02,2.09,56.33,12.41,82.74,5.57C698.69,230,717.29,265.48,715.93,299.57Z"/><path class="cls-5" d="M501.83574,180.4162s-3.42139-.15567-9.39335-.21775c4.79.03113,7.5583.12435,7.5583.12435s5.56759-.24889,14.58789-.15548C506.5325,180.19845,501.83574,180.4162,501.83574,180.4162Z"/><path class="cls-6" d="M546.0012,181.287a55.89853,55.89853,0,0,1-81.11964-.21775c22.115-1.43067,38.66251-.74647,38.66251-.74647A412.26111,412.26111,0,0,1,546.0012,181.287Z"/><path class="cls-4" d="M545.2185,149.22177c0,8.38714-6.27357,15.23118-14.05665,15.33172-4.99891,15.26455-17.244,26.03371-31.53572,26.03371s-26.5704-10.76916-31.5693-26.03371c-7.78309-.13412-14.05665-6.94458-14.05665-15.33172a15.62873,15.62873,0,0,1,6.74309-13.05023,13.49644,13.49644,0,0,1,7.31356-2.31486,42.80264,42.80264,0,0,1,7.34714-13.58732c.83871.973,16.37171,18.1163,36.46746,18.48528a102.34249,102.34249,0,0,0,26.36911-2.751A15.62364,15.62364,0,0,1,545.2185,149.22177Z"/><path class="cls-3" d="M545.2185,133.85668a50.13172,50.13172,0,0,1-6.978,2.147,102.34249,102.34249,0,0,1-26.36911,2.751c-20.09575-.369-35.62875-17.51224-36.46746-18.48528a42.80264,42.80264,0,0,0-7.34714,13.58732,13.49644,13.49644,0,0,0-7.31356,2.31486C459.73685,116.445,469.26473,88.13,505.69841,88.13S545.2185,133.85668,545.2185,133.85668Z"/><rect class="cls-7" x="323.05475" y="904.44" width="367.2785" height="20.56"/><path class="cls-4" d="M466.50071,687.1306l-13.25043,28.83366c-.93309,53.53061-9.11351,131.19772-25.47435,163.14181H395.30332L365.28768,730.30326,363.4215,687.1306Z"/><path class="cls-4" d="M638.88037,687.1306,637.014,730.30326,606.99855,879.10607h-32.4728c-16.36084-31.94409-24.54126-109.6112-25.47435-163.14181L535.801,687.1306Z"/><path class="cls-4" d="M573.4,184.88c-4.16,21.05-35.42,37.4-73.36,37.4-37.96,0-69.22-16.36-73.38-37.41,7.16-1.2,14.28992-2.1,21.15-2.78,4.65991-.46,9.2-.81,13.53-1.09C483.45,179.57,500,180.26,500,180.26a412.11983,412.11983,0,0,1,42.46.96c.74.06006,1.52.13,2.3.19C553.82,182.14,563.59,183.25,573.4,184.88Z"/></g></g></svg>