<svg xmlns="http://www.w3.org/2000/svg" viewBox="0 0 1000 1000"><defs><style>.cls-1{isolation:isolate;}.cls-2{fill:#93d4c3;}.cls-3{fill:#4a285e;}.cls-4,.cls-5{fill:#facc83;}.cls-5,.cls-8{mix-blend-mode:multiply;}.cls-6{fill:#b1b1ae;}.cls-7{fill:#fc4a5d;}.cls-8{fill:#231f20;opacity:0.25;}</style></defs><g class="cls-1"><g id="Layer_1" data-name="Layer 1"><path class="cls-2" d="M639.20109,677.64173l-1.33682,9.63663L611.22466,879.13443H578.7718c-24.21528-60.14964-22.03911-104.04116-19.0547-183.36995l-3.979-8.48612L505.44256,548.826,455.147,687.27836l-3.979,8.48612c2.98442,79.32879,5.16059,123.22031-19.05469,183.36995H399.66085l-26.64-191.85607-1.33643-9.63663s14.54753-157.97305,21.6661-191.63827c.15519-.56007.24854-1.11939.37262-1.61647.5597-2.42472,1.15051-4.94278,1.70982-7.492.24893-1.11863.52859-2.26914.77713-3.41888.06223-.31116.15557-.62155.21781-.9327.59043-2.73511,1.14974-5.40875,1.64759-8.05051v-.03188c.99455-5.06648,1.77167,21.1379,2.42433,16.41293l104.94274-3.91673L610.3853,480.874c.653,4.725,1.43017-21.47941,2.42434-16.41293v.03188c.49784,2.64176,1.05716,5.3154,1.64759,8.05051.06223.31115.15558.62154.21781.9327q.18669.839.373,1.6787c.71489,3.17,1.43017,6.2481,2.11394,9.23214.12409.49708.21743,1.0564.37263,1.61647C624.65318,519.66868,639.20109,677.64173,639.20109,677.64173Z"/><polygon class="cls-3" points="639.195 904.453 578.766 904.453 578.766 879.15 611.219 879.15 639.195 904.453"/><polygon class="cls-3" points="371.679 904.453 432.108 904.453 432.108 879.15 399.655 879.15 371.679 904.453"/><path class="cls-4" d="M777.18712,220.00954c0,1.55425-.03111,3.07738-.12446,4.60051,0,53.27923-128.56721,60.36744-151.78794,62.66694a13.39011,13.39011,0,0,0-3.57446.56007c-4.63162,8.20609,7.21192,60.36668-4.53828,81.69052-8.984,16.28923-13.36667,27.04449-14.85868,37.02263-2.79772,18.06052,3.76115,33.47853,9.26325,74.32378.62154,4.60127,1.39867-21.72833,2.33136-16.81667.03112.15558.06224.27928.09335.43562.49709,2.64176,1.05678,5.3154,1.64759,8.05051-.15557.90158-.37338,1.772-.59081,2.6114-.12408.55932-.27966,1.08752-.43523,1.6476-37.2708,17.00336-72.61434,25.42725-107.989,25.33391h-3.41927c-35.31243.09334-70.59413-8.29944-107.77158-25.24133-.06223-.03035-.15557-.06223-.2178-.09258-.40374-1.39943-.746-2.7981-1.02529-4.259.59043-2.73511,1.14975-5.40875,1.64721-8.05051.06223-.24893.09335-.529.1552-.77713.9327-4.7872,1.64759,21.635,2.26952,17.15818,5.50171-40.84525,12.061-56.26326,9.26325-74.32378-1.492-9.97814-5.8751-20.7334-14.85831-37.02263-11.75019-21.32384.093-73.48443-4.53866-81.69052a13.395,13.395,0,0,0-3.57484-.56007c-23.22035-2.2995-151.78756-9.38771-151.78756-62.66694-.09334-1.52313-.12446-3.04626-.12446-4.60051,0-63.78633,67.60972-108.54832,128.81613-132.0487h48.11941v38.04791H388.87409s-6.83891-17.34563-15.66654-17.34563c-26.36034,0-69.47512,55.17575-57.84938,74.54159,1.492,2.487,63.66186,4.10343,92.32207,3.48188l25.33467-3.73a150.43592,150.43592,0,0,1,25.45838-4.19677c.77712-.06223,1.55424-.12446,2.30025-.18669,21.44867-1.55425,38.51427-1.08752,41.84019-.99493h4.60051c3.3263-.09259,20.39189-.55932,41.84057.99493.746.06223,1.52313.12446,2.30025.18669a150.45329,150.45329,0,0,1,25.45875,4.19677l25.33391,3.73c28.66021.62155,90.83006-.99493,92.32208-3.48188,11.62573-19.36584-31.48867-74.54159-57.84862-74.54159-8.82839,0-15.66693,17.34563-15.66693,17.34563H600.25159V87.96084H648.371C709.57741,111.46122,777.18712,156.22321,777.18712,220.00954Z"/><path class="cls-5" d="M547.86787,178.2044a55.86388,55.86388,0,0,1-81.06935-.21761c22.10134-1.42979,38.63854-.746,38.63854-.746A412.00861,412.00861,0,0,1,547.86787,178.2044Z"/><path class="cls-2" d="M497.88345,165.06675c-1.36775,0-2.85995-.03112-4.50735-.03112C495.0235,165.00452,496.54682,165.03563,497.88345,165.06675Z"/><path class="cls-2" d="M507.271,165.28436s-3.41927-.15557-9.38752-.21761c4.787.03111,7.55361.12427,7.55361.12427s5.56414-.24873,14.57884-.15539C511.96482,165.06675,507.271,165.28436,507.271,165.28436Z"/><path class="cls-4" d="M547.08566,146.159c0,8.38194-6.26968,15.22174-14.04794,15.32221-4.9958,15.25509-17.23331,26.01757-31.51617,26.01757s-26.55392-10.76248-31.54973-26.01757c-7.77825-.134-14.04793-6.94027-14.04793-15.32221a15.619,15.619,0,0,1,6.73891-13.04214,13.488,13.488,0,0,1,7.309-2.31342,42.77624,42.77624,0,0,1,7.34259-13.5789c.83819.97243,16.36156,18.10507,36.44486,18.47382a102.27907,102.27907,0,0,0,26.35276-2.7493A15.614,15.614,0,0,1,547.08566,146.159Z"/><path class="cls-3" d="M503.00267,105.51648S489.67772,61.92763,463.143,78.93989s-7.37531,47.49466-46.33626,40.12149-57.56077-11.75021-69.66382,22.38714-4.45143,49.94222-4.45143,49.94222,23.35724-17.365,44.57838,4.86488,27.74-32.17733,54.29594-27.40214,33.06908-41.22981,54.34393-36.51294S503.00267,105.51648,503.00267,105.51648Z"/><path class="cls-3" d="M547.08566,130.80347a50.10087,50.10087,0,0,1-6.97363,2.14562,102.27907,102.27907,0,0,1-26.35276,2.7493c-20.0833-.36875-35.60667-17.50139-36.44486-18.47382a42.77624,42.77624,0,0,0-7.34259,13.5789,13.488,13.488,0,0,0-7.309,2.31342c-1.00579-19.71433,8.51618-48.01176,44.92727-48.01176S547.08566,130.80347,547.08566,130.80347Z"/><rect class="cls-6" x="316.03684" y="904.45275" width="367.0508" height="20.54725"/><path class="cls-4" d="M506.03322,522.06161H504.852s.21762-.12446.59062-.34189C505.8156,521.93715,506.03322,522.06161,506.03322,522.06161Z"/><path class="cls-3" d="M617.53461,486.00346a343.99079,343.99079,0,0,1-224.18409,0c.15519-.56007.24854-1.11939.37262-1.61647.5597-2.42472,1.15051-4.94278,1.70982-7.492-.06223-.03035-.15557-.06223-.2178-.09258-.40374-1.39943-.746-2.7981-1.02529-4.259.59043-2.73511,1.14975-5.40875,1.64721-8.05051.06223-.24893.09335-.529.1552-.77713.68416.24817,1.36794.49709,2.08321.74525a322.92113,322.92113,0,0,0,214.73415,0c.37338-.12446.71527-.24816,1.08827-.40374.03112.15558.06224.27928.09335.43562.49709,2.64176,1.05678,5.3154,1.64759,8.05051-.15557.90158-.37338,1.772-.59081,2.6114.71489,3.17,1.43017,6.2481,2.11394,9.23214C617.28607,484.88407,617.37941,485.44339,617.53461,486.00346Z"/><path class="cls-4" d="M504.8519,522.06161h1.18125s-.21762-.12446-.59062-.34189C505.06952,521.93715,504.8519,522.06161,504.8519,522.06161Z"/><path class="cls-7" d="M617.162,369.52758c-8.984,16.28923-13.36667,27.04449-14.85868,37.02263-19.98778-2.11356-56.20179-5.12871-84.08488-2.61141-4.32047.4045-8.76616.68378-13.30444.80824-4.53828-.12446-8.98321-.40374-13.30444-.80824-27.88308-2.5173-64.09672.49785-84.08449,2.61141-1.492-9.97814-5.8751-20.7334-14.85831-37.02263-11.75019-21.32384.093-73.48443-4.53866-81.69052,0-.5282,18.8995-79.04951,19.55216-101.15047l25.33467-3.73c7.30451,27.57194,25.83138,69.44324,71.89907,69.44324,46.06808,0,64.59457-41.8713,71.89983-69.44324l25.33391,3.73c.65266,22.101,19.55254,100.62227,19.55254,101.15047C617.06864,296.04315,628.91218,348.20374,617.162,369.52758Z"/><path class="cls-8" d="M505.4427,535.80615a69.31661,69.31661,0,0,1-23.19922,15.14331,61.99417,61.99417,0,0,1-13.7323,3.78833,58.10779,58.10779,0,0,1-41.3562-8.99939,59.081,59.081,0,0,1-10.76233-9.12133,53.699,53.699,0,0,1-4.42956-5.40357,37.60477,37.60477,0,0,1-3.5691-5.9552,108.887,108.887,0,0,0,10.8534,7.98023,91.23678,91.23678,0,0,0,11.392,6.34045,71.58,71.58,0,0,0,24.26184,6.68884l1.55957.16248,1.56872.05774c1.04651.0216,2.09107.12524,3.141.071l3.15174-.03967,3.15515-.23462a31.116,31.116,0,0,0,3.15832-.34131c1.04749-.17016,2.11817-.21594,3.16468-.43249,2.09362-.41626,4.22546-.72034,6.31408-1.28479C488.55635,542.28223,496.87532,539.16724,505.4427,535.80615Z"/><path class="cls-8" d="M505.44258,535.80615c8.56738,3.36109,16.88635,6.47608,25.32825,8.42,2.08862.56445,4.22045.86853,6.31408,1.28479,1.04651.21655,2.11719.26233,3.16467.43249a31.11647,31.11647,0,0,0,3.15833.34131l3.15515.23462,3.15173.03967c1.04993.0542,2.09449-.04944,3.141-.071l1.56872-.05774,1.55957-.16248a71.58,71.58,0,0,0,24.26184-6.68884,91.23749,91.23749,0,0,0,11.392-6.34045,108.88577,108.88577,0,0,0,10.85339-7.98023,37.604,37.604,0,0,1-3.56909,5.9552,53.699,53.699,0,0,1-4.42956,5.40357,59.08136,59.08136,0,0,1-10.76233,9.12133,58.10779,58.10779,0,0,1-41.3562,8.99939,61.994,61.994,0,0,1-13.7323-3.78833A69.31651,69.31651,0,0,1,505.44258,535.80615Z"/><path class="cls-3" d="M538.26789,125.833s-7.08736,57.12354-42.63812,57.12354c-18.03073,0-28.83125-41.45673-28.83125-41.45673V125.833Z"/></g></g></svg>