<svg xmlns="http://www.w3.org/2000/svg" viewBox="0 0 1000 1000"><defs><style>.cls-1{isolation:isolate;}.cls-2{fill:#4a285e;}.cls-3{fill:#93d4c3;}.cls-4,.cls-6{fill:#facc83;}.cls-5{fill:#fc4a5d;}.cls-6,.cls-8{mix-blend-mode:multiply;}.cls-7{fill:#b1b1ae;}.cls-8{opacity:0.25;}.cls-9{fill:#231f20;}</style></defs><g class="cls-1"><g id="Layer_1" data-name="Layer 1"><path class="cls-2" d="M505.70456,105.51648s-13.325-43.58885-39.85967-26.57659-7.37531,47.49466-46.33625,40.12149-57.56077-11.75021-69.66383,22.38714-4.45142,49.94222-4.45142,49.94222,23.35724-17.365,44.57837,4.86488,27.74-32.17733,54.29594-27.40214,33.06909-41.22981,54.34393-36.51294S505.70456,105.51648,505.70456,105.51648Z"/><path class="cls-3" d="M633.75834,677.64182l-1.33663,9.63625L605.7819,879.13452H573.32923c-22.754-56.54368-37.58157-118.71353-36.77333-191.85645.03112-4.66274.12427-9.35659.31078-14.1123L500,584.26258l-36.86668,88.90319c.18651,4.75571.27966,9.44956.31078,14.1123.80824,73.14292-14.01934,135.31277-36.77352,191.85645H394.21791L367.5781,687.27807l-1.33663-9.63625,18.5578-165.27831L500,553.14654l115.20073-40.783Z"/><polygon class="cls-2" points="633.759 904.453 573.33 904.453 573.33 879.15 605.783 879.15 633.759 904.453"/><polygon class="cls-2" points="366.242 904.453 426.671 904.453 426.671 879.15 394.219 879.15 366.242 904.453"/><path class="cls-4" d="M779.76433,227.71863c-11.47034,26.57776-32.07966,50.73081-65.65135,59.68291-6.83872,1.83428-19.98758.65266-31.67554.18669-2.23822-.09335-4.414-.15558-6.46572-.15558-7.98885-.09334-14.36122.59043-15.9777,3.51261-4.63162,8.20647,6.74557,38.23461-1.119,61.26865-12.62047,36.99076-36.52479,47.21782-28.31832,86.01175,7.49138,35.43689,54.86478,103.82373-91.76276,113.7089-11.50146.77712-24.184,1.212-38.20331,1.212h-1.18124c-14.01933,0-26.702-.43486-38.20331-1.212-146.62773-9.88517-99.25433-78.272-91.76276-113.7089,8.20647-38.79393-15.69785-49.021-28.31832-86.01175-7.86458-23.034,3.51261-53.06218-1.1192-61.26865-1.6474-2.92218-8.01978-3.606-15.97751-3.54372-12.90032.09334-30.02814,2.17579-38.14126,0-33.57169-8.9521-54.181-33.10515-65.65135-59.68291-3.35723-65.465,53.59038-112.58951,116.25751-136.64921h48.11959v38.04792H363.9101s-6.83853-17.34563-15.66673-17.34563c-26.36,0-57.04076,55.17574-45.415,74.54159,1.36774,2.30025,9.7296-.03112,21.19994-2.36249a139.36075,139.36075,0,0,1,27.51008-3.26369c33.38518,0,89.12043,2.36249,103.73039,1.18125.77712-.06223,1.55424-.12447,2.30025-.1867,21.44868-1.55424,38.51427-1.08789,41.84038-.99455.373.03112.59062.03112.59062.03112s.21762,0,.59062-.03112c3.32611-.09334,20.3917-.55969,41.84019.99455.7462.06223,1.52332.12447,2.30044.1867,14.60977,1.18124,70.34521-1.18125,103.73039-1.18125a101.67368,101.67368,0,0,1,14.79645,1.15013c4.414.62155,8.73486,1.42979,12.71363,2.26914,11.12846,2.238,19.86331,4.44493,21.19994,2.20691,11.62573-19.36585-19.05507-74.54159-45.415-74.54159-8.8282,0-15.66692,17.34563-15.66692,17.34563H615.38723V91.06942h48.1194C726.174,115.12912,783.12156,162.2536,779.76433,227.71863Z"/><path class="cls-5" d="M658.87478,352.21382c-12.62028,36.99076-36.52479,47.21782-28.31794,86.01175,7.49119,35.43651,54.86459,103.82335-91.76276,113.7089-11.50127.77712-24.18416,1.212-38.2035,1.212h-1.18124c-14.01933,0-26.70184-.43486-38.20311-1.212-146.62812-9.88555-99.25434-78.27239-91.76277-113.7089,8.20609-38.79393-15.698-49.021-28.3187-86.01175-7.86458-23.03442,3.513-53.06218-1.11863-61.26827,17.99791-25.05463,23.6552-78.55167,25.42726-110.16479,6.49664.09258,13.39778.24816,20.39189.40374-.03112.62154-.06223,1.21273-.06223,1.83352,0,29.2514,49.3625,52.96884,110.227,52.96884,60.86415,0,110.227-23.71744,110.227-52.96884,0-.55931-.03111-1.11863-.06223-1.678,9.69886-.2178,19.42808-.43561,28.41167-.55931,1.77167,31.61312,7.42934,85.11016,25.42763,110.16479C655.36255,299.15164,666.73936,329.1794,658.87478,352.21382Z"/><path class="cls-6" d="M542.43149,181.82145a55.86389,55.86389,0,0,1-81.06935-.21762c22.10134-1.42979,38.63854-.746,38.63854-.746A412.00712,412.00712,0,0,1,542.43149,181.82145Z"/><path class="cls-3" d="M492.44707,165.06675c-1.36775,0-2.85995-.03112-4.50736-.03112C489.58712,165.00452,491.11044,165.03563,492.44707,165.06675Z"/><path class="cls-3" d="M501.83458,165.28436s-3.41926-.15557-9.38751-.21761c4.787.03111,7.55361.12427,7.55361.12427s5.56413-.24873,14.57884-.15539C506.52844,165.06675,501.83458,165.28436,501.83458,165.28436Z"/><path class="cls-4" d="M541.64927,149.77608c0,8.38193-6.26967,15.22173-14.04793,15.3222-4.99581,15.25509-17.23331,26.01757-31.51617,26.01757s-26.55392-10.76248-31.54973-26.01757c-7.77826-.134-14.04793-6.94027-14.04793-15.3222a15.619,15.619,0,0,1,6.7389-13.04214,13.488,13.488,0,0,1,7.309-2.31343,42.77624,42.77624,0,0,1,7.34259-13.5789c.83819.97243,16.36156,18.10507,36.44485,18.47382a102.27871,102.27871,0,0,0,26.35277-2.7493A15.614,15.614,0,0,1,541.64927,149.77608Z"/><path class="cls-2" d="M541.64927,134.42051a50.101,50.101,0,0,1-6.97362,2.14562,102.27871,102.27871,0,0,1-26.35277,2.7493c-20.08329-.36875-35.60666-17.50139-36.44485-18.47382a42.77624,42.77624,0,0,0-7.34259,13.5789,13.488,13.488,0,0,0-7.309,2.31343c-1.00579-19.71434,8.51618-48.01177,44.92728-48.01177S541.64927,134.42051,541.64927,134.42051Z"/><rect class="cls-7" x="316.47522" y="904.45275" width="367.0508" height="20.54725"/><g class="cls-8"><path class="cls-9" d="M628.59788,350.98156a77.17375,77.17375,0,0,1-12.07422,13.08374,92.19532,92.19532,0,0,1-14.6101,10.4635,86.28361,86.28361,0,0,1-34.40015,11.19507,84.70048,84.70048,0,0,1-18.31372.03534c-1.531-.09082-3.0354-.3537-4.54712-.57727-1.50513-.25348-3.03687-.39807-4.52246-.74482-2.98047-.65124-5.98779-1.2304-8.89844-2.137a133.93685,133.93685,0,0,1-33.13647-14.8277h4.1792c-2.62207,1.5047-5.23413,3.02539-7.87183,4.50232l-4.05957,2.04505-2.03,1.02118c-.67236.34808-1.353.68164-2.05908.96563l-4.18921,1.79193-2.09448.89411-2.14844.77392-4.29688,1.54224c-1.43457.50763-2.92211.873-4.38208,1.30792-2.90918.91364-5.91528,1.50006-8.8955,2.15863-.74146.18042-1.49732.29785-2.25464.40808l-2.26856.3418c-1.51318.21954-3.0188.47833-4.55053.56506a87.89868,87.89868,0,0,1-52.72266-11.25207,92.35122,92.35122,0,0,1-14.60913-10.4679,77.13672,77.13672,0,0,1-12.07031-13.08874,75.73374,75.73374,0,0,0,6.47485,6.00159c2.25317,1.87963,4.55322,3.6936,6.96582,5.34356a96.44187,96.44187,0,0,0,15.05957,8.7309,89.15479,89.15479,0,0,0,16.20166,5.85229c1.39722.31549,2.77857.68347,4.17822.96479l4.20752.78674,4.2417.53326c1.41065.188,2.84058.20563,4.25659.31855a95.46672,95.46672,0,0,0,33.627-4.47113c1.35376-.4469,2.72827-.81739,4.06738-1.31135l4.00684-1.51367,2.00293-.75537,1.95947-.87726,3.91894-1.75067c2.59717-1.20343,5.12159-2.58209,7.687-3.86078l7.468-4.31933,2.155-1.24628,2.02442,1.24628a138.564,138.564,0,0,0,31.10571,14.405,94.50236,94.50236,0,0,0,33.63281,4.46643c1.41626-.11316,2.84644-.13105,4.25733-.31934l4.24218-.53406,4.20752-.78765c1.40039-.27985,2.78272-.64472,4.17969-.96229a89.44524,89.44524,0,0,0,16.20288-5.85485,96.60439,96.60439,0,0,0,15.05884-8.73523c2.41211-1.6507,4.71094-3.46619,6.96435-5.34583A75.71886,75.71886,0,0,0,628.59788,350.98156Z"/></g></g></g></svg>