<svg xmlns="http://www.w3.org/2000/svg" viewBox="0 0 1000 1000"><defs><style>.cls-1{isolation:isolate;}.cls-2{fill:#4a285e;}.cls-3{fill:#93d4c3;}.cls-4,.cls-6{fill:#facc83;}.cls-5{fill:#fc4a5d;}.cls-6,.cls-8{mix-blend-mode:multiply;}.cls-7{fill:#b1b1ae;}.cls-8{opacity:0.25;}.cls-9{fill:#231f20;}</style></defs><g class="cls-1"><g id="Layer_1" data-name="Layer 1"><path class="cls-2" d="M500.80754,105.51648s-13.32495-43.58885-39.85966-26.57659-7.37531,47.49466-46.33626,40.12149-57.56077-11.75021-69.66382,22.38714-4.45143,49.94222-4.45143,49.94222,23.35724-17.365,44.57838,4.86488,27.74-32.17733,54.29594-27.40214,33.06908-41.22981,54.34393-36.51294S500.80754,105.51648,500.80754,105.51648Z"/><path class="cls-3" d="M645.695,527.31516l-6.90076,159.96291L636.92906,730.424,606.93222,879.13452H574.47955c-16.3507-31.92428-24.52605-109.54325-25.45856-163.04066l-13.24221-28.81579-34.62865-75.47391-34.62866,75.47391-13.2422,28.81579c-.93251,53.49741-9.10787,131.11638-25.45857,163.04066H395.36822L365.37119,730.424l-1.865-43.14589-6.901-159.96291,144.54491,25.83138Z"/><polygon class="cls-2" points="633.759 904.453 573.33 904.453 573.33 879.15 605.783 879.15 633.759 904.453"/><polygon class="cls-2" points="428.971 879.135 428.971 904.437 368.542 904.437 396.518 879.135 428.971 879.135"/><path class="cls-4" d="M779.76433,227.71863c-11.06622,25.614-39.35343,52.40914-63.97283,72.24134-.93251.77712-1.865,1.52313-2.7666,2.238-10.66211,8.455-20.48486,15.54247-27.66547,20.51636a77.07294,77.07294,0,0,1-6.37237,26.82592c-15.88455,35.71655,4.53827,51.38348,12.74474,90.1774C699.8138,477.9834,697.76228,598.313,500,583.641,302.23772,598.313,300.186,477.9834,308.2682,439.71767c8.20647-38.79392,28.6291-54.46085,12.74474-90.1774a77.07294,77.07294,0,0,1-6.37237-26.82592C307.46,317.74046,297.63721,310.653,286.97491,302.198c-.90139-.71489-1.8339-1.4609-2.76641-2.238-24.6194-19.8322-52.90661-46.62739-63.97283-72.24134-3.35723-65.465,50.48189-112.58951,113.1492-136.64921h48.11941v38.04792H360.80161s-6.83853-17.34563-15.66673-17.34563c-26.36,0-44.6068,55.17574-32.98106,74.54159,2.33137,3.91673,7.05633,6.52814,13.27332,8.17573q.1864.04666.373.093c26.39108,6.83892,72.67658-3.48149,82.68583-5.56394.09335,0,.1865-.03111.24873-.03111a282.34582,282.34582,0,0,1,39.1047-6.4348c4.66274-.466,9.20121-.80824,13.52206-1.08789,22.10134-1.43017,38.63854-.746,38.63854-.746a412.04068,412.04068,0,0,1,42.431.96343c.746.06223,1.52313.12447,2.30025.1867a301.92146,301.92146,0,0,1,46.534,7.11857c.06223,0,.15538.03111.24873.03111,10.00925,2.08245,56.29475,12.40286,82.68583,5.56394q.18669-.04666.373-.093c6.217-1.64759,10.942-4.259,13.27332-8.17573,11.62574-19.36585-6.6211-74.54159-32.98106-74.54159-8.8282,0-15.66692,17.34563-15.66692,17.34563H618.49572V91.06942h48.11941C729.28244,115.12912,783.12156,162.2536,779.76433,227.71863Z"/><path class="cls-5" d="M500,583.64094c-197.76228,14.672-199.814-105.65763-191.73161-143.92336,8.20609-38.79392,28.6291-54.46085,12.74437-90.1774a77.07506,77.07506,0,0,1-6.37219-26.82592l30.05926-125.86284a167.76866,167.76866,0,0,0,17.56268-.59043c3.91673,49.86034,63.91079,89.46175,137.36449,89.46175,73.48481,0,133.47887-39.63328,137.36448-89.524a167.41961,167.41961,0,0,0,17.56268.65266l30.05926,125.86284.71489.28a76.21383,76.21383,0,0,1-6.34106,26.54589c-15.88473,35.71655,4.53828,51.38348,12.74436,90.1774C699.814,477.98331,697.76224,598.31294,500,583.64094Z"/><path class="cls-3" d="M501.8346,180.87781s-3.41927-.15558-9.38752-.21762c4.787.03111,7.55361.12427,7.55361.12427s5.56414-.24873,14.57884-.15539C506.52845,180.66019,501.8346,180.87781,501.8346,180.87781Z"/><path class="cls-6" d="M545.97268,181.74809a55.86389,55.86389,0,0,1-81.06935-.21762c22.10134-1.42979,38.63854-.746,38.63854-.746A412.00712,412.00712,0,0,1,545.97268,181.74809Z"/><path class="cls-4" d="M545.19046,149.70272c0,8.38193-6.26967,15.22173-14.04793,15.3222-4.99581,15.25509-17.23331,26.01757-31.51617,26.01757S473.07244,180.28,468.07663,165.02492c-7.77826-.134-14.04793-6.94027-14.04793-15.3222a15.619,15.619,0,0,1,6.7389-13.04214,13.488,13.488,0,0,1,7.309-2.31343,42.77624,42.77624,0,0,1,7.34259-13.5789c.83819.97243,16.36156,18.10507,36.44485,18.47382a102.27871,102.27871,0,0,0,26.35277-2.7493A15.614,15.614,0,0,1,545.19046,149.70272Z"/><path class="cls-2" d="M545.19046,134.34715a50.101,50.101,0,0,1-6.97362,2.14562,102.27871,102.27871,0,0,1-26.35277,2.7493c-20.08329-.36875-35.60666-17.50139-36.44485-18.47382a42.77624,42.77624,0,0,0-7.34259,13.5789,13.488,13.488,0,0,0-7.309,2.31343c-1.00579-19.71434,8.51618-48.01177,44.92728-48.01177S545.19046,134.34715,545.19046,134.34715Z"/><rect class="cls-7" x="323.16444" y="904.45275" width="367.0508" height="20.54725"/><g class="cls-8"><path class="cls-9" d="M673.13131,370.06762a109.03383,109.03383,0,0,1-19.55493,10.93115,167.46143,167.46143,0,0,1-21.15625,7.72076,193.70289,193.70289,0,0,1-22.03638,4.959,216.13589,216.13589,0,0,1-22.50146,2.411,231.11852,231.11852,0,0,1-45.20142-2.20673,272.65913,272.65913,0,0,1-44.05933-10.27008h2.75684c-3.61328,1.08185-7.21606,2.19721-10.84131,3.23719l-5.47339,1.44323c-1.82715.46973-3.63965.99573-5.4895,1.37934-3.69311.78894-7.35351,1.71417-11.08057,2.34521l-5.56909,1.035c-1.85913.32929-3.73559.56665-5.60376.84217a231.36434,231.36434,0,0,1-45.20361,2.20813,217.8444,217.8444,0,0,1-22.50293-2.41046,194.578,194.578,0,0,1-22.03711-4.96149,167.78476,167.78476,0,0,1-21.15625-7.72553,108.97094,108.97094,0,0,1-19.55225-10.93786,99.59085,99.59085,0,0,0,10.07081,4.73523q5.11926,2.15121,10.38916,3.8786a181.74533,181.74533,0,0,0,21.324,5.76343,221.70234,221.70234,0,0,0,43.678,4.63824c3.66138-.04523,7.31787-.018,10.97241-.22961,3.65552-.08564,7.30371-.36939,10.95044-.61341,7.28418-.64172,14.554-1.47729,21.75537-2.76556,1.8-.32214,3.6062-.60083,5.40332-.93616l5.37842-1.081c3.59692-.65979,7.136-1.61316,10.70117-2.42658,3.5603-.83886,7.07642-1.8703,10.61695-2.79425,3.51464-1.02484,7.00634-2.13354,10.51293-3.18829l1.427-.42932,1.32983.42932a303.14269,303.14269,0,0,0,42.61084,10.43829c7.2019,1.28766,14.47217,2.12262,21.75659,2.76368,3.647.24633,7.29541.52111,10.95093.6184,3.65479.211,7.31152.18329,10.97314.22791a221.69674,221.69674,0,0,0,43.68018-4.64014,182.1489,182.1489,0,0,0,21.324-5.76825q5.25953-1.73886,10.38819-3.88153A99.55636,99.55636,0,0,0,673.13131,370.06762Z"/></g></g></g></svg>