<svg xmlns="http://www.w3.org/2000/svg" viewBox="0 0 1000 1000"><defs><style>.cls-1{isolation:isolate;}.cls-2{fill:#93d4c3;}.cls-3{fill:#4a285e;}.cls-4,.cls-6{fill:#facc83;}.cls-5{fill:#fc4a5d;}.cls-6{mix-blend-mode:multiply;}.cls-7{fill:#b1b1ae;}</style></defs><g class="cls-1"><g id="Layer_1" data-name="Layer 1"><path class="cls-2" d="M666.37,527.31516l-6.90076,159.96291L657.604,730.424,627.60716,879.13452H595.15449c-16.3507-31.92428-24.52605-109.54325-25.45856-163.04066l-13.24221-28.81579-34.62865-75.47391-34.62865,75.47391-13.24221,28.81579c-.93251,53.49741-9.10786,131.11638-25.45856,163.04066H416.04317L386.04614,730.424l-1.865-43.14589-6.901-159.96291,144.54491,25.83138Z"/><polygon class="cls-3" points="654.434 904.453 594.005 904.453 594.005 879.15 626.458 879.15 654.434 904.453"/><polygon class="cls-3" points="449.646 879.135 449.646 904.437 389.217 904.437 417.193 879.135 449.646 879.135"/><path class="cls-4" d="M800.43928,227.71863c-11.06623,25.614-39.35344,52.40914-63.97284,72.24134-.93251.77712-1.865,1.52313-2.7666,2.238-10.66211,8.455-20.48486,15.54247-27.66547,20.51636a77.07294,77.07294,0,0,1-6.37237,26.82592c-15.88454,35.71655,4.53828,51.38348,12.74474,90.1774,8.082,38.26573,6.03049,158.59536-191.7318,143.92336C322.91266,598.313,320.861,477.9834,328.94314,439.71767c8.20647-38.79392,28.6291-54.46085,12.74475-90.1774a77.073,77.073,0,0,1-6.37238-26.82592c-7.18061-4.97389-17.00336-12.06135-27.66566-20.51636-.90139-.71489-1.8339-1.4609-2.76641-2.238-24.6194-19.8322-52.9066-46.62739-63.97283-72.24134-3.35722-65.465,50.48189-112.58951,113.14921-136.64921h48.1194v38.04792H381.47655s-6.83853-17.34563-15.66673-17.34563c-26.36,0-44.60679,55.17574-32.98106,74.54159,2.33137,3.91673,7.05634,6.52814,13.27332,8.17573q.18641.04666.373.093c26.39107,6.83892,72.67657-3.48149,82.68582-5.56394.09335,0,.18651-.03111.24874-.03111a282.34558,282.34558,0,0,1,39.1047-6.4348c4.66273-.466,9.2012-.80824,13.52205-1.08789,22.10134-1.43017,38.63854-.746,38.63854-.746a412.04067,412.04067,0,0,1,42.431.96343c.746.06223,1.52313.12447,2.30026.1867a301.92134,301.92134,0,0,1,46.534,7.11857c.06223,0,.15539.03111.24873.03111,10.00926,2.08245,56.29476,12.40286,82.68583,5.56394q.18669-.04666.373-.093c6.217-1.64759,10.942-4.259,13.27333-8.17573,11.62573-19.36585-6.62111-74.54159-32.98106-74.54159-8.82821,0-15.66693,17.34563-15.66693,17.34563H639.17066V91.06942h48.11941C749.95739,115.12912,803.7965,162.2536,800.43928,227.71863Z"/><path class="cls-5" d="M520.6749,583.64094c-197.76228,14.672-199.814-105.65763-191.73161-143.92336,8.20609-38.79392,28.6291-54.46085,12.74437-90.1774a77.07482,77.07482,0,0,1-6.37218-26.82592l30.05926-125.86284a167.76884,167.76884,0,0,0,17.56268-.59043c3.91673,49.86034,63.91079,89.46175,137.36448,89.46175,73.48481,0,133.47887-39.63328,137.36449-89.524a167.41932,167.41932,0,0,0,17.56267.65266l30.05926,125.86284.7149.28a76.21384,76.21384,0,0,1-6.34107,26.54589c-15.88473,35.71655,4.53828,51.38348,12.74436,90.1774C720.4889,477.98331,718.43719,598.31294,520.6749,583.64094Z"/><path class="cls-2" d="M522.50954,180.87781s-3.41926-.15558-9.38752-.21762c4.787.03111,7.55362.12427,7.55362.12427s5.56413-.24873,14.57883-.15539C527.2034,180.66019,522.50954,180.87781,522.50954,180.87781Z"/><path class="cls-6" d="M566.64762,181.74809a55.86389,55.86389,0,0,1-81.06935-.21762c22.10134-1.42979,38.63854-.746,38.63854-.746A412.00712,412.00712,0,0,1,566.64762,181.74809Z"/><path class="cls-4" d="M565.86541,149.70272c0,8.38193-6.26968,15.22173-14.04794,15.3222-4.9958,15.25509-17.23331,26.01757-31.51617,26.01757S493.74738,180.28,488.75157,165.02492c-7.77826-.134-14.04793-6.94027-14.04793-15.3222a15.619,15.619,0,0,1,6.73891-13.04214,13.488,13.488,0,0,1,7.309-2.31343,42.77624,42.77624,0,0,1,7.34259-13.5789c.83819.97243,16.36156,18.10507,36.44485,18.47382a102.27865,102.27865,0,0,0,26.35277-2.7493A15.614,15.614,0,0,1,565.86541,149.70272Z"/><path class="cls-3" d="M565.86541,134.34715a50.10147,50.10147,0,0,1-6.97363,2.14562,102.27865,102.27865,0,0,1-26.35277,2.7493c-20.08329-.36875-35.60666-17.50139-36.44485-18.47382a42.77624,42.77624,0,0,0-7.34259,13.5789,13.488,13.488,0,0,0-7.309,2.31343c-1.00579-19.71434,8.51618-48.01177,44.92727-48.01177S565.86541,134.34715,565.86541,134.34715Z"/><rect class="cls-7" x="343.83939" y="904.45275" width="367.0508" height="20.54725"/><path class="cls-3" d="M558.89178,136.49277s-15.46305,47.71774-41.20136,47.71774-28.93885-49.86336-28.93885-49.86336l1.51129-29.59778h27.42756Z"/><path class="cls-3" d="M521.48248,105.51648s-13.32495-43.58885-39.85966-26.57659-7.37531,47.49466-46.33626,40.12149-57.56076-11.75021-69.66382,22.38714-4.45142,49.94222-4.45142,49.94222,23.35724-17.365,44.57837,4.86488,27.74-32.17733,54.29594-27.40214,33.06909-41.22981,54.34393-36.51294S521.48248,105.51648,521.48248,105.51648Z"/></g></g></svg>