<svg xmlns="http://www.w3.org/2000/svg" viewBox="0 0 1000 1000"><defs><style>.cls-1{isolation:isolate;}.cls-2{fill:#93d4c3;}.cls-3{fill:#4a285e;}.cls-4,.cls-6{fill:#facc83;}.cls-5{fill:#fc4a5d;}.cls-6{mix-blend-mode:multiply;}.cls-7{fill:#b1b1ae;}</style></defs><g class="cls-1"><g id="Layer_1" data-name="Layer 1"><path class="cls-2" d="M674.58037,677.64182l-1.33663,9.63625-26.6398,191.85645H614.15126c-22.754-56.54368-37.58156-118.71353-36.77333-191.85645.03112-4.66274.12428-9.35659.31078-14.1123L540.822,584.26258l-36.86668,88.90319c.18651,4.75571.27966,9.44956.31078,14.1123.80824,73.14292-14.01933,135.31277-36.77352,191.85645H435.03994L408.40013,687.27807l-1.33663-9.63625,18.5578-165.27831,115.20073,40.783,115.20073-40.783Z"/><polygon class="cls-3" points="674.581 904.453 614.152 904.453 614.152 879.15 646.605 879.15 674.581 904.453"/><polygon class="cls-3" points="407.064 904.453 467.493 904.453 467.493 879.15 435.041 879.15 407.064 904.453"/><path class="cls-4" d="M820.58636,227.71863C809.116,254.29639,788.5067,278.44944,754.935,287.40154c-6.83873,1.83428-19.98759.65266-31.67555.18669-2.23821-.09335-4.414-.15558-6.46572-.15558-7.98885-.09334-14.36122.59043-15.9777,3.51261-4.63162,8.20647,6.74557,38.23461-1.119,61.26865-12.62047,36.99076-36.52479,47.21782-28.31832,86.01175,7.49138,35.43689,54.86478,103.82373-91.76276,113.7089-11.50146.77712-24.184,1.212-38.20331,1.212h-1.18124c-14.01933,0-26.702-.43486-38.20331-1.212-146.62773-9.88517-99.25433-78.272-91.76276-113.7089,8.20647-38.79393-15.69785-49.021-28.31832-86.01175-7.86458-23.034,3.51261-53.06218-1.1192-61.26865-1.6474-2.92218-8.01978-3.606-15.97751-3.54372-12.90032.09334-30.02814,2.17579-38.14126,0-33.57169-8.9521-54.181-33.10515-65.65135-59.68291-3.35723-65.465,53.59038-112.58951,116.25751-136.64921H425.4348v38.04792H404.73213s-6.83853-17.34563-15.66673-17.34563c-26.36,0-57.04076,55.17574-45.415,74.54159,1.36774,2.30025,9.7296-.03112,21.19994-2.36249a139.36076,139.36076,0,0,1,27.51009-3.26369c33.38518,0,89.12042,2.36249,103.73038,1.18125.77712-.06223,1.55424-.12447,2.30025-.1867,21.44868-1.55424,38.51427-1.08789,41.84038-.99455.373.03112.59062.03112.59062.03112s.21762,0,.59062-.03112c3.32611-.09334,20.39171-.55969,41.84019.99455.7462.06223,1.52332.12447,2.30044.1867,14.60977,1.18124,70.34521-1.18125,103.73039-1.18125a101.67368,101.67368,0,0,1,14.79645,1.15013c4.414.62155,8.73486,1.42979,12.71363,2.26914,11.12846,2.238,19.86331,4.44493,21.19994,2.20691,11.62573-19.36585-19.05507-74.54159-45.415-74.54159-8.8282,0-15.66692,17.34563-15.66692,17.34563H656.20926V91.06942h48.11941C766.996,115.12912,823.94359,162.2536,820.58636,227.71863Z"/><path class="cls-5" d="M699.69681,352.21382c-12.62028,36.99076-36.52478,47.21782-28.31794,86.01175,7.4912,35.43651,54.86459,103.82335-91.76276,113.7089-11.50127.77712-24.18416,1.212-38.2035,1.212h-1.18124c-14.01933,0-26.70184-.43486-38.20311-1.212-146.62811-9.88555-99.25434-78.27239-91.76277-113.7089,8.20609-38.79393-15.698-49.021-28.3187-86.01175-7.86457-23.03442,3.513-53.06218-1.11863-61.26827,17.99791-25.05463,23.6552-78.55167,25.42726-110.16479,6.49664.09258,13.39778.24816,20.39189.40374-.03111.62154-.06223,1.21273-.06223,1.83352,0,29.2514,49.3625,52.96884,110.227,52.96884,60.86414,0,110.227-23.71744,110.227-52.96884,0-.55931-.03111-1.11863-.06223-1.678,9.69886-.2178,19.42808-.43561,28.41167-.55931,1.77167,31.61312,7.42934,85.11016,25.42764,110.16479C696.18458,299.15164,707.56139,329.1794,699.69681,352.21382Z"/><path class="cls-6" d="M583.25352,181.82145a55.86389,55.86389,0,0,1-81.06935-.21762c22.10134-1.42979,38.63854-.746,38.63854-.746A412.00712,412.00712,0,0,1,583.25352,181.82145Z"/><path class="cls-2" d="M533.2691,165.06675c-1.36775,0-2.86-.03112-4.50736-.03112C530.40915,165.00452,531.93247,165.03563,533.2691,165.06675Z"/><path class="cls-2" d="M542.65661,165.28436s-3.41926-.15557-9.38751-.21761c4.787.03111,7.55361.12427,7.55361.12427s5.56413-.24873,14.57884-.15539C547.35047,165.06675,542.65661,165.28436,542.65661,165.28436Z"/><path class="cls-4" d="M582.4713,149.77608c0,8.38193-6.26967,15.22173-14.04793,15.3222-4.99581,15.25509-17.23331,26.01757-31.51617,26.01757s-26.55392-10.76248-31.54973-26.01757c-7.77826-.134-14.04793-6.94027-14.04793-15.3222a15.619,15.619,0,0,1,6.73891-13.04214,13.488,13.488,0,0,1,7.309-2.31343,42.77624,42.77624,0,0,1,7.34259-13.5789c.83819.97243,16.36156,18.10507,36.44485,18.47382a102.27871,102.27871,0,0,0,26.35277-2.7493A15.614,15.614,0,0,1,582.4713,149.77608Z"/><path class="cls-3" d="M582.4713,134.42051a50.101,50.101,0,0,1-6.97362,2.14562,102.27871,102.27871,0,0,1-26.35277,2.7493c-20.08329-.36875-35.60666-17.50139-36.44485-18.47382a42.77624,42.77624,0,0,0-7.34259,13.5789,13.488,13.488,0,0,0-7.309,2.31343c-1.0058-19.71434,8.51618-48.01177,44.92727-48.01177S582.4713,134.42051,582.4713,134.42051Z"/><rect class="cls-7" x="357.29726" y="904.45275" width="367.0508" height="20.54725"/><path class="cls-3" d="M576.24,134.81822s-15.463,47.71773-41.20136,47.71773-28.93885-49.86335-28.93885-49.86335l1.51129-29.59778h27.42756Z"/><path class="cls-3" d="M546.52659,105.51648s-13.325-43.58885-39.85967-26.57659-7.37531,47.49466-46.33625,40.12149-57.56077-11.75021-69.66383,22.38714-4.45142,49.94222-4.45142,49.94222,23.35724-17.365,44.57837,4.86488,27.74-32.17733,54.29594-27.40214,33.06909-41.22981,54.34393-36.51294S546.52659,105.51648,546.52659,105.51648Z"/></g></g></svg>