<svg xmlns="http://www.w3.org/2000/svg" viewBox="0 0 1000 1000"><defs><style>.cls-1{isolation:isolate;}.cls-2{fill:#4a285e;}.cls-3,.cls-4,.cls-9{fill:#93d4c3;}.cls-4,.cls-8,.cls-9{mix-blend-mode:multiply;}.cls-5,.cls-8{fill:#facc83;}.cls-6{fill:#fc4a5d;}.cls-7{fill:#b1b1ae;}.cls-9{opacity:0.7;}</style></defs><g class="cls-1"><g id="Layer_1" data-name="Layer 1"><path class="cls-2" d="M487.52734,105.15781S474.359,62.08128,448.13616,78.89359s-7.28862,46.93643-45.79164,39.64992-56.88423-11.6121-68.845,22.124-4.3991,49.35522-4.3991,49.35522,23.08271-17.16091,44.05442,4.80771,27.414-31.79915,53.65778-27.08008,32.68041-40.74522,53.7052-36.08379S487.52734,105.15781,487.52734,105.15781Z"/><polygon class="cls-2" points="548.787 880.655 578.278 880.655 613.486 904.679 549.525 904.679 548.787 880.655"/><path class="cls-3" d="M514.601,734.09294,467.7229,872.23877l-2.85708,8.41713H435.3751L412.51955,728.37877l-11.12047-25.28214A307.58449,307.58449,0,0,1,375.34894,579.2351c0-7.15715.27637-14.3458.768-21.5337l.645-9.21587,66.6002-6.35916,1.01361-.09225,35.35826-3.37945L499.76321,650.9041l5.34517,30.04383.03075.03075,3.9322,22.11795Z"/><polyline class="cls-4" points="443.362 542.126 442.655 538.655 444.376 542.034 499.763 650.904 505.108 680.948 505.139 680.979 509.071 703.097 514.601 734.093 467.723 872.239 493.847 736.274"/><polygon class="cls-3" points="628.017 734.093 578.282 880.656 548.792 880.656 525.936 728.379 514.846 703.097 505.108 680.948 442.655 538.655 607.804 538.655 624.823 703.097 628.017 734.093"/><polygon class="cls-2" points="435.378 880.655 464.868 880.655 500.076 904.679 436.115 904.679 435.378 880.655"/><path class="cls-5" d="M249.28685,331.987c-3.354-10.54193,21.00782-58.44939,61.79143-87.84272,1.859-1.30844,11.52666-5.68775,24.679-11.17659,23.47844-9.80365,58.18959-23.226,79.95866-29.55729,30.38225-8.83625,58.44849,2.96431,58.44849,2.96431,38.70306,14.27363,51.28679,64.36106,30.48086,103.04448,0,0-11.45121,18.04706-53.544,30.28917-20.76608,6.03953-48.15342,9.3338-71.258,10.74278-22.41288,1.36755-40.84183,1.03281-45.40086-.23264,1.59375,1.52,63.23312,54.61625,79.90449,89.27817l16.1645-4.70122-5.64649-10.83492,19.90724-9.21276,8.07923,33.60972L401.231,463.3706S268.17211,391.31119,249.28685,331.987Z"/><path class="cls-6" d="M612.10474,519.824a170.59865,170.59865,0,0,1-4.30081,18.83074c-9.523,32.99279-232.76226,57.90669-233.68381,0q-.13809-9.44649-.33787-18.83074c-2.45753-121.7113,23.04162-241.28481,42.30286-290.55912,20.21353-51.79316,39.8105-51.38061,39.8105-51.38061,3.40982-.891,6.78909-1.62823,10.07611-2.181,25.12858-4.39307,46.8779.30674,65.18684,10.4751a206.66131,206.66131,0,0,1,24.6064,16.18927,168.99581,168.99581,0,0,1,26.11164,24.39116c10.84391,12.71833,18.80036,26.97188,20.45915,41.74817.27656,2.48847.52237,4.94581.73743,7.31128,3.19477,33.607,1.01361,54.49649-2.24266,67.18368-2.1504,8.41714-4.73074,13.24032-6.54328,15.82028h-.03075a11.04164,11.04164,0,0,1-2.11947,2.51922,4.69623,4.69623,0,0,0,.39918.33787c.27656.27637.92174,3.31758,1.81254,8.233,2.519,14.2843,7.09621,44.20513,10.96691,65.89333C612.38111,475.24989,616.86624,491.13167,612.10474,519.824Z"/><rect class="cls-7" x="360.84349" y="904.69425" width="362.7367" height="20.30575"/><path class="cls-5" d="M534.22967,188.559c0,13.701-15.75916,24.82147-35.20451,24.82147-19.44555,0-35.2047-11.12047-35.2047-24.82147a17.56583,17.56583,0,0,1,1.07511-6.05167,21.02409,21.02409,0,0,1,3.99369-6.78909c24.20685-4.23931,45.24987-.03075,63.12869,9.36943.70649.36881,1.38241.73743,2.05816,1.106A20.36522,20.36522,0,0,1,534.22967,188.559Z"/><path class="cls-8" d="M532.018,185.0877c-5.00731,9.43093-17.87882,16.12778-32.99279,16.12778-16.46584,0-30.25889-7.95627-34.12959-18.70812a21.02409,21.02409,0,0,1,3.99369-6.78909C493.09611,171.479,514.13913,175.68752,532.018,185.0877Z"/><path class="cls-5" d="M535.13634,123.18022s20.87326,26.724,5.61972,50.89374-56.19724,22.96549-58.20428,3.29646S480.54473,121.17318,535.13634,123.18022Z"/><path class="cls-2" d="M474.12219,117.15909s2.80986-8.02818,14.85213-11.23945,16.05635-5.21831,34.11975-8.42958,33.71834,5.21831,20.07044,19.669-39.33806,21.67608-39.33806,21.67608.4014,34.52116-13.2465,38.13384-29.30284,0-29.30284-11.23945S453.65034,117.5605,474.12219,117.15909Z"/><path class="cls-9" d="M595.79247,359.2064a13.32029,13.32029,0,0,1-4.20857,2.58034s-139.58974,31.11894-133.968-84.47882c5.43743-76.1845,71.76088-74.15709,124.90589-25.89658C597.3592,287.87546,605.31565,331.28223,595.79247,359.2064Z"/><path class="cls-5" d="M751.01856,274.60458c.27655,11.05916-36.49487,50.25717-83.8644,67.09163-2.15041.73724-12.65645,2.24247-26.81831,3.83994-25.28215,2.8569-62.3607,6.05167-85.03175,6.05167-31.64113,0-55.29523-19.169-55.29523-19.169-33.1771-24.51416-31.27251-76.123-.49143-107.457,0,0,16.03552-14.13111,59.87241-14.13111,21.62651,0,48.8442,4.48512,71.423,9.58449,21.90307,4.946,39.50532,10.414,43.52958,12.90226-1.10586-1.9046-45.46493-70.10209-51.79316-108.04068H605.715l2.396,11.9807-21.688,3.28683,1.62822-34.52876h53.75925S749.45183,212.3667,751.01856,274.60458Z"/></g></g></svg>