<svg xmlns="http://www.w3.org/2000/svg" viewBox="0 0 1000 1000"><defs><style>.cls-1{isolation:isolate;}.cls-2{fill:#facc83;}.cls-3{fill:#4a285e;}.cls-4{fill:#fc4a5d;}.cls-5{fill:#b1b1ae;}.cls-6,.cls-7{fill:#93d4c3;}.cls-7{mix-blend-mode:multiply;}</style></defs><g class="cls-1"><g id="Layer_1" data-name="Layer 1"><path class="cls-2" d="M259.11418,346.44874c-11.39264-27.70464,127.21323-171.6758,198.23759-147.085,35.76443,12.38274,38.4605,40.238,19.94717,76.03354-6.23293,12.05137-15.92479,21.61594-53.19288,36.73965-23.163,9.39973-53.84384,22.99364-76.10794,29.602-7.30932,2.16952-1.05618,15.73832,5.01643,20.34879,19.91872,15.12277,52.17656,41.3504,64.71642,61.7675l14.31188-5.80788-6.1705-9.35875,17.30419-10.27667,10.52833,29.91644-45.70362,18.54692S280.838,399.27681,259.11418,346.44874Z"/><path class="cls-2" d="M594.79939,509.66487c-7.6799,9.89162-31.67169,18.67774-60.70153,24.23817-45.926-.615-93.29533-.58425-121.68018-1.59748-13.60894-4.97693-22.76331-12.53383-24.57566-23.28568a113.04956,113.04956,0,0,1,3.8092-11.12084h-.27675c-.09225-6.20542-.21487-12.34933-.33749-18.52324v-.3075c-.70687-34.80552-2.028-37.171-3.10271-67.829,2.36547.492,123.79965,24.94465,185.57666,5.83641a360.158,360.158,0,0,0,4.30082,37.78523c4.08557,25.00615,7.12677,11.91958,9.30774,24.20741,1.56673,8.72388,2.70372,14.77629,3.50245,18.83074,1.10549,5.71417,1.56673,7.55689,1.56673,7.55689l.95211-.42974Z"/><path class="cls-3" d="M501.35841,115.19387s-13.16833-43.07654-39.39117-26.26422-7.28863,46.93642-45.79165,39.64992-56.88423-11.6121-68.845,22.124-4.3991,49.35523-4.3991,49.35523,23.08271-17.16091,44.05443,4.8077,27.414-31.79914,53.65777-27.08007,32.68042-40.74522,53.70521-36.08379S501.35841,115.19387,501.35841,115.19387Z"/><path class="cls-4" d="M412.41768,532.30556c28.38485,1.01323,75.75419.98248,121.68018,1.59748-2.73409.55274-5.52968,1.044-8.356,1.50447a352.72482,352.72482,0,0,1-55.602,4.76169C448.17493,540.2307,427.56222,537.86523,412.41768,532.30556Z"/><path class="cls-4" d="M621.679,329.24889c-11.51984,36.61749-42.7614,41.99341-42.7614,41.99341s-7.3724,9.64637-5.40668,45.83336c-61.777,19.10824-183.21119-5.34442-185.57666-5.83641-2.73446-76.46069-3.9937-137.74609,9.76861-172.92059A101.77917,101.77917,0,0,1,439.4203,188.4916c16.097-10.10686,29.85934-13.08657,29.85934-13.08657,3.40945-.891,6.7889-1.62823,10.0761-2.181,25.1284-4.39269,46.8781.3075,65.18685,10.47586,3.5017,1.96572,7.15752,4.14669,10.90522,6.57365,3.01083,1.935,6.11354,4.0237,9.1855,6.26692,11.24309,15.329,46.97,49.36656,57.01533,87.88827C622.2325,305.07222,624.106,319.72552,621.679,329.24889Z"/><rect class="cls-5" x="371.51868" y="894.65819" width="362.7367" height="20.30575"/><path class="cls-6" d="M565.64654,693.06057l-1.68935,3.7477L553.328,720.24769l-32.90054,72.62074-.03075.03075-35.20451,77.72066H455.70145l7.864-171.01561-2.76446-6.54366-44.08288-43.56015c-29.15285-28.78459-39.93545-101.68208-28.8761-140.48054a113.04956,113.04956,0,0,1,3.8092-11.12084H513.946l11.79584,37.50847Z"/><polygon class="cls-3" points="455.712 870.619 485.203 870.619 520.411 894.643 456.449 894.643 455.712 870.619"/><path class="cls-7" d="M563.95719,696.80827,553.328,720.24769l-32.90054,72.62074-.03075.03075c18.3215-101.12334-78.5389-169.87339-53.17538-256.66218l10.99747-38.338Z"/><path class="cls-6" d="M641.04279,716.86539l0,0q-1.14582,3.38021-2.6205,6.63522l-66.66257,147.1192H542.26937l7.864-171.01561-2.76483-6.54366-44.11326-43.56015c-21.4422-21.1662-32.93129-80.33138-33.11542-109.33122a111.48076,111.48076,0,0,1,8.07889-42.27016H590.62194l2.51884,7.12715,1.65861,4.63868,45.88833,159.71421A72.3658,72.3658,0,0,1,641.04279,716.86539Z"/><polygon class="cls-3" points="542.265 870.619 571.756 870.619 606.964 894.643 543.003 894.643 542.265 870.619"/><path class="cls-2" d="M539.15881,110.3794s10.84534,31.63949,4.87031,59.58845c-3.04124,14.22576-34.12185-4.00194-50.59514-10.78257C475.15105,151.65977,484.5672,108.37236,539.15881,110.3794Z"/><path class="cls-3" d="M485.38556,107.123s2.80987-8.02817,14.85213-11.23945S516.294,90.66527,534.35744,87.454s33.71835,5.21831,20.07045,19.669-39.33807,21.67608-39.33807,21.67608.40141,34.52116-13.24649,38.13384-29.30285,0-29.30285-11.23945S464.91371,107.52444,485.38556,107.123Z"/><path class="cls-3" d="M590.62194,497.899H391.37447c-.09225-6.20542-.21487-12.34933-.33749-18.52324v-.3075H587.11949C588.68622,487.79218,589.82321,493.84459,590.62194,497.899Z"/><path class="cls-2" d="M741.54715,243.06059c.13885,29.95529-182.4315,111.24088-238.99655,61.74783-28.48342-24.92231-20.50731-51.74706,10.10736-77.954,10.30711-8.82317,22.88421-14.0414,63.10407-14.0414,24.99754,0,58.5384-1.05944,81.65342,1.18909,7.58868.7382,6.89668-14.18612,3.00341-20.74168C647.64854,171.75756,627.6204,135.325,623.67821,111.691H608.23278l2.1985,10.99217-19.89851,3.01563,1.49371-31.67977H641.35S741.28238,185.9409,741.54715,243.06059Z"/><path class="cls-2" d="M555.44781,190.27357c-58.45681-6.19866-95.95216,36.964-97.07377,36.0955-12.38121-9.58711-22.14869-23.77692-18.95374-37.87747,16.097-10.10686,29.85934-13.08657,29.85934-13.08657,3.40945-.891,6.7889-1.62823,10.0761-2.181,25.1284-4.39269,46.8781.3075,65.18685,10.47586C548.04429,185.66564,551.70011,187.84661,555.44781,190.27357Z"/></g></g></svg>