<svg xmlns="http://www.w3.org/2000/svg" viewBox="0 0 1000 1000"><defs><style>.cls-1{isolation:isolate;}.cls-2{fill:#fc4a5d;}.cls-3{fill:#4a285e;}.cls-4{fill:#93d4c3;}.cls-5{fill:#facc83;}.cls-6{fill:#b1b1ae;}.cls-7{fill:#231f20;opacity:0.25;mix-blend-mode:multiply;}</style></defs><g class="cls-1"><g id="Layer_1" data-name="Layer 1"><path class="cls-2" d="M563.90111,489.112a310.10081,310.10081,0,0,1-49.301,9.97814c-5.1917.59044-10.41376,1.08828-15.63581,1.42979a.39459.39459,0,0,1-.18669.03112c-.15482,0-.34151.03111-.49709.03111a307.91959,307.91959,0,0,1-51.35236-.83935.52943.52943,0,0,0-.21781-.03112,309.96658,309.96658,0,0,1-57.756-11.439c1.46166-6.80742,2.82921-13.73929,4.07231-20.70305.09334-.49708.18669-.99417.28-1.4609l60.3978,13.14963,22.62992,4.9109,21.23125-4.63163,61.79647-13.39778c.09334.46673.18669.9327.28,1.42978.06223.28.09335.56008.15558.83936,1.212,6.68371,2.5173,13.33555,3.91673,19.86369Q563.80777,488.69152,563.90111,489.112Z"/><polygon class="cls-3" points="609.216 904.453 548.787 904.453 548.787 879.15 581.239 879.15 609.216 904.453"/><path class="cls-4" d="M600.14586,680.25313l-.65266,7.02523L581.246,879.13443H548.7935c-20.32966-72.67695-16.444-126.36068-16.5685-191.85607v-.21781c-23.06478-24.46344-40.09925-83.46257-55.89064-121.85276-15.79063,38.39019-32.82586,97.38932-55.89064,121.85276v.21781c-.12446,65.49539,3.76116,119.17912-16.5685,191.85607H371.42274L353.17628,687.27836l-.65266-7.02523L364.67755,580.688a.24084.24084,0,0,1,.03111-.09334c.65267-2.05133,14.11268-44.016,24.24564-92.32208a309.96658,309.96658,0,0,0,57.756,11.439.52943.52943,0,0,1,.21781.03112,307.91959,307.91959,0,0,0,51.35236.83935c.15558,0,.34227-.03111.49709-.03111a.39459.39459,0,0,0,.18669-.03112c5.22205-.34151,10.44411-.83935,15.63581-1.42979a310.10081,310.10081,0,0,0,49.301-9.97814c10.1026,47.96383,23.40628,89.4314,24.05895,91.48273a.2366.2366,0,0,1,.03187.09334Z"/><path class="cls-5" d="M740.028,250.97c-50.9175,27.97644-143.61221,24.153-146.84516,26.39108,0,0,1.74094,46.16141-32.57694,109.04616-12.27915,22.47434-8.984,36.02694-1.24385,79.70141v.03112c.09334.46673.18669.9327.28,1.42978.06223.28.09335.56008.15558.83936,1.212,6.68371,2.5173,13.33555,3.91673,19.86369q.09334.41892.18669.83935a310.10081,310.10081,0,0,1-49.301,9.97814c-5.1917.59044-10.41376,1.08828-15.63581,1.42979a.39459.39459,0,0,1-.18669.03112c-.15482,0-.34151.03111-.49709.03111a307.91959,307.91959,0,0,1-51.35236-.83935.52943.52943,0,0,0-.21781-.03112,309.96658,309.96658,0,0,1-57.756-11.439c1.46166-6.80742,2.82921-13.73929,4.07231-20.70305.09334-.49708.18669-.99417.28-1.4609,7.74012-43.67447,11.0353-57.22707-1.24385-79.70141-34.31712-62.88475-32.57694-109.04616-32.57694-109.04616-3.23219-2.238-95.92766,1.58536-146.8444-26.39108-57.47676-31.582,45.57023-121.66606,108.23717-145.72576H368.998v42.524H348.29573c-16.8789-58.06643-87.2556,31.64424-74.51047,48.741,1.9891,3.3263,31.08492-8.54835,50.85451-8.54835,1.58536,0,3.17072,0,4.75608.06223,18.37092.24892,38.01681,2.238,49.36326,7.49119a44.00977,44.00977,0,0,0,35.24982.59119c.49785-.18669.96382-.4045,1.46166-.59119a162.81149,162.81149,0,0,1,39.16655-10.66191,30.11231,30.11231,0,0,0,43.39444,0,162.81718,162.81718,0,0,1,39.16731,10.66191c.49708.18669.963.4045,1.4609.59119a44.00977,44.00977,0,0,0,35.24982-.59119c11.34645-5.25317,30.99234-7.24227,49.36326-7.49119,1.58536-.06223,3.17072-.06223,4.75608-.06223,19.76959,0,48.86541,11.87465,50.85451,8.54835,12.74513-17.09671-57.63081-106.80738-74.51047-48.74095H583.6707v-42.524h48.1194C694.4578,129.30394,797.504,219.388,740.028,250.97Z"/><path class="cls-5" d="M476.64587,183.842c-.34189,0-.746.03112-1.18106.03112V183.842Z"/><path class="cls-5" d="M477.14333,183.842v.03112a2.51163,2.51163,0,0,1-.49746-.03112Z"/><path class="cls-4" d="M466.91644,183.7177c-1.36774,0-2.86-.03111-4.50735-.03111C464.05649,183.65547,465.57981,183.68659,466.91644,183.7177Z"/><path class="cls-4" d="M476.304,183.93532s-3.41926-.15558-9.38752-.21762c4.787.03112,7.55362.12427,7.55362.12427s5.56413-.24873,14.57884-.15538C480.99782,183.7177,476.304,183.93532,476.304,183.93532Z"/><rect class="cls-6" x="283.25476" y="904.45275" width="367.0508" height="20.54725"/><polygon class="cls-3" points="341.712 904.453 402.142 904.453 402.142 879.15 369.689 879.15 341.712 904.453"/><path class="cls-3" d="M563.90111,489.112a310.10081,310.10081,0,0,1-49.301,9.97814c-5.1917.59044-10.41376,1.08828-15.63581,1.42979a.39459.39459,0,0,1-.18669.03112c-.15482,0-.34151.03111-.49709.03111a307.91959,307.91959,0,0,1-51.35236-.83935.52943.52943,0,0,0-.21781-.03112,309.96658,309.96658,0,0,1-57.756-11.439c1.46166-6.80742,2.82921-13.73929,4.07231-20.70305a290.33881,290.33881,0,0,0,60.67783,11.68873,283.0217,283.0217,0,0,0,43.86117.27927,286.22609,286.22609,0,0,0,62.23208-11.12864c1.212,6.68371,2.5173,13.33555,3.91673,19.86369Q563.80777,488.69152,563.90111,489.112Z"/><path class="cls-5" d="M522.21065,149.70272c0,8.38193-6.26968,15.22173-14.04793,15.3222-4.99581,15.25509-17.23332,26.01757-31.51617,26.01757S450.09262,180.28,445.09682,165.02492c-7.77826-.134-14.04794-6.94027-14.04794-15.3222a15.619,15.619,0,0,1,6.73891-13.04214,13.488,13.488,0,0,1,7.309-2.31343,42.776,42.776,0,0,1,7.34258-13.5789c.8382.97243,16.36156,18.10507,36.44486,18.47382a102.27862,102.27862,0,0,0,26.35276-2.7493A15.614,15.614,0,0,1,522.21065,149.70272Z"/><path class="cls-3" d="M522.21065,134.34715a50.10087,50.10087,0,0,1-6.97363,2.14562,102.27862,102.27862,0,0,1-26.35276,2.7493c-20.0833-.36875-35.60666-17.50139-36.44486-18.47382a42.776,42.776,0,0,0-7.34258,13.5789,13.488,13.488,0,0,0-7.309,2.31343c-1.00579-19.71434,8.51618-48.01177,44.92727-48.01177S522.21065,134.34715,522.21065,134.34715Z"/><path class="cls-5" d="M551.96423,199.30725c-3.17073,20.23556-17.31452,53.09254-75.6921,53.09254-58.34647,0-72.52062-32.857-75.69134-53.06218a42.95885,42.95885,0,0,0,13.11775-3.10849c.09334-.03036.2178-.09259.31039-.12371.49785-.18669.96382-.4045,1.46166-.59119a162.81149,162.81149,0,0,1,39.16655-10.66191,30.11231,30.11231,0,0,0,43.39444,0,162.81718,162.81718,0,0,1,39.16731,10.66191c.49708.18669.963.4045,1.4609.59119.06223.03112.15557.06223.21781.09335A42.5672,42.5672,0,0,0,551.96423,199.30725Z"/><polygon class="cls-5" points="498.032 184.852 454.637 184.852 454.637 193.463 508.352 200.55 498.032 184.852"/><path class="cls-2" d="M560.60593,386.40724S530.32924,400.271,489.701,403.9388c-4.32123.4045-8.82839.68378-13.36667.80824-.31039,0-.65266-.03111-.96381-.03111-46.68887-1.55425-83.30776-18.30869-83.30776-18.30869-34.31712-62.88475-32.57694-109.04616-32.57694-109.04616,24.21528-51.88056,19.27326-81.84686,19.27326-81.84686a43.403,43.403,0,0,0,21.82168,3.82339c3.13885,20.11261,17.1893,52.72067,74.78976,53.06218h.96381c58.34647,0,72.58361-32.857,75.75433-53.06218a43.40153,43.40153,0,0,0,21.82092-3.82339s-4.942,29.9663,19.27326,81.84686C593.18287,277.36108,594.92381,323.52249,560.60593,386.40724Z"/><path class="cls-7" d="M476.89465,563.436a69.31741,69.31741,0,0,1-23.19909,15.14331,62.00466,62.00466,0,0,1-13.73243,3.78833,58.10795,58.10795,0,0,1-41.3562-8.99939,59.08237,59.08237,0,0,1-10.76233-9.12146,53.68852,53.68852,0,0,1-4.42956-5.40357,37.59747,37.59747,0,0,1-3.56909-5.95508,108.9031,108.9031,0,0,0,10.85339,7.98023,91.26692,91.26692,0,0,0,11.392,6.34045,71.58571,71.58571,0,0,0,24.26184,6.68885l1.55957.16235,1.56873.05774c1.0465.0216,2.09106.12536,3.141.07116l3.15173-.03967,3.15515-.23462a31.15079,31.15079,0,0,0,3.15833-.34131c1.04748-.17016,2.11816-.21594,3.16467-.43249,2.09363-.41626,4.22546-.72034,6.31409-1.28479C460.0083,569.91211,468.32727,566.79712,476.89465,563.436Z"/><path class="cls-7" d="M476.89453,563.436c8.56738,3.36108,16.88635,6.47607,25.32825,8.42,2.08862.56445,4.22046.86853,6.31409,1.28479,1.0465.21655,2.11718.26233,3.16467.43249a31.15028,31.15028,0,0,0,3.15832.34131l3.15528.23462,3.15161.03967c1.0498.0542,2.09448-.04956,3.14087-.07116l1.56884-.05774,1.55958-.16235a71.58642,71.58642,0,0,0,24.262-6.68885,91.28178,91.28178,0,0,0,11.39184-6.34045,108.88911,108.88911,0,0,0,10.85328-7.98023,37.5976,37.5976,0,0,1-3.56885,5.95508,53.724,53.724,0,0,1-4.42969,5.40357,59.08091,59.08091,0,0,1-10.76221,9.12146,58.10831,58.10831,0,0,1-41.35632,8.99939,62.00177,62.00177,0,0,1-13.7323-3.78833A69.31676,69.31676,0,0,1,476.89453,563.436Z"/><path class="cls-3" d="M512.55532,136.946s-15.463,47.71773-41.20136,47.71773-28.93884-49.86335-28.93884-49.86335l1.51128-29.59779H471.354Z"/><path class="cls-3" d="M481.17477,105.51648s-13.32495-43.58885-39.85966-26.57659-7.37531,47.49466-46.33626,40.12149-57.56076-11.75021-69.66382,22.38714-4.45142,49.94222-4.45142,49.94222,23.35724-17.365,44.57837,4.86488,27.74-32.17733,54.29594-27.40214,33.06909-41.22981,54.34393-36.51294S481.17477,105.51648,481.17477,105.51648Z"/></g></g></svg>