<svg xmlns="http://www.w3.org/2000/svg" viewBox="0 0 1000 1000"><defs><style>.cls-1{isolation:isolate;}.cls-2{fill:#93d4c3;}.cls-3{fill:#4a285e;}.cls-4,.cls-5{fill:#facc83;}.cls-5,.cls-8{mix-blend-mode:multiply;}.cls-6{fill:#b1b1ae;}.cls-7{fill:#fc4a5d;}.cls-8{opacity:0.25;}.cls-9{fill:#231f20;}</style></defs><g class="cls-1"><g id="Layer_1" data-name="Layer 1"><path class="cls-2" d="M634.28692,677.64173l-1.33682,9.63663L606.31048,879.13443H573.85762c-24.21527-60.14964-22.0391-104.04116-19.05469-183.36995l-3.979-8.48612L500.52839,564.36844,450.23281,687.27836l-3.979,8.48612c2.98441,79.32879,5.16059,123.22031-19.05469,183.36995H394.74668l-26.64-191.85607-1.33644-9.63663s14.54754-142.43059,21.66611-176.0958c.15519-.56008.24854-1.1194.37262-1.61648.5597-2.42472,1.15051-4.94278,1.70982-7.49195.24892-1.11864.52858-2.26914.77713-3.41889.06223-.31115.15557-.62155.2178-.9327.59043-2.73511,1.14975-5.40875,1.64759-8.05051v-.03187c.99456-5.06648,1.77168-9.947,2.42434-14.672l104.94274-3.91673,104.94274,3.91673c.653,4.725,1.43017,9.60552,2.42434,14.672v.03187c.49784,2.64176,1.05716,5.3154,1.64759,8.05051.06223.31115.15557.62155.21781.9327q.18669.839.373,1.67871c.71489,3.17,1.43016,6.2481,2.11394,9.23213.12408.49708.21743,1.0564.37263,1.61648C619.739,535.21114,634.28692,677.64173,634.28692,677.64173Z"/><path class="cls-3" d="M498.0885,105.51648s-13.32495-43.58885-39.85966-26.57659-7.37532,47.49466-46.33626,40.12149-57.56077-11.75021-69.66383,22.38714-4.45142,49.94222-4.45142,49.94222,23.35724-17.365,44.57837,4.86488,27.74-32.17733,54.29594-27.40214,33.06909-41.22981,54.34393-36.51294S498.0885,105.51648,498.0885,105.51648Z"/><polygon class="cls-3" points="634.281 904.453 573.852 904.453 573.852 879.15 606.305 879.15 634.281 904.453"/><polygon class="cls-3" points="366.764 904.453 427.194 904.453 427.194 879.15 394.741 879.15 366.764 904.453"/><path class="cls-4" d="M772.273,220.00954c0,1.55425-.03112,3.07738-.12446,4.60051,0,53.27923-128.56721,60.36744-151.78794,62.66694a13.3899,13.3899,0,0,0-3.57446.56007c-4.63162,8.20609,7.21191,60.36668-4.53828,81.69052-8.984,16.28923-13.36667,27.04449-14.85868,37.02263-2.79772,18.06052.44388,30.86733,9.26324,58.78132,1.39881,4.42734,1.39867,9.35659,2.33137,14.26826.03112.15557.06223.27927.09335.43561.49708,2.64176,1.05678,5.3154,1.64759,8.05051-.15558.90158-.37338,1.772-.59081,2.61141-.12408.55931-.27966,1.08751-.43524,1.64759-37.27079,17.00336-72.61434,25.42726-107.989,25.33391h-3.41926c-35.31243.09335-70.59413-8.29943-107.77158-25.24132-.06223-.03036-.15557-.06224-.2178-.09259-.40374-1.39943-.746-2.7981-1.02529-4.259.59043-2.73511,1.14975-5.40875,1.64721-8.05051.06223-.24892.09335-.529.1552-.77712.9327-4.7872.33135-9.8436,2.26952-13.92675,15.72892-33.13626,12.061-40.7208,9.26324-58.78132-1.492-9.97814-5.87509-20.7334-14.8583-37.02263-11.75019-21.32384.093-73.48443-4.53866-81.69052a13.395,13.395,0,0,0-3.57484-.56007c-23.22035-2.2995-151.78756-9.38771-151.78756-62.66694-.09334-1.52313-.12446-3.04626-.12446-4.60051,0-63.78633,67.60971-108.54832,128.81613-132.0487h48.11941v38.04791H383.95992s-6.83891-17.34563-15.66655-17.34563c-26.36033,0-69.47511,55.17575-57.84938,74.54159,1.492,2.487,63.66187,4.10343,92.32208,3.48188l25.33467-3.73a150.43579,150.43579,0,0,1,25.45837-4.19677c.77713-.06223,1.55425-.12446,2.30026-.18669,21.44867-1.55425,38.51427-1.08752,41.84019-.99493h4.6005c3.3263-.09259,20.3919-.55932,41.84057.99493.746.06223,1.52313.12446,2.30026.18669a150.45346,150.45346,0,0,1,25.45875,4.19677l25.33391,3.73c28.66021.62155,90.83006-.99493,92.32208-3.48188,11.62573-19.36584-31.48867-74.54159-57.84862-74.54159-8.8284,0-15.66693,17.34563-15.66693,17.34563H595.33741V87.96084h48.11941C704.66324,111.46122,772.273,156.22321,772.273,220.00954Z"/><path class="cls-5" d="M542.9537,178.2044a55.86388,55.86388,0,0,1-81.06935-.21761c22.10134-1.42979,38.63854-.746,38.63854-.746A412.00861,412.00861,0,0,1,542.9537,178.2044Z"/><path class="cls-2" d="M492.96928,165.06675c-1.36775,0-2.86-.03112-4.50736-.03112C490.10933,165.00452,491.63265,165.03563,492.96928,165.06675Z"/><path class="cls-2" d="M502.35679,165.28436s-3.41926-.15557-9.38751-.21761c4.787.03111,7.55361.12427,7.55361.12427s5.56413-.24873,14.57884-.15539C507.05065,165.06675,502.35679,165.28436,502.35679,165.28436Z"/><path class="cls-4" d="M542.17148,146.159c0,8.38194-6.26967,15.22174-14.04793,15.32221-4.99581,15.25509-17.23331,26.01757-31.51617,26.01757s-26.55392-10.76248-31.54973-26.01757c-7.77826-.134-14.04793-6.94027-14.04793-15.32221a15.619,15.619,0,0,1,6.73891-13.04214,13.488,13.488,0,0,1,7.309-2.31342,42.77624,42.77624,0,0,1,7.34259-13.5789c.83819.97243,16.36156,18.10507,36.44485,18.47382a102.27916,102.27916,0,0,0,26.35277-2.7493A15.614,15.614,0,0,1,542.17148,146.159Z"/><path class="cls-3" d="M542.17148,130.80347a50.101,50.101,0,0,1-6.97362,2.14562,102.27916,102.27916,0,0,1-26.35277,2.7493c-20.08329-.36875-35.60666-17.50139-36.44485-18.47382a42.77624,42.77624,0,0,0-7.34259,13.5789,13.488,13.488,0,0,0-7.309,2.31342c-1.0058-19.71433,8.51618-48.01176,44.92727-48.01176S542.17148,130.80347,542.17148,130.80347Z"/><rect class="cls-6" x="311.12267" y="904.45275" width="367.0508" height="20.54725"/><path class="cls-4" d="M501.11905,537.60407h-1.18124s.21761-.12446.59062-.34188C500.90143,537.47961,501.11905,537.60407,501.11905,537.60407Z"/><path class="cls-3" d="M612.62044,501.54593a343.991,343.991,0,0,1-224.18409,0c.15519-.56008.24854-1.1194.37262-1.61648.5597-2.42472,1.15051-4.94278,1.70982-7.49195-.06223-.03036-.15557-.06224-.2178-.09259-.40374-1.39943-.746-2.7981-1.02529-4.259.59043-2.73511,1.14975-5.40875,1.64721-8.05051.06223-.24892.09335-.529.1552-.77712.68416.24816,1.36793.49708,2.0832.74525a322.92133,322.92133,0,0,0,214.73416,0c.37338-.12447.71527-.24817,1.08827-.40374.03112.15557.06223.27927.09335.43561.49708,2.64176,1.05678,5.3154,1.64759,8.05051-.15558.90158-.37338,1.772-.59081,2.61141.71489,3.17,1.43016,6.2481,2.11394,9.23213C612.37189,500.42653,612.46524,500.98585,612.62044,501.54593Z"/><path class="cls-4" d="M499.93773,537.60407H501.119s-.21761-.12446-.59062-.34188C500.15535,537.47961,499.93773,537.60407,499.93773,537.60407Z"/><path class="cls-7" d="M612.24781,369.52758c-8.984,16.28923-13.36667,27.04449-14.85868,37.02263-19.98778-2.11356-56.20179-5.12871-84.08488-2.61141-4.32047.4045-8.76616.68378-13.30444.80824-4.53828-.12446-8.98321-.40374-13.30444-.80824-27.88309-2.5173-64.09672.49785-84.0845,2.61141-1.492-9.97814-5.87509-20.7334-14.8583-37.02263-11.75019-21.32384.093-73.48443-4.53866-81.69052,0-.5282,18.8995-79.04951,19.55216-101.15047l25.33467-3.73c7.3045,27.57194,25.83138,69.44324,71.89907,69.44324,46.06807,0,64.59457-41.8713,71.89983-69.44324l25.33391,3.73c.65266,22.101,19.55254,100.62227,19.55254,101.15047C612.15447,296.04315,623.998,348.20374,612.24781,369.52758Z"/><g class="cls-8"><path class="cls-9" d="M597.83325,325.83623a62.96654,62.96654,0,0,1-8.07666,11.43073,72.62164,72.62164,0,0,1-10.33789,9.68909,62.4807,62.4807,0,0,1-12.38135,7.29791,54.65372,54.65372,0,0,1-14.0039,4.0332,53.38107,53.38107,0,0,1-14.67432.20551c-.60937-.06879-1.22461-.1128-1.83008-.20362l-1.80615-.32769c-1.19922-.23609-2.42236-.40345-3.59961-.72309a70.4269,70.4269,0,0,1-7.00488-2.09906,93.64044,93.64044,0,0,1-25.19092-13.9461H503.762l-5.8501,4.15014c-2.04834,1.25672-4.05273,2.57678-6.14062,3.77344a84.72871,84.72871,0,0,1-13.19678,6.03107,70.48394,70.48394,0,0,1-7.00586,2.09863c-1.17822.31677-2.40039.4906-3.60009.72583l-1.80616.32751c-.606.09076-1.22119.13471-1.83056.20343-1.22315.10907-2.437.28534-3.66407.33283l-3.6831.07745a58.0332,58.0332,0,0,1-7.32959-.61554,54.67081,54.67081,0,0,1-14.00733-4.03235,62.68479,62.68479,0,0,1-12.38281-7.30072,72.755,72.755,0,0,1-10.33642-9.69335,62.899,62.899,0,0,1-8.07178-11.43525,67.39082,67.39082,0,0,0,4.63281,5.15125c1.59766,1.65417,3.27686,3.22131,5.00635,4.715a76.95018,76.95018,0,0,0,10.97607,8.01263,56.77957,56.77957,0,0,0,24.91748,8.33545,50.756,50.756,0,0,0,12.9834-.53571c.53613-.08654,1.07471-.14666,1.60742-.25323l1.59082-.37238c1.05567-.27111,2.12989-.435,3.17286-.76312a62.94483,62.94483,0,0,0,6.209-2.09924,81.5163,81.5163,0,0,0,11.88037-5.76044c1.90918-1.12543,3.76514-2.36182,5.65234-3.5329l5.44141-3.91107,2.49072-1.78992,2.34473,1.78992a94.65106,94.65106,0,0,0,22.9707,13.213,63.02772,63.02772,0,0,0,6.21045,2.09882c1.04346.32519,2.1167.4956,3.17285.76587l1.59082.37219c.53321.10651,1.07178.16656,1.60791.253a50.66864,50.66864,0,0,0,12.98584.536,56.75445,56.75445,0,0,0,24.92286-8.33746A77.13591,77.13591,0,0,0,588.198,335.707c1.729-1.49444,3.40722-3.06286,5.00439-4.71716A67.3178,67.3178,0,0,0,597.83325,325.83623Z"/></g></g></g></svg>