<svg xmlns="http://www.w3.org/2000/svg" viewBox="0 0 1000 1000"><defs><style>.cls-1{isolation:isolate;}.cls-2{fill:#4a285e;}.cls-3,.cls-8{fill:#facc83;}.cls-4,.cls-6,.cls-9{fill:#93d4c3;}.cls-5{fill:#b1b1ae;}.cls-6,.cls-8,.cls-9{mix-blend-mode:multiply;}.cls-7{fill:#fc4a5d;}.cls-9{opacity:0.7;}</style></defs><g class="cls-1"><g id="Layer_1" data-name="Layer 1"><path class="cls-2" d="M516.56865,105.15781s-13.16834-43.07653-39.39117-26.26422-7.28863,46.93643-45.79165,39.64992-56.88423-11.6121-68.845,22.124-4.3991,49.35522-4.3991,49.35522,23.08271-17.16091,44.05442,4.80771,27.414-31.79915,53.65778-27.08008,32.68041-40.74522,53.7052-36.08379S516.56865,105.15781,516.56865,105.15781Z"/><path class="cls-3" d="M496.66293,335.21442s-10.506,18.61606-51.94671,32.962c-1.0138.33787-2.11966.70649-3.34852,1.13661-11.21253,3.65564-31.48756,9.46168-50.34923,14.49955q-3.68629,1.01389-7.28053,1.93535c-18.43174,4.823-34.03733,8.47863-36.09549,8.01795,1.65879,1.44373,47.0009,42.14716,65.4019,75.93869l15.91271-5.49873-6.17466-10.5368,19.41479-10.22967,9.7688,33.1771-50.8101,17.60226s-137.99227-64.726-158.39011-123.554c-16.28133-47.00091,25.58946-81.03824,70.77783-103.49424,38.33815-19.10767,79.1029-29.92084,88.964-33.33066a80.09324,80.09324,0,0,1,16.865-3.8707.04259.04259,0,0,1,.0615,0,98.88512,98.88512,0,0,1,41.59423,3.90126C500.41082,246.15823,515.494,295.55535,496.66293,335.21442Z"/><path class="cls-4" d="M684.20607,716.44424a192.44831,192.44831,0,0,1-17.6945,57.23057L614.01173,880.64038H584.521l-6.54328-152.27694L452.734,559.52861,659.876,538.67009,682.42428,651.3802A192.24789,192.24789,0,0,1,684.20607,716.44424Z"/><polygon class="cls-4" points="404.219 538.655 476.15 728.364 499.012 880.655 528.503 880.655 578.227 734.082 561.789 548.539 404.219 538.655"/><polygon class="cls-2" points="584.528 880.655 614.019 880.655 649.227 904.679 585.266 904.679 584.528 880.655"/><polygon class="cls-2" points="499.012 880.655 528.503 880.655 563.711 904.679 499.749 904.679 499.012 880.655"/><rect class="cls-5" x="394.16354" y="904.69425" width="362.7367" height="20.30575"/><polygon class="cls-6" points="528.489 880.656 552.275 728.256 491.226 575.856 577.978 728.379 528.489 880.656"/><path class="cls-7" d="M659.07748,571.04845c-38.461,45.9258-214.63782,33.88378-246.89337-14.22318C379.898,508.68776,394.18249,292.637,414.42677,240.81305c20.21353-51.79315,71.57656-62.91362,71.57656-62.91362,3.40983-.8908,6.78909-1.62823,10.07611-2.18116,25.12859-4.39288,46.87791.30731,65.18684,10.47548,16.65,9.24662,30.50451,23.00893,41.50217,38.64509a184.181,184.181,0,0,1,19.50686,35.78837,179.72882,179.72882,0,0,1,10.01461,32.56267c.52218,2.45772.9523,4.8845,1.32092,7.25,6.0826,39.78169-8.44789,57.75275-10.99766,60.5174-.24562.27656-.36862.39937-.36862.39937a4.74392,4.74392,0,0,0,.39937.33806c1.106,1.01361,4.48512,4.11632,9.15456,9.03156,11.51984,12.13408,30.84238,35.29676,42.66934,64.32679C692.77676,479.99559,697.53826,525.09209,659.07748,571.04845Z"/><path class="cls-3" d="M561.41984,188.559c0,13.701-15.75915,24.82147-35.20451,24.82147-19.44554,0-35.20469-11.12047-35.20469-24.82147a17.56583,17.56583,0,0,1,1.07511-6.05167,21.02373,21.02373,0,0,1,3.99369-6.78909c24.20685-4.23931,45.24987-.03075,63.12868,9.36943.70649.36881,1.38242.73743,2.05816,1.106A20.363,20.363,0,0,1,561.41984,188.559Z"/><path class="cls-8" d="M559.20812,185.0877c-5.0073,9.43093-17.87881,16.12778-32.99279,16.12778-16.46583,0-30.25889-7.95627-34.12958-18.70812a21.02373,21.02373,0,0,1,3.99369-6.78909C520.28629,171.479,541.32931,175.68752,559.20812,185.0877Z"/><path class="cls-3" d="M562.32651,123.18022s20.87326,26.724,5.61973,50.89374S511.749,197.03945,509.742,177.37042,507.73491,121.17318,562.32651,123.18022Z"/><path class="cls-2" d="M501.31237,117.15909s2.80986-8.02818,14.85212-11.23945,16.05636-5.21831,34.11976-8.42958,33.71834,5.21831,20.07044,19.669-39.33807,21.67608-39.33807,21.67608.40141,34.52116-13.24649,38.13384-29.30285,0-29.30285-11.23945S480.84052,117.5605,501.31237,117.15909Z"/><path class="cls-9" d="M622.61318,360.95725c-9.89162.33806-18.401.61443-19.01524.82949,0,0-139.58974,31.11894-133.96819-84.47882,4.1165-57.63,75.57026-70.50146,133.1387-52.46908a184.181,184.181,0,0,1,19.50686,35.78837,179.72882,179.72882,0,0,1,10.01461,32.56267c.52218,2.45772.9523,4.8845,1.32092,7.25C639.69344,340.22154,625.163,358.1926,622.61318,360.95725Z"/><path class="cls-3" d="M760.82069,274.60458c0,49.735-50.6873,68.19749-100.76035,74.618-42.485,5.49874-84.54013,2.36528-94.95411,2.36528-31.64112,0-55.29523-19.169-55.29523-19.169-33.1771-24.51416-31.2725-76.123-.49143-107.457,0,0,16.03552-14.13111,59.87241-14.13111,10.69035,0,34.25221,1.25961,55.84816,2.82633,22.14869,1.5973,42.23941,3.53264,44.26682,4.79225-1.10586-1.9046-30.62732-55.23392-36.95554-93.17251H615.517l2.39622,11.9807-21.688,3.28683,1.628-34.52876h53.75925S760.82069,212.33614,760.82069,274.60458Z"/></g></g></svg>