<svg xmlns="http://www.w3.org/2000/svg" viewBox="0 0 1000 1000"><defs><style>.cls-1{isolation:isolate;}.cls-2{fill:#facc83;}.cls-3,.cls-4{fill:#93d4c3;}.cls-4{mix-blend-mode:multiply;}.cls-5{fill:#4a285e;}.cls-6{fill:#b1b1ae;}.cls-7{fill:#fc4a5d;}</style></defs><g class="cls-1"><g id="Layer_1" data-name="Layer 1"><path class="cls-2" d="M284.19021,334.2202c-13.15036-21.28907,81.55431-158.76757,143.43292-148.13832,31.15908,5.35237,37.16182,27.9459,26.76058,59.96265-3.50181,10.77916-10.19212,19.978-38.85738,37.50167-17.81609,10.89133-41.25954,26.26-58.71362,34.72857-5.73018,2.78023,1.26547,13.1155,6.8965,16.09145,18.47028,9.76141,48.61812,27.00122,61.725,42.1279l11.00817-6.7295-6.35614-6.8764,12.86805-10.819,12.73815,23.22942-35.15356,21.49S309.26572,374.81484,284.19021,334.2202Z"/><path class="cls-2" d="M556.77878,479.46729c9.52262,27.83212-30.53507,65.61734-57.1387,74.12672-10.04461,3.22571-18.18575,4.91468-21.01171,4.91468-3.90144,0-18.524-6.48141-35.20526-14.65329-27.49386-13.51631-60.63965-50.07231-60.63965-51.45529,0-.61424,2.58-5.77492,6.29691-12.93282.0615-.123.15375-.276.21525-.399h-18.278s2.15022-6.81966,5.77492-18.43174c5.59117-18.03275,14.6533-29.27585,24.33041-62.88288.4605-1.68972.95174-3.37945,1.44373-5.06918.03075-.153.09225-.276.123-.42974a212.3396,212.3396,0,0,0,6.35841-30.22833c3.65545-25.52814,3.5332-51.54753,3.41021-76.61443-.09225-22.24094-.1845-43.74464,2.39621-63.46712,2.21172-17.04876,7.89439-28.20035,14.4688-35.542a40.96789,40.96789,0,0,1,29.64409-13.94681l70.80876,12.87132s32.90054,25.19065,35.85025,69.42654c3.77845,56.46221-44.23663,56.7697-44.23663,56.7697-6.11317,3.96295,1.659,37.41623,15.60578,87.88828.03075,5.89867,4.20819,26.11164,13.91606,61.22465,1.71972,6.32841,3.65544,12.53382,5.74417,18.43174Z"/><path class="cls-3" d="M534.23035,659.45354l-4.51569,15.23678-.03075.09225-6.94265,23.37718L471.655,870.58909H442.16388l5.31443-195.80652-1.01324-1.35148-29.39884-59.99541-5.83717-2.91821c-36.89348-18.46249-54.189-92.15872-40.33444-131.05018a1.98261,1.98261,0,0,1,.123-.399H480.74784l.15375.399,6.57366,18.43175,12.16483,55.695Z"/><path class="cls-3" d="M534.23035,659.45354l-4.51569,15.23678-.03075.09225-6.94265,23.37718-12.16483,41.07242L471.655,870.58909H442.16388l5.31443-195.80652-1.01324-1.35148-29.39884-59.99541-5.83717-2.91821c-36.89348-18.46249-54.189-92.15872-40.33444-131.05018a1.98261,1.98261,0,0,1,.123-.399H480.74784l.15375.399,6.57366,18.43175,12.16483,55.695Z"/><path class="cls-4" d="M534.23035,659.45354l-4.51569,15.23678-.03075.09225-6.94265,23.37718-12.16483,41.07242,1.10623-41.07242v-.03l.645-23.34718-1.014-1.35148L483.48061,624.2705s-40.17748-14.15263-40.0575-80.4151c.029-15.999,37.32473-64.7871,37.32473-64.7871l.15375.399,6.57366,18.43175,12.16483,55.695Z"/><path class="cls-3" d="M610.13829,659.45354l-4.51569,15.23678-.03075.09225L547.56291,870.58909H518.07182l4.66944-172.42934v-.03l.64574-23.34718-1.014-1.35148-29.39884-59.99541-5.83642-2.91821c-23.59317-11.79659-39.16745-38.67621-43.71464-66.66207-2.58-15.78953-1.62747-50.3798,3.37946-64.38811a1.98261,1.98261,0,0,1,.123-.399H556.65579l.123.399h.03075l6.57366,18.43175Z"/><polygon class="cls-5" points="442.242 870.619 471.733 870.619 506.941 894.643 442.979 894.643 442.242 870.619"/><polygon class="cls-5" points="517.444 870.619 546.934 870.619 582.142 894.643 518.181 894.643 517.444 870.619"/><rect class="cls-6" x="354.30956" y="894.65819" width="362.7367" height="20.30575"/><path class="cls-5" d="M493.30448,115.19387S480.13614,72.11733,453.9133,88.92965s-7.28862,46.93642-45.79164,39.64992-56.88423-11.6121-68.845,22.124-4.3991,49.35523-4.3991,49.35523,23.08271-17.16091,44.05442,4.8077,27.414-31.79914,53.65778-27.08007,32.68041-40.74522,53.7052-36.08379S493.30448,115.19387,493.30448,115.19387Z"/><path class="cls-2" d="M531.10487,110.3794s10.84535,31.63949,4.87032,59.58845c-3.04124,14.22576-34.12185-4.00194-50.59514-10.78257C467.09711,151.65977,476.51327,108.37236,531.10487,110.3794Z"/><path class="cls-5" d="M477.33163,107.123s2.80986-8.02817,14.85213-11.23945,16.05635-5.21831,34.11975-8.42958,33.71834,5.21831,20.07044,19.669-39.33806,21.67608-39.33806,21.67608.4014,34.52116-13.2465,38.13384-29.30284,0-29.30284-11.23945S456.85978,107.52444,477.33163,107.123Z"/><path class="cls-7" d="M521.39552,311.53858c-6.11316,3.96295,1.659,37.417,15.60578,87.85828-42.42391,8.14038-88.07277,6.51291-135.8726-1.629.46049-1.689.95248-3.37795,1.44373-5.09843.03075-.123.09225-.246.123-.40049a212.26641,212.26641,0,0,0,6.35916-30.22758c3.65545-25.55815,3.53245-51.57828,3.40945-76.61443-.09225-22.24019-.1845-43.74389,2.39622-63.49712,1.62822-12.47233,5.09917-21.81119,9.43111-28.7846a49.83242,49.83242,0,0,1,5.03768-6.7274A40.96546,40.96546,0,0,1,458.97389,172.471l70.808,12.84132a74.99423,74.99423,0,0,1,7.37315,6.81891s.03075.0315.0615.0615a2.0976,2.0976,0,0,0,.55274.615c9.95311,10.53585,25.86564,31.82505,27.86286,61.96113C569.4106,311.20109,521.39552,311.53858,521.39552,311.53858Z"/><path class="cls-2" d="M537.76929,192.80774c-62.63687-7.83289-92.09721,34.651-93.2957,33.54553-9.58411-8.75538-17.7245-20.58271-20.18222-33.208a49.83242,49.83242,0,0,1,5.03768-6.7274A40.96546,40.96546,0,0,1,458.97389,172.471l70.808,12.84132a74.99423,74.99423,0,0,1,7.37315,6.81891s.03075.0315.0615.0615A2.0976,2.0976,0,0,0,537.76929,192.80774Z"/><path class="cls-2" d="M696.19331,221.45918c.116,25.02284-152.39223,92.9239-199.64325,51.5804-23.79332-20.81859-17.13056-43.22637,8.44308-65.11807,8.60994-7.37034,19.11608-11.72934,52.71332-11.72934,20.88143,0,48.89943-.885,68.20832.9933,6.33913.61664,5.76108-11.85022,2.50887-17.32634C617.7561,161.897,601.0258,131.4634,597.73273,111.721H584.83056l1.8365,9.18219-16.622,2.51908,1.24776-26.46336h41.20188S695.97214,173.74485,696.19331,221.45918Z"/><path class="cls-5" d="M556.77878,479.46729H370.89462a1.98261,1.98261,0,0,1,.123-.399s2.15022-6.81966,5.77492-18.43174H550.91162c1.71972,6.32841,3.65544,12.53382,5.74417,18.43174Z"/></g></g></svg>