<svg xmlns="http://www.w3.org/2000/svg" viewBox="0 0 1000 1000"><defs><style>.cls-1{isolation:isolate;}.cls-2{fill:#4a285e;}.cls-3{fill:#fc4a5d;}.cls-4{fill:#93d4c3;}.cls-5,.cls-8{fill:#facc83;}.cls-6{fill:#b1b1ae;}.cls-7{opacity:0.5;}.cls-8{opacity:0.8;}.cls-8,.cls-9{mix-blend-mode:multiply;}.cls-9{opacity:0.25;}.cls-10{fill:#231f20;}</style></defs><g class="cls-1"><g id="Layer_1" data-name="Layer 1"><path class="cls-2" d="M504.84018,105.51648s-13.32495-43.58885-39.85966-26.57659-7.37531,47.49466-46.33626,40.12149-57.56076-11.75021-69.66382,22.38714-4.45142,49.94222-4.45142,49.94222,23.35724-17.365,44.57837,4.86488,27.74-32.17733,54.29594-27.40214,33.06909-41.22981,54.34393-36.51294S504.84018,105.51648,504.84018,105.51648Z"/><path class="cls-3" d="M587.56652,489.112a310.10081,310.10081,0,0,1-49.301,9.97814c-5.1917.59044-10.41376,1.08828-15.63581,1.42979a.39459.39459,0,0,1-.18669.03112c-.15482,0-.34151.03111-.49709.03111a307.91959,307.91959,0,0,1-51.35236-.83935.52941.52941,0,0,0-.2178-.03112,309.96652,309.96652,0,0,1-57.756-11.439c1.46166-6.80742,2.82922-13.73929,4.07231-20.70305.09334-.49708.18669-.99417.28-1.4609l60.39779,13.14963,22.62992,4.9109,21.23125-4.63163,61.79647-13.39778c.09334.46673.18669.9327.28,1.42978.06224.28.09335.56008.15558.83936,1.212,6.68371,2.5173,13.33555,3.91673,19.86369Q587.47318,488.69152,587.56652,489.112Z"/><polygon class="cls-2" points="632.881 904.453 572.452 904.453 572.452 879.15 604.905 879.15 632.881 904.453"/><path class="cls-4" d="M623.81127,680.25313l-.65266,7.02523L604.9114,879.13443H572.45892c-20.32967-72.67695-16.44405-126.36068-16.56851-191.85607v-.21781c-23.06477-24.46344-40.09925-83.46257-55.89064-121.85276-15.79062,38.39019-32.82586,97.38932-55.89063,121.85276v.21781c-.12447,65.49539,3.76115,119.17912-16.56851,191.85607H395.08815L376.84169,687.27836l-.65266-7.02523L388.343,580.688a.24078.24078,0,0,1,.03112-.09334c.65266-2.05133,14.11267-44.016,24.24563-92.32208a309.96652,309.96652,0,0,0,57.756,11.439.52941.52941,0,0,1,.2178.03112,307.91959,307.91959,0,0,0,51.35236.83935c.15558,0,.34227-.03111.49709-.03111a.39459.39459,0,0,0,.18669-.03112c5.222-.34151,10.44411-.83935,15.63581-1.42979a310.10081,310.10081,0,0,0,49.301-9.97814c10.1026,47.96383,23.40628,89.4314,24.05895,91.48273a.2366.2366,0,0,1,.03187.09334Z"/><path class="cls-5" d="M763.69344,250.97c-50.9175,27.97644-143.61221,24.153-146.84516,26.39108,0,0,1.74094,46.16141-32.57694,109.04616-12.27915,22.47434-8.984,36.02694-1.24385,79.70141v.03112c.09334.46673.18669.9327.28,1.42978.06224.28.09335.56008.15558.83936,1.212,6.68371,2.5173,13.33555,3.91673,19.86369q.09334.41892.18669.83935a310.10081,310.10081,0,0,1-49.301,9.97814c-5.1917.59044-10.41376,1.08828-15.63581,1.42979a.39459.39459,0,0,1-.18669.03112c-.15482,0-.34151.03111-.49709.03111a307.91959,307.91959,0,0,1-51.35236-.83935.52941.52941,0,0,0-.2178-.03112,309.96652,309.96652,0,0,1-57.756-11.439c1.46166-6.80742,2.82922-13.73929,4.07231-20.70305.09334-.49708.18669-.99417.28-1.4609,7.74011-43.67447,11.0353-57.22707-1.24386-79.70141-34.31712-62.88475-32.57694-109.04616-32.57694-109.04616-3.23219-2.238-95.92765,1.58536-146.8444-26.39108C178.83011,219.388,281.87709,129.30394,344.544,105.24424h48.1194v42.524H371.96114c-16.8789-58.06643-87.2556,31.64424-74.51047,48.741,1.9891,3.3263,31.08492-8.54835,50.85451-8.54835,1.58536,0,3.17072,0,4.75609.06223,18.37091.24892,38.0168,2.238,49.36325,7.49119a44.00977,44.00977,0,0,0,35.24982.59119c.49785-.18669.96382-.4045,1.46166-.59119a162.81149,162.81149,0,0,1,39.16655-10.66191,30.11231,30.11231,0,0,0,43.39444,0,162.81718,162.81718,0,0,1,39.16731,10.66191c.49708.18669.96306.4045,1.4609.59119a44.00977,44.00977,0,0,0,35.24982-.59119c11.34645-5.25317,30.99234-7.24227,49.36326-7.49119,1.58536-.06223,3.17072-.06223,4.75608-.06223,19.76959,0,48.86541,11.87465,50.85451,8.54835C715.294,179.41244,644.91806,89.70177,628.0384,147.7682H607.33611v-42.524h48.11941C718.12321,129.30394,821.16944,219.388,763.69344,250.97Z"/><path class="cls-5" d="M500.31128,183.842c-.34189,0-.746.03112-1.18106.03112V183.842Z"/><path class="cls-5" d="M500.80874,183.842v.03112a2.51163,2.51163,0,0,1-.49746-.03112Z"/><path class="cls-4" d="M490.58185,183.7177c-1.36774,0-2.85995-.03111-4.50735-.03111C487.7219,183.65547,489.24523,183.68659,490.58185,183.7177Z"/><path class="cls-4" d="M499.96937,183.93532s-3.41926-.15558-9.38752-.21762c4.787.03112,7.55362.12427,7.55362.12427s5.56413-.24873,14.57884-.15538C504.66323,183.7177,499.96937,183.93532,499.96937,183.93532Z"/><rect class="cls-6" x="306.92017" y="904.45275" width="367.0508" height="20.54725"/><polygon class="cls-2" points="365.378 904.453 425.807 904.453 425.807 879.15 393.354 879.15 365.378 904.453"/><path class="cls-2" d="M587.56652,489.112a310.10081,310.10081,0,0,1-49.301,9.97814c-5.1917.59044-10.41376,1.08828-15.63581,1.42979a.39459.39459,0,0,1-.18669.03112c-.15482,0-.34151.03111-.49709.03111a307.91959,307.91959,0,0,1-51.35236-.83935.52941.52941,0,0,0-.2178-.03112,309.96652,309.96652,0,0,1-57.756-11.439c1.46166-6.80742,2.82922-13.73929,4.07231-20.70305a290.33893,290.33893,0,0,0,60.67783,11.68873,283.02171,283.02171,0,0,0,43.86117.27927,286.22609,286.22609,0,0,0,62.23208-11.12864c1.212,6.68371,2.5173,13.33555,3.91673,19.86369Q587.47318,488.69152,587.56652,489.112Z"/><g class="cls-7"><path class="cls-8" d="M527.43848,397.08822v3.55283a12.10731,12.10731,0,0,1-12.10233,12.10271H514.0037a12.10731,12.10731,0,0,1-12.10233-12.10271v-3.55283h-3.8029v3.55283a12.1073,12.1073,0,0,1-12.10232,12.10271h-1.33246a12.10731,12.10731,0,0,1-12.10233-12.10271v-3.55283h-3.775v8.77147a12.0464,12.0464,0,0,0,5.55142,10.15914,11.89521,11.89521,0,0,0,6.55091,1.94319h8.88246a11.8957,11.8957,0,0,0,6.55091-1.94319,12.07127,12.07127,0,0,0,3.67786-3.73649,12.06923,12.06923,0,0,0,3.67787,3.73649,11.89517,11.89517,0,0,0,6.5509,1.94319h8.88247a11.89567,11.89567,0,0,0,6.5509-1.94319,12.04655,12.04655,0,0,0,5.55161-10.15914v-8.77147Z"/><path class="cls-8" d="M527.43848,426.31685a12.10706,12.10706,0,0,1-12.10233,12.10271H514.0037a12.10706,12.10706,0,0,1-12.10233-12.10271V422.7644h-3.8029v3.55245a12.10706,12.10706,0,0,1-12.10232,12.10271h-1.33246a12.10706,12.10706,0,0,1-12.10233-12.10271V422.7644h-3.775v8.77147a12.0464,12.0464,0,0,0,5.55142,10.15914,11.89831,11.89831,0,0,0,6.55091,1.94319h8.88246a11.8988,11.8988,0,0,0,6.55091-1.94319,12.07149,12.07149,0,0,0,3.67786-3.73649,12.06945,12.06945,0,0,0,3.67787,3.73649,11.89828,11.89828,0,0,0,6.5509,1.94319h8.88247a11.89877,11.89877,0,0,0,6.5509-1.94319,12.04655,12.04655,0,0,0,5.55161-10.15914V422.7644h-3.77519Z"/><path class="cls-8" d="M527.43848,451.993a12.10674,12.10674,0,0,1-12.10233,12.10233H514.0037A12.10674,12.10674,0,0,1,501.90137,451.993V448.4402h-3.8029V451.993a12.10673,12.10673,0,0,1-12.10232,12.10233h-1.33246A12.10674,12.10674,0,0,1,472.56136,451.993V448.4402h-3.775v8.77147a12.04542,12.04542,0,0,0,5.55142,10.15914,11.89521,11.89521,0,0,0,6.55091,1.94319h8.88246a11.8957,11.8957,0,0,0,6.55091-1.94319,12.06332,12.06332,0,0,0,3.67786-3.73649,12.06128,12.06128,0,0,0,3.67787,3.73649,11.89517,11.89517,0,0,0,6.5509,1.94319h8.88247a11.89567,11.89567,0,0,0,6.5509-1.94319,12.04557,12.04557,0,0,0,5.55161-10.15914V448.4402h-3.77519Z"/></g><path class="cls-5" d="M545.87606,149.70272c0,8.38193-6.26967,15.22173-14.04793,15.3222-4.99581,15.25509-17.23332,26.01757-31.51617,26.01757S473.758,180.28,468.76223,165.02492c-7.77826-.134-14.04794-6.94027-14.04794-15.3222a15.619,15.619,0,0,1,6.73891-13.04214,13.488,13.488,0,0,1,7.309-2.31343,42.77622,42.77622,0,0,1,7.34258-13.5789c.8382.97243,16.36156,18.10507,36.44486,18.47382a102.27862,102.27862,0,0,0,26.35276-2.7493A15.614,15.614,0,0,1,545.87606,149.70272Z"/><path class="cls-2" d="M545.87606,134.34715a50.10087,50.10087,0,0,1-6.97363,2.14562,102.27862,102.27862,0,0,1-26.35276,2.7493c-20.0833-.36875-35.60666-17.50139-36.44486-18.47382a42.77622,42.77622,0,0,0-7.34258,13.5789,13.488,13.488,0,0,0-7.309,2.31343c-1.00579-19.71434,8.51618-48.01177,44.92727-48.01177S545.87606,134.34715,545.87606,134.34715Z"/><path class="cls-5" d="M575.62964,199.30725c-3.17072,20.23556-17.31452,53.09254-75.6921,53.09254-58.34647,0-72.52061-32.857-75.69134-53.06218a42.95878,42.95878,0,0,0,13.11775-3.10849c.09335-.03036.21781-.09259.31039-.12371.49785-.18669.96382-.4045,1.46166-.59119a162.81149,162.81149,0,0,1,39.16655-10.66191,30.11231,30.11231,0,0,0,43.39444,0,162.81718,162.81718,0,0,1,39.16731,10.66191c.49708.18669.96306.4045,1.4609.59119.06223.03112.15558.06223.21781.09335A42.56727,42.56727,0,0,0,575.62964,199.30725Z"/><polygon class="cls-5" points="521.697 184.852 478.303 184.852 478.303 193.463 532.017 200.55 521.697 184.852"/><path class="cls-3" d="M584.27134,386.40724s-30.27669,13.86375-70.9049,17.53156c-4.32123.4045-8.82839.68378-13.36667.80824-.31039,0-.65266-.03111-.96381-.03111-46.68886-1.55425-83.30776-18.30869-83.30776-18.30869-34.31712-62.88475-32.57694-109.04616-32.57694-109.04616,24.21528-51.88056,19.27326-81.84686,19.27326-81.84686a43.403,43.403,0,0,0,21.82168,3.82339c3.13885,20.11261,17.1893,52.72067,74.78976,53.06218h.96381c58.34647,0,72.58361-32.857,75.75433-53.06218a43.40153,43.40153,0,0,0,21.82092-3.82339s-4.942,29.9663,19.27326,81.84686C616.84828,277.36108,618.58922,323.52249,584.27134,386.40724Z"/><g class="cls-9"><path class="cls-10" d="M597.85539,335.98553a58.21017,58.21017,0,0,1-8.71436,10.51153,68.79245,68.79245,0,0,1-10.82715,8.58905,62.757,62.757,0,0,1-40.48584,9.64264c-1.189-.06927-2.35644-.26477-3.52783-.44672-1.167-.19647-2.355-.32305-3.50342-.60241-2.30273-.5351-4.62939-1.01392-6.86914-1.75629-1.12353-.35718-2.27636-.64618-3.37646-1.06433l-3.29981-1.25635-1.64794-.63373-1.60254-.72576-3.20557-1.45563c-2.1123-1.01392-4.13623-2.1825-6.20752-3.27l-5.96973-3.63739h4.377l-5.96875,3.63934c-2.07032,1.08923-4.09717,2.25232-6.20606,3.2738l-3.20556,1.45551-1.60254.72571-1.64844.63367-3.30029,1.25622c-1.1001.41736-2.25049.71368-3.37549,1.06763-2.23975.74225-4.5669,1.22088-6.87012,1.75574-1.14892.27648-2.33594.4096-3.50342.60522-1.17138.18182-2.33935.37714-3.52832.44629a62.05845,62.05845,0,0,1-14.20849-.13141,59.15711,59.15711,0,0,1-13.74952-3.29547,67.80371,67.80371,0,0,1-12.53417-6.217,68.90251,68.90251,0,0,1-10.82569-8.59339,58.1569,58.1569,0,0,1-8.71045-10.51641,60.77726,60.77726,0,0,0,4.89551,4.65228c1.69287,1.46936,3.43115,2.8764,5.24609,4.17016a72.71947,72.71947,0,0,0,11.32862,6.86841,62.99334,62.99334,0,0,0,24.915,6.66651,66.71515,66.71515,0,0,0,25.25439-3.64484,88.25874,88.25874,0,0,0,11.92578-4.99017c1.937-.96723,3.82031-2.06165,5.73438-3.08222l5.56054-3.439L500.873,341.792l2.12207,1.39466a101.32408,101.32408,0,0,0,23.21777,11.52008,66.69681,66.69681,0,0,0,25.25781,3.647,62.95836,62.95836,0,0,0,24.91992-6.66809,72.882,72.882,0,0,0,11.32715-6.87274c1.81494-1.29456,3.55176-2.703,5.24463-4.17243A60.80163,60.80163,0,0,0,597.85539,335.98553Z"/></g></g></g></svg>