<svg xmlns="http://www.w3.org/2000/svg" xmlns:xlink="http://www.w3.org/1999/xlink" width="197.131" height="175.465" viewBox="0 0 197.131 175.465">
  <defs>
    <clipPath id="clip-path">
      <path id="use1236" d="M0,0,57.1.18A74.672,74.672,0,0,1,78.775,23.758a163.147,163.147,0,0,0,.9,40.319c1.2,8.123,3.01,16.152,3.977,24.305,1.912,16.109.326,33.083-7.513,47.285C68.534,149.452,55.473,159.72,41.01,165.94a92.813,92.813,0,0,1-40.67,7.424" transform="translate(0)" fill="#f1f1f1"/>
    </clipPath>
    <clipPath id="clip-path-2">
      <path id="use1236-2" data-name="use1236" d="M59.182,322.669l57.1-.18a74.672,74.672,0,0,0,21.674-23.578,163.147,163.147,0,0,1,.9-40.319c1.2-8.123,3.01-16.152,3.977-24.305,1.912-16.109.326-33.083-7.513-47.285-7.608-13.784-20.669-24.052-35.132-30.271a92.813,92.813,0,0,0-40.67-7.424" transform="translate(-59.182 -149.213)" fill="#f1f1f1"/>
    </clipPath>
  </defs>
  <g id="Group_17399" data-name="Group 17399" transform="translate(-4331.414 -2154.01)">
    <path id="path1304-3" d="M0,0,57.1.18A74.672,74.672,0,0,1,78.775,23.758a163.147,163.147,0,0,0,.9,40.319c1.2,8.123,3.01,16.152,3.977,24.305,1.912,16.109.326,33.083-7.513,47.285C68.534,149.452,55.473,159.72,41.01,165.94a92.813,92.813,0,0,1-40.67,7.424" transform="translate(4429.904 2328.471) rotate(180)" fill="#f1f1f1"/>
    <g id="Group_17390" data-name="Group 17390" transform="translate(4430.425 2328.471) rotate(180)" clip-path="url(#clip-path)">
      <path id="path1212" d="M80.675,130.395q.421-15.26-.335-30.522c-.5-10.1-1.389-20.174-1.9-30.271-.834-16.455-.7-33.17-5.082-49.052A88.569,88.569,0,0,0,65.4,1.1L0,0,3.314,183.837l62.31-13.478Z" transform="translate(-10.66 17.271)" fill="#f1f1f1" stroke="#fe6347" stroke-linecap="round" stroke-linejoin="round" stroke-width="2"/>
    </g>
    <path id="path1191" d="M1.3,49.529a6.781,6.781,0,0,1,7.187-2.5c1.724.46,3.238,1.591,5,1.875a9.155,9.155,0,0,0,3.057-.148,24.9,24.9,0,0,1,3.036-.477,14.228,14.228,0,0,1,6.25,1.406,12.617,12.617,0,0,0,3.906,1.25,10.211,10.211,0,0,0,4.876-1.252,13.562,13.562,0,0,1,4.811-1.56c1.462-.076,2.912.363,4.375.312a9.952,9.952,0,0,0,3.594-.937,20.779,20.779,0,0,0,7.812-5.937,65.765,65.765,0,0,0-2.031-19.374A65.79,65.79,0,0,0,44.425,2.5,18.718,18.718,0,0,1,31.457,3.594c-2.782-.784-5.4-2.223-8.281-2.5a18.336,18.336,0,0,0-2.812,0,66.544,66.544,0,0,1-9.687.312A22.636,22.636,0,0,1,4.584,0,115.528,115.528,0,0,0,1.3,49.528Z" transform="translate(4421.12 2290.584) rotate(180)" fill="#f1f1f1" stroke="#fe6347" stroke-linecap="round" stroke-linejoin="round" stroke-width="2"/>
    <path id="path3496" d="M3.373,0,56.762.18A74.672,74.672,0,0,1,78.436,23.758a163.147,163.147,0,0,0,.9,40.319c1.2,8.123,3.01,16.152,3.977,24.305,1.912,16.109.326,33.083-7.513,47.285C68.195,149.452,55.134,159.72,40.67,165.94A92.813,92.813,0,0,1,0,173.364" transform="translate(4429.565 2328.471) rotate(180)" fill="#f1f1f1" stroke="#fe6347" stroke-linecap="round" stroke-linejoin="round" stroke-width="2"/>
    <path id="path1152-2" d="M5,53.526a13.356,13.356,0,0,1,3.8,2.266c1.413,1.2,2.584,2.7,4.164,3.671a7.536,7.536,0,0,0,3.752,1.116,7.186,7.186,0,0,0,3.785-.979,8.056,8.056,0,0,0,3.44-4.428c.931-2.819.474-5.878.16-8.83a74.548,74.548,0,0,0-1.451-10.784,56.13,56.13,0,0,0-4.062-10A44.616,44.616,0,0,1,14.53,14.466c-.579-3.2-.518-6.577-1.875-9.531A8.873,8.873,0,0,0,9.225.981,6.614,6.614,0,0,0,4.112.221,5.782,5.782,0,0,0,0,4.779" transform="translate(4356.854 2307.573) rotate(180)" fill="#f1f1f1" stroke="#fe6347" stroke-linecap="round" stroke-linejoin="round" stroke-width="2"/>
    <path id="path1304-3-2" data-name="path1304-3" d="M59.182,322.669l57.1-.18a74.672,74.672,0,0,0,21.674-23.578,163.147,163.147,0,0,1,.9-40.319c1.2-8.123,3.01-16.152,3.977-24.305,1.912-16.109.326-33.083-7.513-47.285-7.608-13.784-20.669-24.052-35.132-30.271a92.813,92.813,0,0,0-40.67-7.424" transform="translate(4370.871 2005.802)" fill="#f1f1f1"/>
    <g id="Group_17392" data-name="Group 17392" transform="translate(4429.533 2155.016)" clip-path="url(#clip-path-2)">
      <path id="path1212-2" data-name="path1212" d="M137.466,196.743q.421,15.26-.335,30.522c-.5,10.1-1.389,20.174-1.9,30.271-.834,16.455-.7,33.17-5.082,49.052a88.57,88.57,0,0,1-7.954,19.444l-65.4,1.1L60.105,143.3l62.31,13.478Z" transform="translate(-67.451 -170.952)" fill="#f1f1f1" stroke="#fe6347" stroke-linecap="round" stroke-linejoin="round" stroke-width="2"/>
    </g>
    <path id="path1191-2" data-name="path1191" d="M62.362,168.728a6.782,6.782,0,0,0,7.187,2.5c1.724-.46,3.238-1.591,5-1.875a9.155,9.155,0,0,1,3.057.148,24.894,24.894,0,0,0,3.036.477,14.228,14.228,0,0,0,6.25-1.406,12.617,12.617,0,0,1,3.906-1.25,10.211,10.211,0,0,1,4.876,1.252,13.563,13.563,0,0,0,4.811,1.56c1.462.076,2.912-.363,4.375-.312a9.951,9.951,0,0,1,3.594.937,20.779,20.779,0,0,1,7.812,5.937,65.643,65.643,0,0,1-10.781,39.06,18.718,18.718,0,0,0-12.968-1.094c-2.782.784-5.4,2.223-8.281,2.5a18.338,18.338,0,0,1-2.812,0,66.542,66.542,0,0,0-9.687-.312,22.635,22.635,0,0,0-6.093,1.406,115.529,115.529,0,0,1-3.281-49.528Z" transform="translate(4377.777 2072.328)" fill="#f1f1f1" stroke="#fe6347" stroke-linecap="round" stroke-linejoin="round" stroke-width="2"/>
    <path id="path3496-2" data-name="path3496" d="M62.627,322.669l53.389-.18a74.672,74.672,0,0,0,21.674-23.578,163.147,163.147,0,0,1,.9-40.319c1.2-8.123,3.01-16.152,3.977-24.305,1.912-16.109.326-33.083-7.513-47.285-7.608-13.784-20.669-24.052-35.132-30.271a92.813,92.813,0,0,0-40.67-7.424" transform="translate(4371.138 2005.802)" fill="#f1f1f1" stroke="#fe6347" stroke-linecap="round" stroke-linejoin="round" stroke-width="2"/>
    <path id="path1152-2-2" data-name="path1152-2" d="M79.8,175.936a13.355,13.355,0,0,0,3.8-2.266c1.413-1.2,2.584-2.7,4.164-3.671a7.536,7.536,0,0,1,3.752-1.116,7.186,7.186,0,0,1,3.785.979,8.056,8.056,0,0,1,3.44,4.428c.931,2.819.474,5.878.16,8.83A74.547,74.547,0,0,1,97.457,193.9a56.128,56.128,0,0,1-4.062,10A44.616,44.616,0,0,0,89.332,215c-.579,3.2-.518,6.577-1.875,9.531a8.873,8.873,0,0,1-3.43,3.954,6.614,6.614,0,0,1-5.113.76,5.782,5.782,0,0,1-4.112-4.558" transform="translate(4428.303 2078.112)" fill="#f1f1f1" stroke="#fe6347" stroke-linecap="round" stroke-linejoin="round" stroke-width="2"/>
  </g>
</svg>
